<?xml version="1.0" encoding="utf-8"?>
<!-- Generator: Adobe Illustrator 22.1.0, SVG Export Plug-In . SVG Version: 6.00 Build 0)  -->
<svg version="1.1" id="Camada_1" xmlns="http://www.w3.org/2000/svg" xmlns:xlink="http://www.w3.org/1999/xlink" x="0px" y="0px"
	 width="800px" height="668px" viewBox="0 0 800 668" style="enable-background:new 0 0 800 668;" xml:space="preserve">
<style type="text/css">
	.st0{fill:#FFFFFF;}
</style>
<g id="crb">
	<path class="st0" d="M340.9,68.5c-1.5-1-3.1-1.9-4.7-2.7c-1.5-0.8-2.9-1.8-4.1-3.2c-2.4-3.1-2.5-3-6.5-2.9c-0.4,0-0.9-0.1-1.3,0.1
		c-1.2,0.4-2-0.2-2.5-1.2c-0.9-1.7-2.4-2.3-4.2-2c-1,0.1-1.9-0.2-2.6-0.8c-0.5-0.4-1.1-0.7-1.6-1.2c-1-1-2.1-1.2-3.4-1
		c-1.6,0.2-3-0.1-4.1-1.4c-0.6-0.7-1.4-1.3-2.2-1.8c-1.2-0.8-1.9-1.7-1.9-3.2c0-1.5-0.8-2.4-2.2-3.2c-3.1-1.7-6.3-2.6-9.9-2.2
		c-0.7,0.1-1.3,0-2,0c-1,0-1.9-0.2-2.7-0.6c-2.5-1.2-5.1-2.3-7.5-3.6c-2.8-1.5-5.8-2.5-9-2c-2.4,0.4-4-0.8-5.6-2.4
		c-0.6-0.6-1-1.1-0.7-2.1c0.4-1.3-0.9-2.9-2.1-2.6c-2.1,0.5-4-0.2-6-0.5c-1.4-0.3-2.4,0.1-3.1,1.3c-0.5,0.9-1.1,1.1-2,0.7
		c-2.2-0.8-2.2-0.7-3.6,1c-0.3,0.4-0.7,0.8-0.9,1.2c-0.5,0.7-1.1,1-1.9,0.5c-1.3-0.8-2.2-0.2-3.1,0.7c-1,1.1-2.2,2.2-3.2,3.3
		c-0.5,0.5-0.9,0.9-1.7,0.5c-2.7-1.3-4.7-0.4-6.4,1.9c-1.4,1.9-4,2.3-5.9,1c-0.2-0.1-0.3-0.3-0.5-0.4c-0.9-0.5-1.9-0.9-2.9-0.8
		c-0.9,0-1.1,0.9-1.6,1.4c-0.5,0.5-1,0.9-1.7,0.4c-0.9-0.6-1.7-0.3-2.5,0.1c-2.5,1.2-5.2,1.4-7.9,2.1c-0.3,0.1-0.7,0.1-0.8-0.1
		c-0.8-0.7-2-0.5-2.8-0.9c-1.1-0.4-2.3,0-3.2-0.6c-1-0.8-1.6-0.3-2.2,0.4c-1.1,1-1.7,2.3-2.3,3.7c-0.6,1.3-1.5,2.2-3,1.9
		c-1.1-0.2-1.7,0.4-2.2,1.4c-0.5,1.3-0.6,2.7-0.8,4.1c-0.1,0.6,0.1,1.3-0.5,1.6c-1.6,0.8-1.3,2.3-1.3,3.6c0,2.2-2.6,3.8-4.6,2.9
		c-0.8-0.4-1.3-0.4-2,0.2c-1.4,1.2-2.8,2.3-4.2,3.5c-0.6,0.5-0.4,1-0.2,1.6c0.8,2.5,0.1,4.6-1.7,6.3c-0.5,0.5-0.9,0.9-1.4,1.4
		c-0.8,0.9-1.9,1.6-1.8,3.1c0.1,0.6-0.4,1-1,1c-1.9,0-2.7,1.3-3.4,2.7c-0.5,1.1-1.3,1.6-2.4,1.1c-3-1.1-5.9-0.6-8.8,0.3
		c-1.1,0.3-2,0.7-2.6,1.8c-0.6,1.2-1.6,1.7-2.9,1.5c-0.5-0.1-1,0.1-1.5,0c-1.3-0.1-2.3,0.3-3.1,1.3c-0.3,0.4-0.7,0.7-1.1,1.1
		c-0.6,0.7-1.2,0.8-1.8,0c-0.6-0.8-1.2-0.6-1.8,0.1c-0.9,1.1-2,2.1-3.6,2.3c-0.8,0.1-1.2,0.8-1.6,1.4c-1.1,1.6-1.3,1.7-2.6,0.3
		c-1.1-1.2-2.2-1.7-3.8-1.6c-1.6,0.1-1.7,0-2-1.7c-0.2-1.3-1.3-1.9-2.1-2.7c-0.5-0.6-1.1,0-1.6,0.1c-1.3,0.3-2.9-0.8-2.8-2.2
		c0.1-1.8-0.6-3.1-1.7-4.3c-0.6-0.7-1-1-2-0.8c-2,0.5-3.4-0.7-3.4-2.7c0-1,0-1.9-0.4-2.8c-0.7-1.6-1.2-3.3-1.7-5
		c-0.2-0.7-0.5-1.3-0.4-2.1c0.2-1-1.2-2.3-2-1.8c-1.3,0.7-2.5,0.6-3.8,0.6c-0.9,0-1.3,0.4-1.3,1.3c-0.1,1.8,0.4,3.5,0.4,5.2
		c0,0.9,0.2,1.6,1.1,2c1.1,0.5,1.4,1.5,1.1,2.6c-0.5,1.7-0.5,1.9,1.5,3.1c0.3,0.2,0.6,0.4,1,0.5c0.9,0.5,1.5,1.2,1.2,2.3
		c-0.3,1.2,0.2,2.1,1.1,2.9c0.3,0.3,0.6,0.6,0.9,0.9c0.9,1.1,0.7,1.8-0.8,2c-0.3,0.1-0.6,0-0.9,0.1c-0.7,0.1-0.9,0.5-0.6,1.1
		c1,2.3,1.4,5,3.4,6.8c0.6,0.6,1.2,1.3,1.6,2c1.3,1.9,3.1,3.5,4.1,5.7c1.7,4,3.6,8,5.3,12c0.5,1.1,1.2,1.9,2.1,2.7
		c1.6,1.3,3,2.7,4.5,4.2c1,1,0.9,1.5-0.5,1.9c-0.8,0.2-1.7,0.4-2.6,0.5c-1.2,0.2-1.9,0.7-2.2,2c-0.5,2-1.2,3.9-1.7,5.9
		c-3.3,11.3-6.7,22.5-10,33.8c-1.6,5.4-3.2,10.8-4.8,16.2c-0.5,1.8-0.3,2,1.4,2.2c2.3,0.2,2.3,0.2,2.3,2.5c0,1.3-0.2,2.7,0.9,3.7
		c0.7,0.7,0.9,1.4,1,2.1h3.2c0.8-0.8,3.7-1.1,3.4-2.2c-0.7-2.8-2-5.8,0.6-5.7c1.1-0.1,2.1,0.5,3.2,0.6c2.7,0.3,5.4,0.3,8.1,0.4
		c2.5,0.1,2.6,0.2,3.4,2.5c0.1,0.3,0.2,0.7,0.4,1c1,2,1,3.7-1,5.1c-0.8,0.6-0.8,1.5-0.8,2.4c0,2.9,0,5.8,0,8.8
		c0,2.3-0.1,2.4-2.3,2.4c-1.2,0-2.3,0.1-2.9,1.4c-0.4,0.8-1.2,1-2.1,0.7c-0.3-0.1-0.6-0.2-0.8-0.3c-3-0.2-4.9-1.6-4.9-4.8
		c0-1.2-0.7-1.9-1.6-2.4c-2.7-1.6-3.3-4.1-3.2-6.9h-3c-0.2,0.7-0.7,1-1.5,1c-1-0.1-2.1,0.1-3.1-0.1c-1.8-0.3-2.7,0.5-3.4,2.1
		c-2.9,7-6,13.9-9,20.9c-5.9,13.6-11.7,27.2-17.6,40.8c-0.7,1.6-0.7,1.6,0.6,2.7c7,5.6,14.1,11.1,21.1,16.7c1.6,1.3,1.7,1.5,0.6,3.2
		c-0.3,0.5-0.6,1-1,1.5c-1.5,2.2-1.5,2.2-3.9,1.2c-0.8-0.4-1.4-0.3-1.9,0.4c-0.4,0.5-0.8,1-1.2,1.6c-0.7,0.9-1.5,1.2-2.6,1.2
		c-3-0.1-3.6,0.5-3.9,3.4c-0.2,1.7-0.4,1.9-2.1,1.4c-0.4-0.1-0.7-0.2-1-0.3c-0.8-0.3-1.3,0-1.5,0.7c-0.5,1.8-1.7,2.4-3.4,2.6
		c-0.9,0.1-1.1,0.7-1.2,1.5c-0.1,1.2,0.5,1.9,1.2,2.7c0.9,1.3,0.8,1.7-0.4,2.4c-2,1.2-2,1.2-1.2,3.4c0.1,0.3,0.1,0.7,0.7,0.9
		c0.8-0.4,1.6-1.1,2.3-1.8c0.5-0.5,0.9-1,1.7-0.7c0.6,0.3,0.6,0.9,0.6,1.5c-0.1,1.7,0.1,3.5-0.2,5.2c-0.1,0.6-0.1,1.2,0.1,1.7
		c0.6,1.3,1.2,2.5,1.7,3.8c0.3,0.7,0.8,1.2,1.7,1.2c0.5,0,1,0.3,1.5,0.3c2.1,0.1,2.7,2,3.8,3.3c0.8,1-0.1,2.1-0.5,3.1
		c-0.4,1.1-1.1,2.1-0.9,3.3c0.4,2.2,0.8,4.3,1.1,6.5c0.2,1.3,0.6,2.2,1.9,2.6c1.1,0.3,1.5,1,1.4,2.2c-0.1,1.5-0.1,3.1-0.1,4.6
		c0,0.6-0.3,1.4,0.6,1.7c1,0.3,1.5-0.3,1.9-1.1c0.3-0.6,0.7-1.1,1.1-1.6c0.5-0.7,1.1-0.7,1.6-0.1c0.8,0.9,1.6,1.9,2.4,2.8
		c2.3,2.7,2.3,3-0.9,4.3c-1,0.4-2,0.9-3,1.3c-1.1,0.4-1.1,1.3-0.9,2.2c0.2,1,1.1,0.5,1.7,0.5c0.4,0,0.7-0.1,1.1-0.2
		c1.4-0.4,2.4-0.1,3.1,1.2c0.4,0.7,0.7,1.4,1.5,1.9c0.9-1,1.1-2.2,1.4-3.4c0.4-1.6,1-3.2,1.5-4.8c0.3-1.1,0.9-1.9,2.2-2.1
		c2.8-0.4,4.8-1.6,5.2-4.8c0.1-1.1,0.8-1.8,2.1-1.9c3.3,0,5.3-1.9,6.7-4.7c0-0.1,0.1-0.1,0.1-0.2c3.2-4.7,1.8-4.1,7.6-4.3
		c0.3,0,0.6,0,0.9,0c0.5,0,1-0.2,1.4-0.6c1.6-1.5,3.2-3,4.8-4.4c0.7-0.6,0.9-1.3,0.9-2.1c0.3-4.7,0.6-9.5,0.8-14.2
		c0-0.7,0.1-1.3,0.6-1.8c2.2-2,4.1-4.4,7.3-4.9c1.2-0.2,1.8-0.8,1.7-2c0-0.9,0.2-1.7,0.3-2.6c0.3-1.6,0.7-1.8,2-0.7
		c1.7,1.4,3.5,1.6,5.5,1.4c6.1-0.5,12.2-0.9,18.3-1.4c0.8-0.1,1.7-0.3,2.6-0.5c-0.5-2.9-0.8-6-1.5-8.7c-0.6-2.1-1-4-2-6
		c0-2.3-0.3-4.3-0.6-6.6c0-0.3,0-0.6,0-0.9c0.4-5.3,0.8-10.6,1.2-15.9c0.4-5.9,0.7-11.8,1-17.7c0-0.4,0-0.7,0.1-1.1
		c0.1-0.7,0.5-1.2,1.2-1.3c0.6-0.1,1.1-0.2,1.7-0.3c4.1-0.9,8.4-1.2,12.4-2.7c4-1.5,8.1-2.8,12.2-4.2c4.4-1.5,8.7-3,13.1-4.4
		c1.6-0.5,2.1-1.5,2.2-3c0.3-4.3,0.6-8.6,0.9-12.9c0.1-1.9,0.4-2.2,2.3-2.1c8.3,0.1,16.5-0.5,24.8-0.4c7.5,0,15-0.1,22.6-0.4
		c2.5-0.1,2.5,0.1,2.5,2.6c0,1.3-0.5,2.6-0.2,3.9c0.4,1.7,0.2,3.5,0,5.2c-0.1,0.8-0.2,1.5,0,2.6c0.4-0.3,0.7-0.5,1-0.7
		c2.2-1.9,4.2-3.9,6.5-5.5c1.4-1,1.6-2.1,1.1-3.5c-0.7-1.7-0.1-3.1,0.7-4.6c3.1-5.5,6.1-11.1,9.2-16.7c0.4-0.7,0.9-1.3,1.6-1.8
		c2.8-2.1,5.6-4.3,8.4-6.3c1.3-0.9,2.2-2.1,3-3.4c4.1-6.9,8.3-13.7,12.4-20.6c1.3-2.2,3-4.3,3.7-6.9c5-19.6,10-39.3,15-58.9
		c1.9-7.3,3.7-14.6,5.6-21.8c0.2-0.7,0.2-1.4,1.1-1.7C342.1,70.1,342.2,69.4,340.9,68.5z"/>
</g>
<g id="ptp">
	<path class="st0" d="M355.9,484.1c-3.8-1.6-3-0.7-3.7-4.6c-0.3-1.9-1-3.2-2.9-3.9c-1.3-0.4-2.5-1.2-3.7-1.8
		c-1.1-0.6-2.2-0.8-3.3-0.2c-1.2,0.5-2.5,0.6-3.8,0.2c-0.3-0.1-0.5-0.2-0.8-0.3l-0.2-0.4c0,0-3.6-2.4-4.1-3.1
		c-0.4-0.7-3.7-0.7-3.7-0.7s-3.8-0.8-6.1-1.4c-0.1-1.8-0.9-2.4-3.3-3c-1.8-0.4-3.5-0.9-5.3-1.3c-1-0.3-1.6-0.8-1.7-1.9
		c-0.2-2.7-0.6-5.4-0.9-8c-0.4-3.7-0.5-3.8,3-4.7c2-0.5,3.5-1.3,3.9-3.5c0.2-1.1,1-1.5,2-1.6c1.6-0.2,3.2-0.5,4.7-0.8
		c0.3-0.1,0.6-0.1,0.6-0.5c0-0.5-0.3-0.7-0.6-0.7c-0.4-0.1-0.9-0.1-1.3-0.1c-1.6,0-3.2,0-4.8,0c-0.9,0-1.7-0.2-2.4-0.8
		c-2.4-2-4.9-3.9-7.4-5.8c-0.5-0.4-1-0.8-1.7-0.9c-1.9-0.1-3.8-0.4-5.7-0.4c-2.1,0-3.6-0.5-4.8-2.4c-0.9-1.4-2.1-1.5-3.6-0.7
		c-0.6,0.3-0.9,0.9-1.3,1.5c-1.4,2.5-2.8,5-4.4,7.3c-0.9,1.4-1.3,2.8-1.3,4.5c0.1,2.5,0,2.5-2.5,3.4c-1,0.4-1.7,0.9-2.1,2
		c-0.6,1.7-1.3,3.4-2,5.1c-0.1,0.3-0.3,0.6-0.2,0.8c0.5,1.4-0.1,2.6-0.5,3.8c-0.3,0.8-0.2,1.5,0.4,2.2c1.1,1.2,2.1,2.4,3.2,3.6
		c2.1,2.2,4.4,2,6.1-0.5c0.3-0.4,0.5-0.7,0.8-1.1c0.6-0.8,1.2-1.1,2.3-0.8c1.3,0.4,2.7,0.5,4.1,0.6c0.7,0.1,1.5,0.1,2.1,0.6
		c0.2,0.2,0.3,0.4,0.3,0.5l-3.8,4.3l-2.3,6c0,0,0.2,0.4,0.6,1.1c-0.2,0.3-0.5,0.6-0.8,0.9c-1.1,1-1.4,2.1-0.8,3.5
		c0.9,1.9,0.9,3.8-0.4,5.5c-0.7,0.9-0.3,1.6,0.4,2.3c0.9,1,1.6,2.1,1.4,3.5c-0.3,1.8-0.6,3.6-0.6,5.4c0,2.5,0.1,5.1,2.4,6.9
		c1.9,1.5,3.7,3.1,5.5,4.7c2.8,2.4,2.7,2.4,2.8,6.1c0,0.1,0,0.1,0,0.2c-0.2,1.2,0.4,1.9,1.4,2.5c1.2,0.7,2.3,1.5,3.5,2.2
		c2.7,1.8,2.7,1.8,3.9-1.1c0.5-1.3,1.3-2.2,2.8-2.5c1.2-0.3,2.4-0.6,3.6-1.1c1.3-0.5,2.3-0.3,3.5,0.4c1.3,0.8,2.5,1.7,4.2,1.9
		c-0.1-4.7,0.6-9.2,0.5-13.7c0-0.9-0.1-1.6-0.9-2.3c-1.4-1.2-1.6-1.4-1-2.7c0.6-0.3,1-0.5,1-0.5s1.1-1.3,1.5-0.9s1.1,0,1.1,0
		l2.9,0.9l1.5-0.9l0.4-0.5c1.3-0.2,2.5-0.5,3.3-1.8c0.2-0.2,0.2-0.5,0.4-0.8c0.2-0.5,0.4-0.9,0.7-1.4c0.2-0.5,0.6-0.8,1.2-0.9
		c2.4-0.6,4.8-1.2,7.2-1.7c0.5-0.1,1.1-0.1,1.5,0c2.6,1,4.4,0.3,5.6-2.2c0.5-1,1.4-1.4,2.4-1.6c0.8-0.2,2,0.1,2.6-0.9
		C357.7,484.5,356.7,484.5,355.9,484.1z"/>
</g>
<g id="ptm">
	<path class="st0" d="M208.8,399.8c-0.3,0.1-0.4,0.2-0.4,0.2c-2.2-0.7-4.2,0.1-6,1.2c-2.6,1.6-5.6,1.6-8.5,1.8
		c-1.8,0.1-2.9,0.7-3.8,2.4c-1.7,3.3-3.5,6.6-5.3,9.8c-0.6,1.2-1,2.4-1.3,3.7c-0.2,1-0.7,1.6-1.8,1.4c-2.1-0.5-3.8,0.5-5.7,1.2
		c-4,1.5-7.1,4.1-9.8,7.4c-1.5,1.8-2.5,3.6-2.7,5.8c-0.1,0.5-0.3,1-0.3,1.5c-0.3,3.8-1.9,7-4.4,9.8c-0.6,0.7-1.2,1.2-2,1.6
		c-2.2,0.9-4.4,1.9-6.7,2.8c-1.1,0.5-1.9,1.2-2.6,2.2c-3.8,5.7-7.7,11.4-11.4,17.2c-0.9,1.4-1.9,2-3.6,1.7c-0.6-0.1-1.2-0.2-1.7-0.2
		c-0.7,0-1.1-0.4-1.3-1c-0.4-1.2-0.9-2.3-1.3-3.5c-0.3-0.9-0.9-1.6-1.9-1.4c-1.8,0.3-3.3-0.3-4.5-1.6c-0.6-0.6-1.2-0.6-2-0.1
		c-1.4,1-2.9,1.9-4.4,2.9c-0.9,0.6-1.9,1-3,1.2c-1.3,0.2-2.3,0-3.1-1c-0.7-0.9-1.6-0.9-2.5-0.2c-0.8,0.6-1.5,1.1-2.6,1
		c-1.7-0.2-3.1-0.6-3.7-2.4c-0.1-0.4-0.4-0.8-0.6-1.2c-0.9-1.6-0.9-1.6-2.7-1.3c-0.9,0.2-1.2-0.2-1.6-1c-0.8-1.5-0.7-2.7,0.5-4
		c1.5-1.5,2.4-3.3,2.2-5.5c-0.2-2,0.7-3.4,2-4.8c2.2-2.3,2.1-2.3-0.8-3.7c-1.6-0.7-2-2.9-0.8-4.1c0.7-0.7,1.4-1.3,2.1-1.9
		c0.6-0.6,0.8-1.1,0.4-1.9c-0.6-1.2-1.1-2.5-1.7-3.8c-0.3-0.7-0.2-1.2,0.5-1.6c0.8-0.4,1.6-0.7,2.4-1.1c1.1-0.6,1.2-1.1,0.2-2
		c-0.9-0.9-1.8-1.7-2.8-2.4c-0.8-0.6-1-1.3-0.9-2.3c0.2-1.2,0.3-2.5,0.5-3.7c0.1-0.9-0.1-1.6-1-1.9c-0.4-0.2-0.8-0.4-1.2-0.6
		c-1.9-1-2.1-3.3-0.3-4.5c1.7-1.1,2.6-2.6,2.9-4.6c0.1-0.9,0.5-1.7,0.6-2.5c0.4-2,1-3.6,3.1-4.4c0.7-0.3,1.1-0.9,1.1-1.8
		c0-1.2,0-2.3,0.1-3.5c0-0.9-0.4-1.3-1.3-1.3c-0.8,0.1-1.7,0.4-2.4-0.4c-1.9-2-2-2.5,0.3-4.2c2.5-1.8,3.8-4,3.3-7.2
		c-0.2-1.2-0.1-2.5,0-3.7c0.1-2.3-0.1-4.5-1.2-6.6c-0.6-1.1-0.5-1.9,0.6-2.6c0.8-0.6,1.5-1.3,2.3-2c0.8-0.6,1.1-1.4,1.2-2.4
		c0.1-1.3-0.2-2.3-1.5-2.7c-1.2-0.4-1.5-1.2-1.1-2.4c1.1-3.1,2.1-6.2,3-9.4c0.2-0.6,0.6-0.9,1.2-1.1c1.1-0.3,2.1-0.6,3.2-0.9
		c1.1-0.3,1.9-0.9,2.1-2c0.4-2.9,2-4.4,5-4.4c1.2,0,2-0.7,2.6-1.7c1.1-1.8,2.4-3.5,3.5-5.3c0.6-1,1.3-1.5,2.5-1.4
		c3.4,0.4,5.9-0.9,8.3-3.3c3.6-3.7,3.8-3.5,4.1-8.8c0.2-3.4,0.4-6.9,0.5-10.3c0-1,0.4-1.6,1.1-2.3c1.8-1.9,3.9-3.2,6.5-3.8
		c2-0.4,2-0.6,2.1-2.6c0-0.5,0.1-1,0.1-1.5c0.1-0.4,0.4-0.5,0.6-0.3c2.6,2.1,5.5,0.8,8.2,0.6c6-0.3,11.9-1,17.9-1.5
		c1.4-0.1,1.5-0.1,1.6,1.3c0.3,2.8,0.6,5.7,0.9,8.5c0.1,0.9,0.4,1.7,1,2.3c2.7,2.5,4,5.5,3.4,9.2c-0.3,1.8,0.4,3.3,1.5,4.6
		c0.4,0.5,0.7,1.1,1.1,1.6c0.9,1,0.8,2.1,0.7,3.3c-0.3,3.2-0.9,6.4-0.7,9.6c0.3,4.4,0.4,8.9,0.9,13.3c0.6,4.5,1.2,9,1.9,13.4
		c0.8,5.5,1.6,11,2,16.5c0,0.4,0,0.7,0.1,1.1c0.3,1.4,0.6,1.6,1.9,1.3c3.1-0.7,6.3-1.4,9.4-2.1c0.3-0.1,0.6-0.2,0.8-0.2
		c1.8-0.3,2-0.2,2.2,1.7c0.1,1.1,0.5,2.1-0.5,3.1c-0.6,0.5-0.2,1.2,0,1.9c1,3,2,6,3,8.9C208.7,399.2,208.8,399.5,208.8,399.8z"/>
</g>
<g id="rrp">
	<path class="st0" d="M533.2,420.5c-0.5,0.3-0.9,0.1-1.3-0.1c-4.1-1.2-8.3-2.4-12.4-3.6c-1.5-0.5-3-0.6-4.5-0.4
		c-2.7,0.3-5.4,0.5-8.1,0.8c-1.1,0.1-2.2,0-3.2-0.5c-2.3-0.9-4.6-1.8-6.9-2.8c-0.9-0.4-1.8-0.4-2.7,0c-1.2,0.5-2.5,0.9-3.6,1.5
		c-2.5,1.3-5.2,1.3-7.9,1.4c-1.4,0-1.5-0.2-1.3-1.6c0.3-1.9,0.7-3.7,1.1-5.6c0.3-1.2,0.3-2.2-0.7-3c-0.2-0.1-0.3-0.4-0.4-0.5
		c-1.6-1.3-1.9-2.9-1.4-4.9c0.4-1.6,0.1-3.3,0.5-5c0.2-0.8-0.2-1.4-0.5-2.1c-1.9-4.2-3.8-8.4-5.7-12.6c-0.3-0.7-1.3-3.4-2-4.4
		c-1.2-2.6-2.3-5.1-3.5-7.6c-0.3-0.7-1-0.8-1.6-1c-1.3-0.4-2.7-0.8-4-1.2c-0.9-0.2-1.6-0.7-1.8-1.7c-0.1-0.4-0.3-0.7-0.4-1
		c-0.8-3.1-2.8-5.3-5.4-7.1c-1.2-0.8-2.3-1.1-3.7-0.9c-2.9,0.4-4.5-0.6-4.9-3.5c-0.4-2.9-1.6-5.2-4.1-6.8c-1.6-1.1-2.9-2.4-4.3-3.7
		c-1-1-2.1-1.6-3.5-1.1c-1.1,0.4-1.8,0-2.2-1.1c-0.8-1.7-1.7-3.4-2.6-5.1c-0.4-0.7-0.4-1.4-0.4-2.1c0-4.7,0-9.4,0-14
		c0-1.2,0.4-1.8,1.5-2.3c5.2-2.2,10.3-4.6,15.4-6.8c2.7-1.2,5.7-1.3,8.5-2c1-0.2,2-0.4,3-0.6c0.6-0.1,1.2-0.3,1.2-1
		c0-0.6-0.5-0.8-1-1.1c-3-1.6-6-3.3-9.1-4.8c-1.2-0.6-2-1.4-2.1-2.8c-0.2-2.3-1.3-4.1-2.8-5.8c-1.7-2.1-3.3-4.3-4.9-6.4
		c-0.9-1.2-0.8-1.3,0.5-1.9c2.6-1.1,5.1-2.2,7.7-3.1c1.8-0.6,3.1-1.6,4.1-3.4c0.9-1.7,1-1.7,3.1-1.3c1.7,0.4,2.1,0,1.9-1.8
		c-0.2-1.6-0.2-3,0.8-4.4c0.6-0.7,0.3-1.3-0.2-2c-0.9-0.9-1.8-1.9-2.7-2.9c-0.8-0.8-1.5-1.6-1.5-2.8c0-0.8-0.6-1.3-1.3-1.7
		c-1.2-0.7-1.4-1.7-1.4-3c0-2.2-0.1-4.4-0.1-6.6c0-1.6,0-1.6,1.5-1.7c0.7,0,1.3,0,2-0.1c2.1-0.1,2.1-0.1,2.7-2.1c1-3.5,2-7,3-10.5
		c0.1-0.4,0.1-0.9,0.6-1.2c0.7-0.1,1,0.5,1.3,0.9c2.1,2.1,4.3,4.2,6.3,6.4c3.3,3.6,7,6.6,11,9.3c2.4,1.6,5,2.6,7.6,3.8
		c0.7,0.3,1.6,0.3,2.4,0.4c2.8,0.2,5.5,0.3,8.3,0.5c2.4,0.1,2.8,0.6,2.9,3.1c0.1,1.6,0.2,3.2,0.3,4.8c0,1,0.5,1.5,1.4,1.6
		c0.1,0,0.3,0.1,0.4,0.1c3,0,4.8,1.7,5.9,4.3c0.2,0.4,0.5,0.7,0.7,1.1c1.5,3.2,3.7,5.8,7.1,7c0.9,0.3,1.3,1,1.5,2c0.3,2,0.8,4,1.1,6
		c0.1,1.1,0.7,1.7,1.6,2.1c1.2,0.5,2.3,1,3.4,1.5c0.9,0.3,1.2,0.9,1.2,1.8c0,2,0.3,4.1,0.3,6.1c0,1.1,0.4,1.9,1.2,2.6
		c7.3,6.6,14.6,13.2,21.9,19.9c0.2,0.2,0.4,0.4,0.6,0.6c1.6,1.5,1.4,1.3,0.1,2.7c-0.6,0.6-1.2,1.1-1.7,1.7c-2.5,3.4-5.9,4.9-9.9,5.7
		c-4.4,0.8-8.8,2.1-13.2,3.1c-2,0.4-3.4,1.6-4.9,2.7c-0.7,0.5-0.7,1.2-0.6,2c0.2,1.8,0.4,3.6,0.6,5.4c0.1,0.8,0.1,1.6,0.3,2.4
		c0.2,1.1-0.2,1.9-1.1,2.7c-2.6,2.4-5.2,4.9-7.8,7.4c-1.4,1.4-1.4,1.4-0.2,3.1c2.9,4.1,5.7,8.3,8.6,12.4c0.7,1,1.2,2.1,1.4,3.4
		c0.5,3.3,1.1,6.6,1.7,9.9c0.2,1.2,0.6,2.4,1,3.6c3.4,9.7,6.8,19.4,10.1,29.2C533,419.4,533.4,419.9,533.2,420.5z"/>
</g>
<g id="aqn">
	<path class="st0" d="M317.1,160.9c0,0.9,0.1,1.7,0,2.5c-0.4,4.9-0.8,9.7-1.2,14.6c-0.2,2-0.2,4.1-0.4,6.1
		c-0.5,5.5-0.7,11.1-1.1,16.6c-0.1,1.3,0.3,2.4,1.1,3.4c0.4,0.5,0.9,1,1.3,1.5c1.2,2.1,2.9,2.8,5.3,2.7c1.4-0.1,2.4-0.4,3.2-1.5
		c0.6-0.8,1.3-0.9,1.9-0.1c1.2,1.8,3,1.7,4.7,1.3c1.6-0.4,2.8,0,3.9,1.1c2,1.8,4.1,3.5,6.1,5.3c0.4,0.3,0.8,0.7,1.1,1.1
		c0.7,1,0.4,2.4-0.7,2.7c-3.3,0.9-4.8,3.4-6,6.4c-2,4.7-4.3,9.3-6.4,13.9c-1.3,2.8-2.6,5.5-3.9,8.3c-0.5,1-1,1.9-2,2.5
		c-2.8,1.8-3.5,4.9-4.4,7.8c-0.2,0.5-0.1,1.1,0.3,1.5c3.7,3.8,4.3,9,6,13.7c0.1,0.2,0.2,0.4,0.2,0.6c0.2,1,0.8,1.5,1.9,1.4
		c4.1-0.1,8.2,0.8,12.2,0.4c2.4-0.3,3.3,0.7,4,2.6c0.7,1.8,1.7,3.5,2.6,5.3c0.7,1.4,0.6,2.1-0.3,2.7c-1,0.6-2.4,0.5-3.2-0.3
		c-1.2-1.2-1.4-1.3-2.7-0.5c-0.7,0.4-1.3,1-2,1.3c-2.8,1.1-4,3.3-4.4,6.1c-0.4,2.3-0.9,4.6-1.5,6.8c-0.2,0.8-0.2,1.8-1.3,2.1
		c-0.9,0.3-1.3,0-1.2-0.9c0.3-2.2,0.7-4.5,1-6.7c0.4-2.6-0.9-5-3.4-5.8c-0.7-0.2-1.3,0-1.9,0.3c-1.1,0.7-2.4,0.6-3.6,0.5
		c-1-0.1-1.8-0.4-2.4-1.3c-0.3-0.4-0.7-0.8-1-1.2c-0.7-1-1.6-1.3-2.7-0.7c-0.3,0.1-0.6,0.2-0.8,0.3c-2.6,0.6-4.6,1.9-6.2,4.1
		c-1.2,1.7-1.9,3.3-1.5,5.2c0.2,1.4,0.4,2.7,0.4,4.1c0,1.1,0.4,1.9,1.5,2.2c3.1,0.8,3.8,2.9,3.4,5.8c-0.2,1.7-0.1,3.5-0.1,5.3
		c0,0.9-0.2,1.5-1.3,1.1c-1-0.4-1.5,0.1-2.1,0.7c-0.1,0.1-0.2,0.2-0.3,0.3c-0.8,0.9-1.2,2.4-2.5,2.6c-1.9,0.2-3.8,0.5-5.5-0.7
		c-1.1-0.8-2.4-0.8-3.7-0.7c-2.2,0.3-4.4,0.1-6.5,0.5c-0.9,0.1-1.7,0.2-2.4,0.9c-0.7,0.8-1.4,0.5-2.1,0c-1.3-0.9-2.6-1.8-3.9-2.8
		c-0.9-0.7-1.9-1-3-1.1c-6.6-0.2-13.1-0.6-19.7-0.8c-1.2,0-1.7-0.5-1.9-1.6c-0.2-1.3-0.8-2.5-1.1-3.8c-0.2-1-0.7-1.5-1.7-1.8
		c-0.6-0.1-1.2-0.4-1.9-0.7c-2.6-0.9-4.2-2.8-4.8-5.4c-0.3-1.6-0.5-3.2-0.6-4.8c-0.1-1.4-0.3-2.8,0.9-3.9c0.5-0.5,0.3-1.1-0.1-1.6
		c-0.7-0.9-1.4-1.9-2.2-2.7c-1-1-1.3-2.2-1.3-3.6c0.1-2.3,0-4.7,0-7c0-1.3-0.4-2.2-1.4-3c-5.6-4-11.1-8.1-16.6-12.1
		c-1.8-1.3-3.6-2.5-5.3-3.9c-1-0.8-2-1-3.2-0.6c-2.1,0.6-4.3,1-6.4,1.4c-1.8,0.4-2.1,0.2-2.7-1.6c-1.2-3.3-0.3-3.1-4.4-3.1
		c-1.5,0-2.8,0.1-3.7,1.4c-0.5,0.8-1,0.8-1.7,0c-1.4-1.5-1.5-1.5-3.3-0.6c-2.9,1.5-2.9,1.5-5.1-1c-1.3-1.6-2.7-3.1-3.9-4.7
		c-1.4-2-3.2-2.6-5.5-2.1c-1.3,0.3-2.6,0.2-3.9,0.3c-0.9,0-1.4-0.2-1.3-1.2c0.1-0.8,0-1.6,0.1-2.4c0.1-1,0.6-1.5,1.7-1.7
		c6.3-0.7,12.4-2.6,18.4-4.8c6.8-2.4,13.7-4.7,20.5-7c1.3-0.4,1.9-1.1,2.1-2.4c0.3-2,0.3-4.1,0.5-6.1c0.2-2.2,0.5-4.5,0.6-6.8
		c0.1-2.3,0.1-2.3,2.4-2.4c5.6,0,11.3,0.1,16.9-0.2c8.8-0.5,17.7-0.2,26.5-0.4c0.4,0,0.9,0,1.3,0c1.5,0.1,1.6,0.2,1.5,1.6
		c-0.3,4.1-0.5,8.1-0.8,12.2c0,0.3,0,0.6,0,0.9c0.1,1.1,0.6,1.4,1.6,0.7c0.5-0.4,1.1-0.8,1.5-1.2c3.1-2.7,6.2-5.4,9.3-8
		c0.8-0.7,1-1.5,0.7-2.3c-1-2.4-0.3-4.4,1-6.5c2.9-4.9,5.5-10,8.2-15c0.3-0.6,0.7-1.1,1.3-1.5c3-2.2,6-4.5,9-6.7
		c1-0.7,1.8-1.6,2.5-2.7c4.1-6.9,8.3-13.8,12.5-20.6C316.5,161.4,316.6,161,317.1,160.9z"/>
</g>
<g id="trl">
	<path class="st0" d="M556.3,263.4c2-1.9,3.8-3.6,5.6-5.3c0.4-0.4,0.8-0.5,1.4-0.3c0.9,0.4,1.9,0.7,2.9,1.1c1,0.5,1.6,0.2,2.1-0.8
		c0.9-2.1,1.9-4.1,2.8-6.2c1.1-2.4,2.1-4.8,3.1-7.2c0.3-0.8,0.7-1.2,1.6-1.3c1.1-0.2,2.1-0.6,3.2-0.7c1.5-0.2,2.9-0.6,3.3-2.3
		c0.2-0.7,0.8-0.7,1.4-0.5c1.9,0.7,3.8,1.4,5.8,2c0.9,0.3,1.2,0.9,1.5,1.7c1.4,3.9,2.9,7.8,4.3,11.7c0.4,1,0.9,1.8,1.8,2.4
		c2,1.2,3.9,2.5,5.9,3.8c0.9,0.6,1.3,1.2,1.2,2.3c-0.2,2.5-0.3,5.1-0.5,7.6c-0.1,1.2,0.2,2.3,0.9,3.3c2.8,4.1,5.5,8.3,8.3,12.4
		c1,1.4,1.4,2.9,1.5,4.7c0.2,3.5,0.3,7,0.3,10.5c0,0.9,0.3,1.7,0.9,2.4c3.4,4.4,6.8,8.8,10.1,13.2c0.9,1.2,1.9,1.7,3.5,1.2
		c4.7-1.3,4.7-1.2,8.1-5.6c0.4-0.6,0.9-1.1,1.4-1.7c0.2-0.2,0.4-0.4,0.7-0.6c6,5.3,11.9,10.6,17.7,15.8c-0.2,0.8,1.7,1.5,2.1,1.8
		c0.4,0.3,0.6,0.6,0.6,1.1c0,0.6,0.2,4.2-2.1,6.1c-1.7,1.6-1.3,3.6-1.5,5.6c-0.4,3.9-0.3,7.9-0.3,11.8c0,0.5-0.1,1.1,0.1,1.5
		c0.6,1.9-0.1,3.5-1,5.2c-0.7,1.2-1.6,1.6-2.8,1.8c-1.2,0.2-2.3,0.5-3.5,0.5c-1.4,0-2.1,0.7-2.8,1.8c-2.2,3.3-4.6,6.6-6.8,9.9
		c-0.8,1.3-1.8,1.8-3.2,1.6c-0.3-0.1-0.6,0-0.9,0c-1.2-0.2-2,0.1-2.2,1.4c-0.1,0.8-0.6,1.3-1.5,1.3c-0.4,0-0.7,0.1-1.1,0.2
		c-2.9,0.5-5.3,0.3-7.4-2.3c-1.5-1.9-3.3-3.7-4.7-5.8c-0.6-1-1.5-1.8-2.5-2.4c-3.2-2.1-6.4-4.1-9.5-6.4c-2.1-1.6-4.4-2.2-6.9-2.2
		c-1.7,0-3.1-0.5-4.4-1.6c-0.1-0.1-0.2-0.2-0.3-0.3c-1.3-1.2-3.4-1.7-3.9-3.3c-0.7-2-0.2-4.3,0-6.5c0-0.4,0.2-0.7,0.2-1.1
		c0.2-1.5,0-2.8-1.5-3.7c-2.1-1.3-3.4-3.2-4.3-5.6c-1.4-3.5-3.1-6.9-4.6-10.4c-1.2-2.6-3.2-4.7-5-6.9c-5-6.4-10.1-12.8-15.2-19.3
		c-0.5-0.6-1.2-1.3-0.5-2.1c2.1-2.7,1.3-5.6,0.8-8.6c-0.3-1.4-0.4-2.9-0.7-4.3c-0.2-1.1,0.1-1.9,1.1-2.3c1.6-0.7,2.1-1.8,1.7-3.7
		c-0.7-3.7-1-7.5-1.5-11.3c-0.1-1.2-0.6-2.1-1.6-2.7C558.5,265.1,557.6,264.4,556.3,263.4z"/>
</g>
<g id="rvm">
	<path class="st0" d="M405.1,180.1c-1.5,0-2.9,0-4.4,0c-1.3,0-2.4-0.8-3.3-1.6c-2-1.5-3.7-1.3-5.7-0.1c-3.1,1.8-6.3,3.4-9.5,5
		c-1,0.5-1.6,1.2-1.9,2.2c-0.7,2.5-1.5,5-2.3,7.5c-0.3,0.9-0.7,1.6-1.4,2.2c-3,2.4-6,4.9-9,7.4c-0.7,0.6-1.5,0.8-2.4,0.9
		c-2.8,0.1-5.5,0.4-8.3,0.5c-1.7,0.1-2.8,0.6-3.5,2.3c-0.9,2.2-2.1,4.3-3.2,6.5c-0.4,0.8-0.9,1.3-1.9,1.1c-0.1,0-0.1,0-0.2,0
		c-2.5,0.3-4.7-0.2-6.5-2.2c-1.5-1.7-3.5-2.9-5.1-4.5c-1.1-1-2.3-1.4-3.8-1.2c-0.6,0.1-1.2,0-1.7,0.2c-1,0.3-1.8,0.1-2.5-0.8
		c-0.2-0.2-0.4-0.4-0.6-0.6c-1.6-1.5-1.7-1.6-3.1,0c-1.2,1.4-2.5,1.9-4.2,1.4c-0.7-0.2-1.2-0.4-1.6-1c0-0.1-0.1-0.1-0.1-0.2
		c-2.9-3.6-2.9-3.6-2.4-8.6c0.3-2.8,0.5-5.5,0.7-8.3c0.6-8.1,1.2-16.2,1.7-24.2c0.1-1.7,0.2-3.4,0.3-5c0-2.4,1.2-4.5,1.7-6.7
		c2.8-11.4,5.8-22.8,8.7-34.2c0.1-0.5,0.3-1,0.4-1.5c0.1-0.6,0.5-0.9,1-0.9c3.4-0.5,6.8-0.9,10.2-1.4c0.7-0.1,1.3,0.2,1.8,0.6
		c2.3,1.5,4.5,2.9,6.8,4.4c0.8,0.5,1.3,1.1,1.8,1.9c1.7,2.8,3.6,5.5,5.3,8.3c0.8,1.3,1.7,2.4,3.1,3c0.6,0.3,1.2,0.6,1.7,1
		c2,1.5,4.1,2.1,6.5,1.1c0.7-0.3,1.4-0.1,2.1,0.3c1.8,1.2,3.6,2.3,5.4,3.4c0.7,0.4,0.9,0.9,0.8,1.6c-0.3,2.3,1,4.2,1.7,6.3
		c0.3,0.8,0.9,1.1,1.6,1.4c2.3,1,4.5,2.1,6.8,3c1,0.4,1.7,1,2.3,1.9c1.1,1.8,2.2,3.6,3.4,5.4c0.5,0.7,0.9,1.5,1,2.4
		c0.1,0.5,0.2,1.1,0.5,1.4c2,2.1,2,4.8,2.5,7.3c0.3,1.7,1,2.9,2.3,4c2.2,1.7,4.2,3.7,6.2,5.6c0.3,0.2,0.4,0.5,0.7,0.8
		C405.2,179.7,405.1,179.9,405.1,180.1z"/>
</g>
<g id="bsl">
	<path class="st0" d="M523.3,336.7c5.5-1.3,10.4-2.7,15.4-3.7c3.4-0.7,6.2-1.9,8.3-4.7c0.9-1.2,2-2.1,3-3.2c0.7-0.8,1.3-0.8,2,0
		c1.8,1.9,3.6,3.8,5.4,5.7c5.2,5.5,10.4,11.1,15.5,16.7c0.8,0.9,1.7,1.6,2.7,2.1c3.9,2.1,7.8,4.3,11.7,6.5c0.8,0.4,1.5,1.2,2.6,0.5
		c0.4-0.3,0.8,0.2,1.1,0.4c1.1,0.8,2.2,1.5,3.1,2.4c1.2,1,2.5,1.4,4,1.5c0.7,0,1.3,0.1,2,0.1c1.7,0.1,3.2,0.6,4.7,1.7
		c3,2.2,6.2,4.2,9.3,6.2c1.1,0.7,2,1.5,2.6,2.6c1.9,3.3,4.9,5.6,7.5,8.3c0.5,0.5,1.1,0.6,1.8,0.6c1.3-0.1,2.7,0,3.9-0.3
		c1.3-0.3,1.8,0.3,2.5,1.2c1.5,1.9,2.1,3.8,1.6,6.3c-0.4,2.1-0.2,4.2-0.5,6.3c-0.1,0.9-0.4,1.7-1.1,2.3c-0.4,0.4-0.8,0.8-1.2,1.2
		c-1.6,1.4-2.9,2.8-2.5,5.2c0.1,0.8-0.4,1.4-0.9,1.9c-1.5,1.8-3.1,3.5-4.6,5.3c-0.7,0.8-1.4,0.9-2.3,0.8c-1-0.2-2-0.3-3-0.6
		c-1-0.3-1.7,0-2.4,0.7c-0.5,0.5-1,0.9-1.5,1.3c-1.1,0.9-2.2,1.8-1.1,3.4c0.4,0.5,0,0.9-0.5,1.2c-0.6,0.4-1.2,0.5-1.9,0.5
		c-4.8,0.3-4.8,0.3-8.2-3c-1.9-1.8-3.9-3.6-5.7-5.4c-0.9-0.9-1.9-1.6-3.2-1.6c-2-0.1-3.5-0.8-4.1-2.9c-0.4-1.2-1.3-1.9-2.2-2.6
		c-2.6-1.8-5.2-3.7-7.9-5.6c-1.1-0.8-2-1.7-2.7-2.8c-3.1-5-6.2-9.9-9.3-14.8c-0.7-1.1-1.5-2-2.5-2.7c-5.9-4.5-11.9-9-17.8-13.5
		c-1.5-1.1-2.8-2.5-4.2-3.9c-3.4-3.3-6.7-6.7-10.2-10c-1-0.9-1.7-1.8-1.4-3.2c0.4-1.9-0.5-3.1-2.1-4.1
		C527.3,339.8,525.6,338.4,523.3,336.7z"/>
</g>
<g id="srp">
	<path class="st0" d="M520.9,348.3c-0.4-3.3-0.6-5.7-1-8.1c-0.1-1,0.2-1.6,1-2.2c0.9-0.6,1.4,0.1,1.9,0.5c1.8,1.3,3.6,2.7,5.5,4
		c1,0.7,1.4,1.5,1.2,2.6c-0.3,2,0.5,3.4,2,4.5c0.3,0.2,0.5,0.5,0.8,0.8c8.3,8.9,17.6,16.6,27.6,23.6c3.4,2.4,6.3,5.3,8.4,9
		c2.2,3.9,4.7,7.6,7.1,11.4c0.7,1.1,1.6,2.1,2.7,2.8c2.5,1.7,4.8,3.5,7.3,5.2c1.5,1,2.7,2.3,3.3,3.9c0.5,1.3,1.2,2.1,2.7,2.1
		c2.4,0,4.2,1.2,5.9,2.9c2.1,2.2,4.5,4.2,6.6,6.4c0.8,0.8,1.7,1.3,2.9,1.2c1.5-0.1,2.9-0.1,4.4-0.1c0.6,0,1.2,0,1.7-0.3
		c0.8-0.6,1.5-0.7,2.4-0.1c0.9,0.7,1.4,1.4,1.6,2.6c0.7,4.1-3,9-6,10.3c-1.5,0.7-3.1,0.7-4.7,0.8c-0.8,0-1-0.5-1.2-1.1
		c-0.7-2.2-1.5-4.4-2.2-6.7c-0.4-1.2-1-1.9-2.4-2.2c-6.9-1.8-6.9-1.9-13.5,0.4c-2.1,0.7-4.3,1.4-6.4,2.2c-3,1.1-6,1.9-9.2,1.6
		c-0.9-0.1-1.7,0.2-2.3,0.9c-0.7,0.9-1.5,0.8-2.2,0.2c-1.1-0.9-2.2-0.7-3.4,0c-1.2,0.7-2.6,1.3-3.9,2c-0.7,0.4-1.2,0.3-1.8-0.2
		c-3.3-2.7-7.1-4.7-10.5-7.1c-1-0.7-2-0.8-3.1-0.5c-1,0.3-2.1,0.5-3.2,0.9c-1.3,0.5-2.4,0.3-3.5-0.4c-1.1-0.6-1.8-1.3-2.2-2.5
		c-3.2-9.5-6.5-18.9-9.9-28.3c-1.6-4.4-2.3-8.9-3-13.4c-0.5-2.7-1.2-5.2-2.9-7.4c-2.4-3.1-4.5-6.3-6.6-9.5c-1.7-2.5-1.6-2,0.5-4
		c2.1-2.1,4.3-4.1,6.5-6.2C521.1,349.3,521.1,349.2,520.9,348.3z"/>
</g>
<g id="inc">
	<path class="st0" d="M666.1,269.8c-5.3-0.6-10.2,1.2-15.3,1.8c-1.4,0.2-2.8,0.4-3,2.2c-0.1,0.6-0.6,0.8-1.2,0.8
		c-0.7,0-0.7-0.5-0.8-1.1c-0.3-1.5,0.1-2.9,0.5-4.3c0.5-1.9,0.4-2-1.5-2.6c-0.4-0.1-0.8-0.2-1.3-0.4c-1.1-0.4-1.8,0-2.3,1.1
		c-1.1,2.3-2.3,4.6-3.5,6.8c-0.3,0.6-0.6,1.3-1.4,1.6c-1.3,0.6-1.6,0.6-2.5-0.6c-0.5-0.7-1.1-0.9-1.8-1c-5-0.7-9.7,0.6-14.3,2.5
		c-1.6,0.7-2.6,2.1-3.9,3.2c-0.8,0.6-1.4,1.5-2.5,2.1c-2-3-4-6.1-6-9.1c-0.4-0.6-0.3-1.3-0.2-1.9c0.2-2.6,0.2-5.3,0.6-7.9
		c0.2-1.5-0.4-2.2-1.4-2.8c-1.9-1.2-3.6-2.5-5.5-3.5c-1.4-0.8-2.1-1.9-2.6-3.3c-1.3-3.7-2.7-7.3-3.9-10.9c-0.4-1.3-1.2-2-2.5-2.4
		c-2.8-0.9-5.5-1.9-8.3-2.8c-1-0.3-1.4-1-1.8-2c-0.7-2.1-0.4-4,1.2-5.6c0.1-0.1,0.1-0.1,0.1-0.2c1.9-2.2,2.8-4.5,1.8-7.4
		c-0.8-2.5,0.8-4.7,1.8-6.8c0.5-0.9,1.8-1.2,2.8-1.6c0.8-0.2,1.4,0.4,1.9,0.9c3.1,2.7,7,3,10.8,3.8c1,0.2,1.8-0.2,2.4-0.8
		c1.8-1.8,3.6-2.3,5.9-0.7c1.2,0.9,1.5,0.6,2.1-0.7c1.5-3.1,1.5-3.2-1.5-4.7c-1.6-0.8-2.2-2.3-3.1-3.6c-1.6-2.3-1.8-1.8,0.8-3.4
		c1.5-0.9,2.7-1,4.1,0.1c1.1,0.9,2.4,1.4,3.5,2.2c1.2,0.9,2.2,0.8,3.3-0.2c1.3-1.1,2.7-2,4-3c0.8-0.7,1.7-0.8,2.6-0.5
		c2.6,0.7,5.2,1.4,7.8,2.1c0.6,0.2,1.2,0.3,1.1,1.1c-0.1,0.9,0.5,1.5,1.1,2c0.7,0.7,0.8,1.2,0,2c-1.5,1.6-1.5,1.8,0.3,2.9
		c1.5,0.9,1.9,2,1.6,3.7c-0.3,1.7-0.4,3.3-0.6,5c-0.1,0.6,0,1.2,0.4,1.7c0.3,0.5,0.6,1,1,1.4c2.6,2.6,2.6,5.8,2.3,9.2
		c-0.4,3.5-0.4,3.6,2.9,5c2.6,1.1,4.3,2.7,5.5,5.2c1.4,2.9,3.1,5.6,4.7,8.4c0.6,1.1,1.3,1.9,2.5,2.2c2.1,0.5,3.3,2.3,4.8,3.7
		c0.8,0.7,0.4,1.6,0.3,2.5c-0.3,2.2-0.3,2.2,1.7,3.1c0.1,0,0.1,0.1,0.2,0.1C665.2,265.8,665.4,265.9,666.1,269.8z"/>
</g>
<g id="fgr">
	<path class="st0" d="M500.2,189.9c-1.1,0.3-1.9-0.5-2.8-0.9c-1.5-0.8-2.9-1-4.4-0.4c-1.4,0.6-3,0.6-4.5,0.9
		c-2.6,0.5-3.2,1.1-3.8,3.6c-0.4,1.6-1.9,2.5-3.2,3c-1.7,0.7-3.6,1.3-5.5,0.2c-0.8-0.4-1.7-0.2-2.6-0.3c-3.5-0.6-7.1-0.9-10.7-1
		c-0.9,0-1.7-0.1-2.3-1c-0.6-0.8-1.4-1-2.3-0.9c-1.7,0-3.4,0-5,0c-0.4,0-1-0.1-1.3,0.1c-2.4,1.4-5.1,0.9-7.7,1.3
		c-1.7,0.3-3.3-0.1-4.5-1.6c-0.9-1.1-2.2-1.9-2.8-3.3c-0.6-1.3-2.1-1.2-3.3-1.1c-2.2,0.2-2.2,0.2-2.7-2c-0.9-4-1.7-8-2.5-12
		c-0.2-0.9-0.5-1.8-0.9-2.7c-2-3.8-4.1-7.6-6.1-11.4c-0.7-1.4-1.7-2.1-3.1-2.4c-2.2-0.5-4.4-1.2-6.5-1.8c-0.8-0.2-1.1-0.6-0.7-1.4
		c1.5-3,3-6,4.5-9c0.8-1.5,2.6-1.6,3.7-0.4c0.2,0.3,0.5,0.6,0.7,0.8c0.6,0.6,0.9,1.4,1.7,1.6c0.9,0.2,1.3-0.7,1.9-1.3
		c0.5-0.5,1-0.4,1.6-0.2c1.1,0.4,2.2,0.8,3.3,1.2c1.7,0.5,1.8,0.5,2.2-1.3c0.1-0.4,0.2-0.7,0.2-1.1c0.1-1,0.6-1.5,1.5-1.6
		c1.3-0.1,2.2-0.8,2.9-1.7c1.3-1.5,3.2-1.6,4.8-2.4c0.6-0.3,1.1,0.2,1.6,0.6c1.4,1,2.8,2.1,4.3,3.1c1.3,0.9,1.5,0.9,2.3-0.3
		c0.8-1.1,1.8-1.4,3-1.2c1.2,0.2,2.1-0.2,2.9-1.1c1.2-1.3,2.5-2.5,3.6-3.8c0.7-0.8,1.4-0.9,2.2-0.2c0.1,0,0.1,0.1,0.2,0.1
		c1.8,2,3.8,2.1,6,0.6c1.1-0.7,2.5-1.6,3.6-1.4c1.3,0.2,1.9,1.9,2.6,3c1.1,1.7,2.6,2.8,4.6,3.4c3.4,1,6.8,2.3,10.2,3.3
		c1.5,0.4,2.2,1.3,2.4,2.7c0.1,0.6,0.3,1.3,0.4,1.9c0.1,1.1,0.6,1.9,1.4,2.7c1.3,1.3,1.3,2.2,0.2,3.6c-0.7,1-1.6,1.9-2.5,2.8
		c-0.8,0.8-1.2,1.8-1.1,3c0.1,2,0.1,4.1,0,6.1c0,1.2,0.3,2.1,1.1,2.9c2.4,2.5,4.6,5.1,7,7.6c0.8,0.9,1.2,1.8,1,2.9
		c0,0.1,0,0.1,0,0.2c-0.5,2.8,0.2,5.2,2.7,6.8C500,189,500.2,189.4,500.2,189.9z"/>
</g>
<g id="mir">
	<path class="st0" d="M243.9,280c0,0.2,0,0.4,0,0.7c-0.4,3,0.2,5.6,2.6,7.7c0.9,0.8,1.1,1.6,0.1,2.6c-0.5,0.4-0.4,1.1-0.3,1.7
		c0.4,2.6,0.8,5.2,1.1,7.8c0.1,0.8,0.4,1.4,0.9,1.9c1.6,1.9,3.3,3.7,5.9,4.3c1.2,0.3,2,1.9,1.9,3.1c0,0.6-0.5,0.7-0.9,0.8
		c-1.1,0.2-2.2,0.4-3.2,0.5c-1,0.1-1.4,0.6-1.5,1.5c-0.1,0.6-0.2,1.1-0.4,1.7c-0.3,1.2,0.1,2.1,1.3,2.6c2.7,1.2,2.8,3.8,3.2,6.2
		c0.1,0.7-0.2,1.4-0.2,2.2c-0.1,1.8-0.5,3-2.7,3.4c-1.7,0.3-3.1,1.5-4.7,2.3c-1.8,0.9-3.6-0.2-3.4-2.3c0.2-1.7-0.4-2.8-1.8-3.8
		c-2.2-1.5-4.3-3.3-6.4-4.9c-1-0.8-1.4-1.7-1.5-2.9c-0.3-3.8-0.8-7.5-1.1-11.3c-0.1-1.1-0.6-1.5-1.4-1.9c-4.6-2.3-4.6-2.4-9.1,0.3
		c-2.7,1.7-5.4,2.7-8.7,2.3c-1.4-0.2-2.8,0-4.2-0.1c-1-0.1-1.7,0.2-2.2,1.1c0,0.1-0.1,0.1-0.1,0.2c-1,2.5-2.9,3.2-5.4,2.7
		c-0.8-0.1-1.6-0.3-2.4-0.2c-2,0.3-3.1-0.7-3.8-2.4c-0.2-0.6-0.6-1.2-0.9-1.7c-0.5-0.9-0.7-1.7-0.3-2.7c0.4-1.2,0.6-2.4,0.9-3.6
		c0.2-0.8-0.1-1.3-0.9-1.4c-0.1,0-0.1-0.1-0.2,0c-2.7,0.1-4.4-1.6-5.8-3.6c-0.8-1.2-1.9-2.2-2.8-3.4c-0.6-0.8-1.2-1.1-2.2-0.7
		c-1.1,0.4-2.5,1.3-3.5,0.7c-0.9-0.6-0.9-2.1-1.2-3.2c-1-3.1-1.9-6.1-2.9-9.2c-0.3-1-0.4-2-0.3-3c0.3-2.8,0.4-5.7,0.6-8.5
		c0.4-5.7,0.7-11.4,1-17.1c0.1-2.1,0.1-2.1,2.3-2.2c1.4-0.1,2.8-0.1,4.1-0.3c1.3-0.2,2.2,0.2,3,1.2c1.8,2.2,3.6,4.4,5.4,6.6
		c1.8,2.1,1.7,2.2,4.3,0.8c0.1,0,0.1-0.1,0.2-0.1c2.5-1.3,2.1-1.4,3.7,0.6c1.1,1.3,1.4,1.3,2.5-0.1c0.7-0.9,1.2-2,2.7-2
		c2.5,0,2.5-0.1,3.3,2.4c1,3,1,3,4,2.4c2.2-0.4,4.4-0.9,6.6-1.4c0.9-0.2,1.6-0.2,2.4,0.4c7.1,5.2,14.3,10.4,21.4,15.6
		c0.7,0.5,1,1.1,1,2C243.9,277.3,243.9,278.7,243.9,280z"/>
</g>
<g id="cmp">
	<path class="st0" d="M499.7,192.1c-0.6,1-1.4,1.4-2.1,1.8c-1.2,0.7-1.6,1.6-1.5,2.9c0.1,0.9,0,1.8,0,2.6c-0.1,1.4-0.3,1.6-1.7,1.7
		c-1.2,0-2.3,0-3.5,0c-2.4,0-3.5-0.9-5.9-1c-0.9,0-2.6,1.2-3,2c-2,2-3,3-2.3,4.9c-0.5,1-0.1,5.2,0.3,6.1c3.5,8.1,6.9,12.8,10.6,20.9
		c1.3,2.9,2,5.6,1,8.6c-0.4,1.2,0,2.1,0.5,3.1c1.8,3.1,3.5,6.2,5.2,9.3c-0.4,0.6-0.8,0.4-1.2,0.4c-1.7-0.1-3.4-0.4-5-0.3
		c-4,0.1-7.4-1.4-10.7-3.4c-4.2-2.6-8-5.5-11.4-9.2c-2.7-3-5.6-5.8-8.4-8.6c-1.6-1.6-2-1.5-2.7,0.8c-1.1,3.8-2.2,7.6-3.2,11.4
		c-0.3,1.2-0.8,1.9-2.2,1.8c-1.5-0.1-3.1,0.1-4.6,0.2c-1,0.1-1.5-0.3-1.7-1.2c-0.4-1.3-0.9-2.6-1.4-3.9c-0.7-2-3-2.9-4.9-1.8
		c-1,0.5-1.9,1.1-2.8,1.7c-0.7,0.5-1.3,0.5-2,0c-1.5-1-3.1-2-4.6-3c-0.8-0.6-1.6-0.9-2.7-0.5c-3.6,1.3-7.4,0.8-11.1,0.8
		c-2,0-3.7-1-5.1-2.2c-1.4-1.2-2.5-2.9-3.6-4.4c-0.3-0.4-0.2-0.8-0.1-1.3c0.5-4,0.4-4,4-6.1c1.5-0.9,3-1.8,4.5-2.6
		c1.1-0.6,1.6-1.4,1.6-2.6c0-1.3,0.4-2.6,0.3-3.9c-0.1-1.7,0.6-2.7,2-3.6c2.4-1.6,4.6-3.4,6.9-5c1-0.7,1.3-1.4,1.3-2.6
		c-0.1-3.2,0.1-6.4-0.4-9.6c-0.1-0.9-0.4-1.7-1-2.4c-0.6-0.8-1.2-1.6-1.9-2.4c-0.3-0.4-0.3-0.8,0-1.2c0.3-0.4,0.7-0.5,1.1-0.3
		c0.4,0.1,0.8,0.2,1.3,0.4c1.7,0.6,3.3,1,5.1,0.3c1.5-0.5,2.4,0,3.2,1.3c1,1.7,2.8,2.8,4.3,4c1,0.8,2.5,0.6,3.8,0.5
		c1.4-0.1,2.8-0.2,4.2-0.2c0.7,0,1.4,0.1,1.9-0.3c2.5-1.5,5.3-0.7,7.9-0.8c0.7,0,1.1,0.4,1.4,0.9c0.6,0.9,1.5,1.1,2.5,1.1
		c4.2-0.2,8.3,0.7,12.4,1c0.4,0,0.7,0.1,1.1,0.2c4.3,1.7,7.4-0.4,10.4-3.1c0.5-0.4,0.5-1,0.5-1.6c-0.1-1.2,0.6-1.8,1.6-2
		c2.1-0.4,4.2-0.6,6.2-1.3c0.4-0.1,0.9-0.1,1.3,0.1C496.9,190.7,498.3,191.4,499.7,192.1z"/>
</g>
<g id="pnb">
	<path class="st0" d="M635.5,206.2c2.5,0.6,5.1,0.3,7.6,0.4c0.8,0,1.6,0.2,2.3,0.5c3.3,1.2,6.6,2.4,9.9,3.6c2,0.7,3.9,0,5.8-0.3
		c0.7-0.1,0.7-0.8,0.9-1.4c1.1-3.1,2.2-6.2,3.3-9.3c0.6-1.7,0.7-1.8,2.3-1.1c6.1,2.6,12.2,5.3,18.3,7.9c1.2,0.5,2,1.5,2.8,2.4
		c1.2,1.5,2.7,1.8,4.3,1.4c1.6-0.4,3-0.1,4.5,0.5c3.2,1.4,6.5,2.7,9.8,3.9c1.3,0.5,2.1,1.2,2.8,2.3c0.5,0.9,1.1,1.7,1.6,2.6
		c0.6,1,2.2,3.1,2.7,3.4c0.5,0.4,1.2,0.7,1,1.5c-0.1,0.5,2.5,5.4,2.7,5.7c1.6,2.6,3.2,5.2,2.3,8.5c-0.2,0.7-0.6,0.9-1.3,1
		c-1,0-1.9,0-2.9,0c-1,0-1.6,0.3-2,1.3c-1.2,2.9-2.4,5.8-3.8,8.6c-0.8,1.7-0.1,3.3,0,4.9c0,0.4,0.2,0.9,0.3,1.3
		c0.2,0.9-0.1,1.5-1.1,1.8c-2.1,0.6-4.2,1.3-6.3,1.7c-1.1,0.2-1.8,0.8-2.5,1.6c-0.3,0.4-0.5,0.7-0.8,1c-0.7,0.8-1.2,1.8-2.1,2.2
		c-0.9,0.4-1.6-0.8-2.4-1.2c-1.3-0.7-2.8-0.4-4.1-0.3c-2.6,0.3-5.2,0.3-7.9,0.3c-1,0-1.8,0.3-2.6,1c-3,2.5-6.1,5-9.1,7.5
		c-0.7,0.6-1.5,0.9-2.4,0.8c-1.4-0.1-1.3-0.1-1.3-1.7c0-2-1-3.8-1.7-5.6c-0.5-1.2-1.7-1.3-2.6-1.8c-2-1-2.1-1-1.6-3.1
		c0.2-0.9,0-1.5-0.7-2.1c-1.9-1.8-3.4-4-6.1-4.8c-1.1-0.3-1.4-1.4-1.9-2.3c-1.9-3.3-3.8-6.6-5.6-9.9c-0.6-1-1.3-1.7-2.4-2.2
		c-1.2-0.5-2.4-1.1-3.5-1.7c-0.7-0.4-1.1-0.9-0.9-1.8c0.4-2,0.1-4.1,0.3-6.1c0.1-0.8-0.1-1.4-0.6-2c-0.4-0.6-0.7-1.3-1.2-1.8
		c-2.1-2.2-2-4.7-1.5-7.4c0.2-0.8,0.1-1.6,0.2-2.4c0.2-1.3-0.2-2.2-1.3-3c-1.2-0.8-1.1-0.9-0.3-2c1-1.3,0.9-1.3-0.1-2.5
		C636.1,207.6,635.4,207.2,635.5,206.2z"/>
</g>
<g id="niq">
	<path class="st0" d="M323.2,376.8c-0.8,2.4-1.3,4.7-3.2,6.4c-0.3,0.3-0.6,0.6-0.9,1c-2.2,2.5-2.2,2.5-5.5,1.7
		c-3.6-0.8-3.5-0.8-5.5,2.4c-1.4,2.2-2,4.3-0.9,6.7c1.5,3.4,0.9,6.6-1.2,9.6c-1.2,1.7-2,3.7-3,5.6c-0.5,0.9-0.6,1.7-0.3,2.7
		c0.5,1.7,0.9,3.5,1.5,5.4c-1.3,0-2.3-0.2-3.2-0.8c-1.5-1-3-2-4.6-3c-0.7-0.4-1.1-0.9-1-1.8c0.1-1-0.4-1.6-1.3-2.1
		c-1.2-0.7-2.4-1.4-3.5-2.2c-0.8-0.5-1.6-0.7-2.4-0.1c-0.8,0.6-1.5,0.7-2-0.3c-1.5-2.8-3.7-3-6.4-2c-1.7,0.6-3.3-0.6-4.2-2.8
		c-0.1-0.1-0.1-0.3-0.1-0.4c-0.7-4.1-0.6-3.2-4.7-5.3c-1-0.5-2.1-1-3.1-1.5c-1.4-0.8-3-1.2-4.6-1.2c-4.3,0-8.1-1.6-12-3.1
		c-0.8-0.3-1.2-0.8-1.4-1.6c-0.2-0.9-0.5-1.7-0.7-2.5c-0.3-0.9-0.7-1.8-0.5-2.8c0.2-1,1.3-1.1,2-1.6c0.8-0.5,0.9-1.1,0.4-1.9
		c-0.8-1.5-1.5-3-2.3-4.5c-0.5-0.9-0.7-1.8,0-2.6c2-2.4,2-5.1,1.2-7.8c-0.4-1.4-0.2-2.5,0.7-3.7c0.7-1,1.3-2.1,2.1-3.1
		c0.8-1,0.9-2,0.3-3.2c-0.8-1.6-0.8-1.8,0.6-2.5c3.1-1.5,4.7-3.9,5.3-7.2c0-0.1,0-0.1,0.1-0.2c0.6-1.2,0.3-2.9,1.6-3.5
		c1.4-0.6,3-0.2,4.5-0.2c0.8,0,1.3,0.6,1.7,1.2c1.6,2.6,3.9,3.2,6.8,2.6c0.3-0.1,0.6-0.1,0.9,0c2.7,0.5,4.4-0.8,5.6-3
		c0.2-0.4,0.6-0.7,0.8-1.1c0.6-1.2,1.5-1.3,2.8-1.1c1.9,0.4,3.8,0.6,5.6,0.7c1.3,0.1,2.1,0.7,2.6,1.9c1.5,3.5,3.1,6.9,4.7,10.4
		c0.6,1.3,1.3,2.4,2.4,3.3c1.6,1.4,3.2,2.8,4.7,4.3c0.7,0.7,1.4,1,2.4,0.8c3.2-0.6,5.9,0.2,8.3,2.5c2.5,2.4,2.8,2.3,1,5.2
		c-1.2,1.9-0.4,3.5,0.3,5.1c0.3,0.7,0.9,0.6,1.5,0.7C318.8,376.5,320.9,376.7,323.2,376.8z"/>
</g>
<g id="blv">
	<path class="st0" d="M177.8,476.3c0.4-2.4,1.3-4.7,1.9-7c0.2-0.6,0.5-1.2,0.6-1.9c0.3-2.6,2.2-3.4,4.4-3.8c2.2-0.4,4.3-0.6,6.5-0.8
		c1-0.1,1.6-0.4,2.2-1.2c0.5-0.8,1.1-1.6,1.8-2.2c1.9-1.6,1.9-3.4,0.8-5.4c-1-1.7-0.7-3.5-0.3-5.4c0.8-3.4,2.5-6,5.2-8.1
		c1.2-1,1.6-2,0.9-3.4c-1.1-2.4-1.1-4.8,0-7.2c0.1-0.1,0.1-0.3,0.1-0.4c1.4-2.8,1.2-5.1-1.6-7c-1-0.6-1-1.7-1-2.7
		c0.1-4.1-0.6-3,3.2-5c2.2-1.2,4.1-1.7,5.7,0.8c0.6,1,1.6,0.9,2.5,0.3c3.2-2.2,6.8-1.1,10.2-1.3c0.5,0,0.8,0.3,0.8,0.8
		c0,0.1,0,0.3,0,0.4c0.5,3.4,0.5,3.3,4,3.7c3.8,0.4,7.5,0.8,11.3,1.3c1.7,0.2,3,1.5,4.5,2.1c1.5,0.6,2.3,1.6,2.8,3.1
		c0.8,2.4,1.8,4.8,2.7,7.2c1,2.6,1,2.6,3.6,1.9c0.6-0.1,1.1-0.3,1.7-0.2c2.4,0.5,3,1.2,3,3.7c0,0.1,0,0.1,0,0.2c0.1,3,0.1,3,3.1,3
		c0.9,0,1.5,0.5,2.1,1c3.5,3.2,7.2,6.2,10.6,9.5c1.7,1.6,3.4,2.5,5.7,2.7c2.1,0.2,2.4,0.8,1.8,2.9c-0.7,2.1-0.7,2.1-2.8,2.2
		c-0.4,0-0.7,0-1.1,0.1c-1.5,0.3-2.9,0.1-4-1.1c-0.3-0.3-0.6-0.4-0.9-0.7c-1.4-1-1.5-1-2.6,0.4c-0.5,0.7-1,1.4-1.5,2.1
		c-0.4,0.6-0.9,0.8-1.5,0.3c-2.1-1.6-4.4-1.2-6.7-0.6c-2.4,0.6-4.7,0.7-7.2,0.5c-1.7-0.1-1.9,0.1-2.1,1.8c-0.2,1.2,0,2.6-0.8,3.3
		c-0.8,0.8-2.1-0.1-3.1-0.3c-0.8-0.1-1.4-0.1-2,0.5c-0.1,0.2-0.3,0.3-0.5,0.5c-0.8,0.6-1.3,2-2.3,1.7c-1.4-0.3-2.7-1.1-3.6-2.3
		c-0.9-1.2-1.7-2.4-2.4-3.7c-0.5-0.8-1.1-1-2-1.1c-3-0.4-5.4,0.6-7.8,2.2c-0.4,0.3-1,0.6-0.9,1.1c0.3,1.4-0.5,2.2-1.3,3.1
		c-0.5,0.6-0.6,1.3-0.6,2.1c0.1,1.2-0.4,2-1.7,2.2c-2.3,0.3-3.7,1.7-5,3.5c-1,1.4-1.1,1.4-2.7,0.7c-0.3-0.1-0.5-0.2-0.8-0.4
		c-1.2-0.7-2.3-0.9-3.3,0.4c-0.7,0.9-1.6,0.9-2.8,0.6c-3.1-0.8-3.3-0.9-5.3,1.7c-1.6,2.1-3.6,1.5-5.5,1.6c-0.6,0-0.8-0.5-1.1-0.9
		c-0.5-0.8-1-1.6-1.5-2.4c-0.5-0.9-1.2-1.3-2.2-0.6c-0.3,0.2-0.7,0.3-1,0.5c-1.1,0.7-2.1,0.9-3-0.3c-0.7-0.9-1.7-0.6-2.7-0.5
		C181,476.1,179.5,476.6,177.8,476.3z"/>
</g>
<g id="sdl">
	<path class="st0" d="M354.5,411.2c-1,0.3-1.4-0.1-1.7-0.3c-1-0.7-1.9-1-3.1-0.4c-1,0.5-1.6,0.1-1.7-0.9c-0.8-4.3-1.2-3.8-5.2-6.8
		c-1.7-1.3-3.5-2.6-5.3-3.9c-0.8-0.6-1.6-1.2-2.7-1.3c-1-0.1-1.3-0.7-1.3-1.6c-0.1-2.8-0.4-5.5-0.4-8.3c0-1.8-0.5-3.4-1.4-4.9
		c-2.6-4.2-2.2-2.7-0.8-7.2c0.8-2.4,1.7-4.8,2.4-7.3c0.3-1,0.9-1.4,1.9-1.3c0.1,0,0.3,0,0.4,0c4.2-0.1,4.7-0.4,6-4.4
		c0.3-0.9,0.2-1.8,0-2.6c-1.2-3.8-1-7.4,1.5-10.8c0.6-0.8,0.8-1.9,0.8-2.9c0-1.2,0-2.3,0.1-3.5c0.1-1.1-0.2-2-0.9-2.8
		c-0.2-0.2-0.2-0.4-0.4-0.5c-2.6-2.6-3.4-5.6-1.8-9.4c1.9,0.9,3.7,2,5.5,3.2c0.3,0.2,0.3,0.6,0.3,1c0,0.5,0.1,1,0.1,1.5
		c-0.2,2.8,1.6,4.5,3.3,6.4c0.4,0.4,0.8,0.6,1.3,0.7c4.2,1,8.4,2,12.5,3.2c1.5,0.4,1.7-0.7,2.3-1.4c0.8,0.4,0.6,1.6,1.6,1.7
		c0.8,0.1,1.4-0.2,2.1-0.4c1.1-0.3,2.3-0.6,3.4-0.9c1.6-0.5,1.6-0.5,1.4-2.1c-0.1-1-0.3-2-0.5-3c-0.1-0.7,0.1-1.3,0.8-1.6
		c0.9-0.4,1.7-0.8,2.6-1.2c2.2-1,4.2-0.2,5,2.1c0.1,0.4,0.2,0.9,0.4,1.2c0.9,2,1,4.1,0.4,6.2c-0.4,1.4-0.2,2.7,0.5,4
		c0.6,1.2,0.6,2.9,1.7,3.7c1.1,0.8,2.6,0.3,3.9,0.3c0.9,0,1.7,0.3,2.5,0.8c1.3,0.9,2.7,1.8,4.1,2.5c3.7,1.8,4.7,5.2,5.5,8.7
		c0.5,2,0.5,4,0.8,6.1c0.2,1.1-0.1,1.8-1.1,2.3c-0.9,0.5-1.8,1-2.6,1.6c-1.7,1-1.7,1-1,3c0.2,0.6,0.3,1.1,0.6,1.6
		c0.6,1.1,0.1,1.5-0.8,2c-3.6,1.9-7.2,3.8-10.8,5.8c-1.7,0.9-1.7,1-1.5,2.9c0.1,0.4,0.1,0.7,0.2,1.1c0.1,0.8-0.1,1.2-0.9,1.4
		c-1.9,0.5-3.8,1-5.7,1.5c-0.9,0.2-1.6-0.3-2.2-0.8c-1.2-1.2-2.7-1.7-4.4-1.3c-1.9,0.5-3.4-0.6-4.9-1.3c-2.1-1.1-2.1-1.1-3.6,0.7
		c-2.5,3-5,5.9-7.5,8.9c-0.9,1-1.4,2.1-1.3,3.6C354.6,407.2,354.5,409.2,354.5,411.2z"/>
</g>
<g id="bnt">
	<path class="st0" d="M234.3,321.4c2.6,1.6,4.6,3.6,7,5.2c0.7,0.5,0.5,1.3,0.5,2c0,0.8-0.2,1.6,0.4,2.3c0.9,0.9,1.9,1.8,3.1,2.3
		c0.5,0.2,1-0.1,1.5-0.3c1.4-0.7,2.9-1.5,4.3-2.2c0.5-0.3,1-0.5,1.6-0.7c1.6-0.5,1.9-0.3,2.4,1.3c1,3.2,1.9,6.4,2.8,9.7
		c0.2,0.8,0.2,1.6-0.1,2.4c-0.2,0.6-0.5,1.2-0.6,1.9c-0.7,3.6-2.4,6.3-5.8,7.9c-1.6,0.8-1.8,1.4-0.9,3c0.8,1.5,0.6,2.7-0.4,3.8
		c-2.4,2.7-3.1,5.7-1.8,9.1c0.4,1.2-0.1,2.3-0.7,3.3c-2.2,3.9-2.2,2.7,0,6.6c0.2,0.4,0.4,0.8,0.6,1.2c0.9,1.8,0.9,1.8-0.8,2.8
		c-1,0.6-1.3,1.3-0.9,2.3c0.6,1.9,1,3.8,1.6,5.7c0.4,1.2,0.4,2.2-1,2.9c-2.3,1.2-3.6,3.3-4.5,5.7c-0.7,2-3.4,3.2-5.5,2.6
		c-1-0.3-1.7-0.1-2.5,0.3c-1.9,0.9-3.8,1.2-5.9,0.8c-2.8-0.6-5.7,0.1-8.4,0.9c-1.1,0.3-2,0.2-2.9-0.3c-1.7-1-3.4-1.9-5.2-2.9
		c-0.8-0.4-1.3-1.1-1.6-2c-0.9-2.7-1.8-5.4-2.7-8.1c-0.3-0.9-0.5-1.8,0.2-2.7c0.4-0.4,0.4-0.9,0.3-1.5c-0.2-1.4-0.5-2.7-0.8-4.1
		c-0.3-1.5-0.6-1.7-2.1-1.3c-3.2,0.7-6.4,1.4-9.6,2.2c-0.4,0.1-0.7,0.2-1.1,0.3c-0.8,0.1-1.2-0.1-1.3-1c-0.4-3.8-0.9-7.7-1.3-11.5
		c-0.5-3.7-0.9-7.4-1.5-11c-0.2-1.4-0.2-2.9-0.6-4.3c-0.2-0.7,0.2-1.1,1-1.1c3.8,0.1,7.6-0.2,11.4,0.3c2,0.3,3.6,0,5.1-1.6
		c1.5-1.7,3.3-3.1,4.9-4.6c0.8-0.7,1.4-1.5,0.9-2.7c-0.2-0.4,0-0.9-0.1-1.3c-0.2-1,0.3-1.6,1.3-1.6c1.7-0.1,2.3-1.1,2.7-2.6
		c0.3-1.2,0.8-2.3,1.1-3.5c0.3-1,0.7-1.5,1.8-1.5c0.9,0,1.7-0.3,2.6-0.4c1.1-0.1,1.5-0.7,1.4-1.8c0-0.1,0-0.3,0-0.4
		c-0.3-3.1-0.3-3.1,2.7-3.6c1.9-0.3,3.6-0.8,5-2.4c0.7-0.9,1.2-1.8,1.5-2.9C233.5,323.3,233.7,322.4,234.3,321.4z"/>
</g>
<g id="amb">
	<path class="st0" d="M373.3,592.1c-2.6,0.2-5.1,0.3-7.5,0.4c-0.6,0-1.1-0.4-1.5-0.8c-2.4-1.7-4.8-3.4-7.1-5.2c-1-0.8-2-1.2-3.2-1
		c-1.4,0.2-2.3-0.5-3.2-1.5c-2.2-2.4-4.5-4.6-6.7-6.9c-0.8-0.9-5.2-5-6.6-5.8c-1.8-1.1-3.6-2.2-5.4-3.3c-0.8-0.5-1.7-0.5-2.5-0.5
		c-1.9,0-1.9,0-2.5-1.9c-0.3-0.8-0.6-1.7-0.8-2.5c-0.7-3.1-2.3-5.6-4.4-7.9c-2.6-2.9-2.4-3-1.9-6.8c0.3-1.7,1-2.7,2.7-3.1
		c2-0.5,4-1.4,6-2c1.1-0.3,1.7-0.9,2-2.1c0.6-2.2,1.3-2.5,3.5-2.1c0.3,0.1,0.6,0.1,0.8,0.2c1.5,0.5,2.6,0.3,3.8-1.1
		c1.2-1.4,2.8-2.5,5.1-2.4c1.1,0.1,2.4-0.7,3.5-1.2c1.1-0.5,2-0.4,2.8,0.3c0.2,0.2,0.5,0.3,0.7,0.5c1.4,1.2,2.8,1.4,4.3,0.3
		c0.9-0.7,1.8-0.5,2.8,0.1c3.2,2.2,3.3,2.2,6.2-0.2c1.4-1.1,2.8-1.8,4.5-2.1c1.2-0.2,2.4-0.6,3.6-0.8c0.6-0.1,1.2-0.3,1.7-0.2
		c3.5,0.5,6.9,1,10.3,1.5c1,0.1,1.8,0.5,2.6,1.1c2.5,2,5,4,7.5,6c0.8,0.6,1.5,1.1,2.5,0.6c0.7-0.4,1.2-0.1,1.8,0.3
		c1.5,1.2,3.1,2.3,4.5,3.5c1.2,1,1.3,2.3,0.1,3.4c-3.3,3.1-6.7,6.1-10,9.2c-0.7,0.7-1.5,0.5-2.2,0.3c-0.6-0.2-1.3-0.5-1.9-0.1
		c-0.9,0.7-1.9,1.2-2.5,2.1c-0.3,0.5,0,1,0.1,1.5c0.4,1.6,0.6,3.2,1.2,4.7c0.6,1.6-0.4,2.6-1.1,3.8c-0.3,0.5-0.8,0.3-1.1,0.1
		c-2-1.3-4.2-1-6.3-0.7c-1.7,0.3-3.3,0.4-5,0.6c-1.5,0.2-1.7,0.4-1.9,1.9c-0.2,1.8-0.4,3.6-0.5,5.4c0,1.4-0.5,2.5-1.7,3.3
		c-3.5,2.5-2.5,2.5,0.1,4.3c1,0.7,1.6,1.4,1.8,2.6C372.5,589.1,372.9,590.5,373.3,592.1z"/>
</g>
<g id="alc">
	<path class="st0" d="M427.1,124.8c1.4-1,2.4-1.9,3.5-2.6c1.3-0.8,1.7-1.9,1.5-3.3c-0.4-2.7-0.3-5.4-0.4-8.1c0-1.2-0.3-2.3-0.9-3.3
		c-0.6-1.2-1.4-2.4-1.8-3.9c2.6,0.1,4.8-0.9,7.1-1.5c1.2-0.3,1.7-1,1.6-2.2c0-1.4,0.1-2.8,0.1-4.2c0-1.1,0.4-1.7,1.4-2.2
		c4.1-2.2,8.2-4.4,12.4-6.6c2.4-1.3,5-0.8,6.9,1.2c1.4,1.5,2.9,2.9,4.2,4.4c0.6,0.7,1.4,1.1,2.3,1.1c2.7,0.1,5.4,0.3,8.1,0.5
		c0.8,0,1.2-0.4,1.5-1c0.5-1,1.1-1.7,2.3-0.7c0.4,0.4,1,0.4,1.4,0.1c0.8-0.7,1.5-0.4,2.1,0.3c1.7,2,4,2.9,6.5,3.4
		c1.7,0.3,3.4,1.5,5.1,1.2c1.6-0.3,2.5-2.1,3.9-3.1c0.1,0,0.1-0.1,0.2-0.1c1.4-1.2,1.5-1.2,2.9,0c1.2,1,2.3,1.7,3.9,1.5
		c0.8-0.1,1.6-0.2,2.2-0.8c0.6-0.8,1.4-1,2.3-0.8c1.2,0.2,2.5,0.4,3.7,0.5c0.7,0.1,1,0.5,1.1,1.2c0.3,3.3,0.6,6.7,0.9,10
		c0.1,0.9-0.1,1.5-0.8,2.1c-1.3,1.1-2.5,2.2-3.7,3.4c-0.8,0.8-1.6,0.7-2.4,0.3c-2.3-1.1-3.8-0.5-5.1,1.6c-0.6,1-1.4,1.6-2.5,2
		c-1.6,0.6-3.2,1.4-4.8,2.2c-1.5,0.7-1.6,0.9-0.9,2.5c0.6,1.3,1.2,2.7,1.7,4c0.6,1.4-0.4,4.9-1.5,5.8c-0.8,0.6-1.6,1-2.6,0.4
		c-1.1-0.6-2.1-0.4-3.1,0.1c-0.4,0.2-0.8,0.3-1.2,0.5c-4.1,1.9-8.4,2.9-12.9,2.5c-1.5-0.1-2.9,0.4-4.2,1c-0.6,0.3-1.2,0.5-1.8,0.8
		c-2.5,1.7-4.8,1.8-7.2-0.5c-1.2-1.1-1.5-0.9-2.7,0.3c-1.3,1.4-2.6,2.7-3.9,4.2c-0.7,0.8-1.4,1.1-2.5,0.9c-1.2-0.3-2.5-0.2-3.2,1.1
		c-0.4,0.7-0.9,0.6-1.5,0.1c-1.3-0.9-2.6-1.8-3.9-2.8c-1-0.7-1.8-1-3-0.4c-1.4,0.7-1.5,0.5-1.7-1.1c-0.3-2.8-0.6-5.7-0.9-8.5
		c-0.2-1.7-0.3-1.8-1.9-2.1C432.3,125.7,429.9,125.3,427.1,124.8z"/>
</g>
<g id="drd">
	<path class="st0" d="M430.2,448.2c-0.4-0.4-0.9-0.7-1.5-0.5c-0.8,0.3-1.5,0.5-2,1.2c-0.3,0.5-0.7,1-1.1,1.4c-0.8,0.9-1.4,0.8-2-0.2
		c-0.3-0.4-0.5-0.9-0.7-1.3c-0.4-0.9-1.1-1.4-2-1.9c-1.4-0.7-2.8-0.7-4.1,0.1c-1.5,0.9-3,0.8-4.5-0.1c-1.6-0.9-3.3-1.5-4.9-2.4
		c-1.4-0.8-2.5-0.7-3.8,0.2c-2,1.3-2.4,0.7-1.7,3.7c0.3,1.2,0.1,2.2-0.6,3.3c-1,1.5-1.8,3.2-2.9,4.7c-0.6,0.9-0.7,1.8-0.4,2.9
		c0.6,1.7,0.5,1.8-1.1,2.8c-0.2,0.2-0.5,0.3-0.7,0.5c-2.8,1.6-2.1,1.6-4.5-0.3c-0.9-0.7-1.8-1.1-2.9-1.3c-2.5-0.6-4.6,0.6-6.9,0.9
		c-0.9,0.1-1.5,0.5-1.7,1.4c-0.2,1.2-1,1.6-2.1,1.9c-3.8,1-7.6,2.1-11.4,3.1c-0.6,0.2-1.2,0.3-1.9,0c-4.6-1.6-9.1-3.1-13.5-5.2
		c-2.2-1-2.5-1.6-1.8-3.8c0.4-1.4,0.3-2.3-0.9-3.3c-1-0.9-0.9-1.4,0.1-2.3c1-0.9,2.1-1.8,3.2-2.7c0.6-0.5,1.3-0.9,2.2-0.9
		c1.6-0.1,2.4-1,2.2-2.3c-0.2-2-1-2.9-2.6-2.7c-3.9,0.4-7.8,0.7-11.8,1.2c-3.9,0.4-7.8,0.9-11.6-0.6c-2.2-0.9-4.4-1.2-6.8-0.6
		c-1.7,0.4-2.9,0.8-3.2,2.6c-0.2,1.3-1.2,1.9-2.4,2.2c-1,0.2-2,0.6-3,0.8c-0.7,0.2-1.1,0.5-1,1.4c0.4,2.7,0.8,5.5,1.1,8.2
		c0.1,0.9,0.5,1.4,1.4,1.6c2.1,0.5,4.1,1.1,6.2,1.6c1.3,0.3,2.1,0.8,2.3,2.2c0.1,0.7,0.3,1.3,1.2,1.3c0.3,0,0.7,0.1,0.8,0.3
		c0.2,1.3,1.1,1,1.8,0.8c2.2-0.4,4.1,0.6,6.2,0.8c0.6,0.1,1.3,0.5,1.5,1.2c0.2,1.4,1.3,1.5,2.4,1.8c1.4,0.3,2.8,0.2,4.1-0.3
		c1.1-0.4,2.1-0.3,3.1,0.3c1.9,1.1,3.9,2,5.9,2.9c1.2,0.5,1.9,1.3,2,2.6c0,0.9,0.3,1.9,0.5,2.8c0.1,0.8,0.5,1.4,1.3,1.6
		c2.6,0.9,5,2.4,8,1.9c0.6-0.1,1.3,0.1,1.9,0.2c1.8,0.3,3.6,0.9,5.4,1c3,0.2,5.1,1.4,6.3,4.2c0.4,1,1.2,1.3,2.3,1.3
		c2.5,0,5,0.1,7.4,0.2c0.2,0,0.4,0,0.6,0l-1.8-1.8l-0.4-0.4V488v-2.7c0-1.9,0.7-4.2,2.9-4.2c0.6,0,1.3,0.2,2,0.3
		c0.3,0.1,0.5,0.1,0.8,0.2c0.3-0.5,0.9-0.8,1.4-0.8c0.7,0,1.3,0.4,1.9,1c0.3,0.2,0.8,0.7,1.1,0.8c0.7-0.5,1.6-0.8,2.8-0.8
		c1.1,0,2.2,0.2,3,0.4l3.4-3.4l0.4-0.4h0.6h4.1h0.7l0.5,0.6l0.5,0.7c0.1-0.7,0.2-1.4,0.4-2.2c0.3-1.5,0.5-1.7,2-1.8
		c1-0.1,2.1-0.1,3.1,0c1.7,0.1,2.9-0.5,3.8-2c0.4-0.7,0.7-1.4,0.8-2.2c0.1-1.5,0.3-3,0.5-4.6c0.2-1.3,0.5-1.5,1.7-1.4
		c0.9,0.1,1.8,0.6,3,0.2c-0.5-1.2-0.9-2.2-1.4-3.2c-0.5-0.9-0.4-1.7,0.2-2.4c1.4-1.8,2.6-3.7,2.7-6.1c0-0.5,0.4-0.9,0.6-1.4
		c0.5-1,1-2.1,1.6-3.1C430.3,449,430.6,448.6,430.2,448.2z"/>
</g>
<g id="sgo">
	<path class="st0" d="M428.9,188.4c-0.6-0.1-1.3-0.3-1.9-0.4c-0.8-0.1-1.6-0.8-2.3-0.1c-0.8,0.8-1.2,1.8-1.6,2.8
		c-0.1,0.2,0.1,0.6,0.3,0.8c0.2,0.3,0.4,0.6,0.6,0.9c2.1,2,2.7,4.6,2.8,7.3c0.1,1.9,0,3.8,0.1,5.7c0,1-0.6,1.4-1.2,1.9
		c-2.5,1.8-4.9,3.7-7.4,5.4c-1,0.7-1.4,1.5-1.4,2.7c0,1.5-0.3,3.1-0.3,4.6c0,1-0.4,1.6-1.2,2.1c-2,1.1-4,2.4-6.1,3.5
		c-1.2,0.7-2.2,1.4-2.2,3c0,0.5-0.2,1-0.3,1.5c-0.5,3.1-0.7,3.2-3.5,4.4c-0.8,0.3-1.4,0.3-1.9-0.4c-0.7-0.9-1.5-1.8-2.2-2.7
		c-0.6-0.7-1.2-0.8-1.9-0.2c-0.9,0.8-1.9,1.6-2.8,2.4c-1,0.9-2,1.4-3.4,1.1c-1.5-0.4-2.6,0.1-3.5,1.4c-1.5,2-3,1.9-4.5-0.1
		c-0.3-0.4-0.6-0.8-1-1.2c-1.3-1.3-1.8-2.8-1.6-4.6c0.3-1.7-0.3-3-2-3.6c-0.5-0.2-1-0.6-1.5-0.9c0-0.9,0.7-1.3,1.2-1.8
		c1.2-1.2,1.7-2.7,1.7-4.4c0-1.8,0-3.7,0.1-5.5c0.1-1.1-0.3-1.9-1.4-2.2c-1-0.3-1.2-1.1-1.2-2c0-1.5-0.2-2.9,0-4.4
		c0.1-1.5-0.5-2.5-1.8-3.2c-0.8-0.5-1.7-0.9-2.3-1.9c1.4-1.2,2.8-2.4,4.2-3.5c1.2-0.9,2-2,2.4-3.5c0.6-2.2,1.3-4.3,1.9-6.5
		c0.3-1.1,0.9-1.8,1.9-2.3c3.4-1.7,6.7-3.5,10.1-5.3c0.6-0.3,1.1-0.4,1.6,0c0.3,0.2,0.7,0.3,0.9,0.5c2.5,2.1,5.4,2.3,8.5,1.9
		c0.8-0.1,1.6-0.1,2.4-0.1c0.6,0,1.4,0.2,1.7-0.6c0.3-0.8-0.3-1.2-0.8-1.6c-1.4-1.3-2.8-2.5-4.3-3.8c-1.6-1.4-3.2-2.8-4.8-4.2
		c-0.6-0.5-0.9-1.1-1.1-1.9c-0.1-0.9-0.4-1.9-0.5-2.8c-0.3-2-0.7-3.9-2.1-5.4c-0.2-0.3-0.4-0.6-0.3-1.1c0.3-0.5,0.9-0.3,1.3-0.3
		c1.3,0,2.6-0.1,3.9,0c2.8,0.2,5.4-0.1,7.6-2c0.7-0.6,1.6-0.6,2.5-0.3c2.4,0.7,4.8,1.4,7.2,2c1.1,0.3,1.7,0.9,2.2,1.9
		c1.4,2.8,2.9,5.6,4.5,8.3c1.3,2.4,2.4,4.8,2.8,7.5c0.6,3.6,1.6,7.1,2.1,10.7C429.1,188.2,429,188.3,428.9,188.4z"/>
</g>
<g id="rbr">
	<path class="st0" d="M386.3,405.6c-0.3,0.7-1,1.2-1.6,1.8c-1,1.2-1,1.5,0.4,2.3c0.6,0.4,1.3,0.7,1.9,1c0.7,0.4,1.4,0.4,2-0.1
		c1.1-0.7,2.2-1.4,3.4-2.1c0.4-0.2,0.8-0.6,1.1-0.6c2.6,0.3,5.3,0.3,7.3,2.3c1.2,1.2,2.2,2.5,3.2,3.9c0.7,1,1.5,1.2,2.6,0.7
		c0.7-0.3,1.3-0.6,2-0.8c1.4-0.4,2.2-1.2,2.9-2.5c0.8-1.6,0.9-1.6,2.5-1c1.9,0.7,2,0.9,1.7,2.6c-0.2,1.1-0.5,2.1-0.8,3.2
		c-0.4,1.2,0,1.9,1.1,2.5c3,1.6,5.9,3.5,9,5.1c1.2,0.6,1.8,1.5,2.2,2.8c0.5,2.1,0.6,2,2.6,2.2c2.6,0.3,5.2,0.6,7.8,0.8
		c0.5,0.1,1,0.2,1.4,0.5c2.5,1.3,4.9,2.6,7.4,3.8c0.8,0.4,1.4,0.9,1.6,1.7c0.6,2.1,2,3.5,3.9,4.5c0.5,0.3,1.2,0.5,1.4,1.3
		c-0.6,0.8-1.6,0.7-2.4,0.9c-2.5,0.4-5.1,0.7-7.6,1.1c-1.2,0.2-2.5,0.3-3.3,1.4c-0.5,0.8-1.4,0.5-2,0.2c-1.5-0.7-2.5-0.3-3.3,1.1
		c-0.2,0.4-0.6,0.6-0.9,1c-0.4,0.6-0.9,0.6-1.5,0.2c-0.2-0.1-0.4-0.2-0.5-0.4c-2.4-2.3-5-1-6.8,1c-0.1,0.1-0.2,0.1-0.6,0.3
		c-0.7-2-2.5-2.8-4.4-3.5c-1.1-0.4-2.1-0.5-3.1,0.1c-1.8,1.1-3.5,0.9-5.3-0.2c-1.6-0.9-3.3-1.5-4.9-2.4c-1.2-0.6-2.1-0.7-3.2,0.1
		c-2.3,1.7-5,2.3-7.8,2.3c-1,0-1.7-0.2-1.8-1.3c-0.1-1.1-0.9-1.2-1.8-0.9c-1.3,0.4-2.7,0.8-4,1.2c-0.9,0.3-1.4,0-1.6-0.9
		c-0.2-0.7-0.4-1.4-0.6-2.1c-0.6-1.6-0.8-1.7-2.4-1c-0.9,0.4-1.9,0.8-2.8,1.3c-1,0.5-1.8,0.4-2.4-0.6c-0.7-1-1.4-2-2.2-3
		c-0.4-0.5-0.7-1.1-1.2-1.2c-1.3-0.2-1.5-0.9-1.3-2c0.3-1.1-0.3-1.7-1.3-2.2c-2-1-3.9-2.1-5.8-3c-1.2-0.5-1.8-1.3-1.4-2.5
		c0.4-1.6-0.1-2.5-1.6-3.1c-0.4-0.2-0.8-0.5-1.2-0.6c-1.6-0.6-2.7-1.7-2.7-3.5c0-1.1-0.7-1.9-1.9-1.9c-0.6,0-1-0.3-1.1-0.9
		c-0.3-1.3-0.8-2.6-0.7-4.1c0.2-2.3,0.2-4.7,0.3-7c0-1,0.3-1.8,1-2.6c2.4-2.8,4.8-5.5,7.1-8.4c0.8-0.9,1.4-1,2.4-0.4
		c1.8,1.1,3.6,1.8,5.8,1.2c0.9-0.2,1.7,0.1,2.4,0.7c1.5,1.5,3.1,1.7,5.2,1.1c3.6-1.1,3.3-1.1,3.4,2.5c0,0.2,0,0.4,0,0.7
		c-0.3,2,0.4,3.6,2.2,4.6C385.9,405,386.2,405.2,386.3,405.6z"/>
</g>
<g id="mcj">
	<path class="st0" d="M298.9,429.6c0.3-0.1,0.6-0.2,0.9-0.2c1.9-0.6,1.9-0.6,1.9-2.6c0-2.2,0-4.4,0-6.6c0.9-0.2,1.6,0.1,2.3,0.2
		c2.1,0.3,2.3,0.1,1.7-2c-0.5-1.8-0.9-3.6-1.4-5.3c-0.3-0.9-0.1-1.7,0.3-2.5c1.6-3,3.2-6.1,4.9-9.1c0.5-0.9,0.6-1.7,0.3-2.7
		c-0.5-1.5-0.7-3.1-1.2-4.7c-0.5-1.6-0.4-2.9,0.6-4.3c1.7-2.7,1.7-2.9,4.7-1.9c2.7,0.9,4.3,0,6.1-2c2.4-2.6,3.9-5.6,5-8.8
		c0.6-1.8,0.5-1.9-1.5-2c-1.9-0.1-3.8-0.2-5.7-0.3c-1.6-0.1-2.3-1.2-1.7-2.7c0.5-1.2,1.1-2.2,2.7-2c1.2,0.1,2.3-0.4,3.4-0.7
		c3.1-0.9,6.1-1.9,9.1-2.9c0.5,0.7,0.1,1.2-0.1,1.7c-1.1,3.3-2.1,6.5-3.3,9.8c-0.3,1-0.4,1.9,0.3,2.7c3,3.4,3.1,7.6,3.2,11.7
		c0.1,1.5,0.1,3.1,0.1,4.6c0,1.2,0.5,1.9,1.7,2c1.5,0.1,2.7,1,3.9,1.9c2.1,1.6,4.3,3.3,6.5,4.8c0.9,0.7,1.6,1.4,1.9,2.6
		c0.3,1.1,0.7,2.1,1,3.1c0.6,1.6,0.7,1.8,2.4,1.1c1.5-0.6,2.6-0.3,3.8,0.6c0.8,0.5,1.3,1.1,1.5,2.1c0.2,0.8,0.4,1.6,0.6,2.3
		c0.2,0.9,0.6,1.6,1.7,1.6c0.7,0,1.2,0.4,1.3,1.2c0.1,2.2,1.5,3.4,3.4,4c1.7,0.6,2.3,1.6,1.9,3.3c-0.3,1.2,0.3,1.9,1.4,2.4
		c2.1,1,4.1,2.2,6.2,3.2c1.4,0.6,0.8,1.6,0.8,2.6c-0.1,1-0.7,1.1-1.5,1.1c-1.2,0.1-2.5,0.2-3.7,0.4c-1.7,0.3-3.1-0.2-4.5-1.2
		c-2.6-1.9-2.6-1.8-3.9,1.1c-0.5,1.2-1.2,2.4-1.6,3.6c-0.5,1.9-1.7,2.4-3.5,2.6c-5.7,0.5-11.3,1.1-17,1.7c-0.6,0.1-1.2,0-1.7-0.2
		c-1.4-0.4-2.8-0.8-4.2-1.1c-1.1-0.2-1.6-0.6-1.6-1.9c-0.1-2-0.3-2.1-2.2-2.1c-1.8,0-3.7-0.1-5.5,0c-1.2,0.1-2.1-0.3-3-1
		c-2.3-1.8-4.6-3.6-6.9-5.5c-0.8-0.6-1.6-1-2.6-1c-2.1-0.1-4.2-0.5-6.3-0.6C300.4,431.8,299.5,431.1,298.9,429.6z"/>
</g>
<g id="nad">
	<path class="st0" d="M521.6,446.4c-1.6,4.1-3.5,6.5-4,7.4c-5.7,10.2-11.4,20.4-17.1,30.6c-4.2,7.5-8.4,15-12.6,22.5
		c-0.3,0.5-0.4,1.1-1.1,1.4c-1.2-1.6-1.6-3.1-0.7-5c1-2,1.8-4.2,2.7-6.2c0.5-1.2,0.5-2.2-0.3-3.3c-0.5-0.6-0.7-1.3-1.1-1.9
		c-1.9-2.4-2.5-5.2-2.5-8.2c0-1.4-0.2-2.8-0.6-4.1c-0.3-0.8-0.3-1.3,0.6-1.8c1.1-0.6,1-1.6,0.5-2.7c-1-2.1-1.9-4.1-3.1-6
		c-0.8-1.3-1.5-2.6-1.4-4.3c0.1-1.6-0.2-1.8-1.8-2.3c-0.3-0.1-0.6-0.2-0.8-0.2c-1.5-0.2-2.4-0.9-2.5-2.5c-0.2-1.7-1.1-2.9-2.3-4.1
		c-1.5-1.4-3-3-4.6-4.6c-3.7-5.3-0.4-6,0.6-8.5c-0.4-1.1-0.3-2.1,0.3-3.1c1-1.6,1.2-3.4,1.1-5.2c0-2.6-0.2-5.2-0.4-7.9
		c-0.2-2,1.2-3.4,2.1-4.9c0.2-0.4,0.8-0.3,1.2-0.5c1.9-0.6,4-0.7,5.8-1.9c0.4-0.3,1-0.2,1.5-0.2c2.1-0.1,4.2-0.3,6.3-0.4
		c1.6-0.1,3-0.8,4.3-1.5c2.8-1.6,5.3-1.4,8,0.1c0.4,0.2,0.8,0.4,1.2,0.5c5.2,2,5.3,1.9,11,1.1c3.1-0.4,6.2-0.8,9.2,0.5
		c1.8,0.8,3.8,1.1,5.7,1.6c1.9,0.6,2.9,2.5,2.1,4.5c-0.7,1.7-1.3,3.4-2.1,5c-0.7,1.3-1,2.7-0.6,4c1,2.8,0,5.2-1.6,7.3
		C523.4,443,523.1,444.8,521.6,446.4z"/>
</g>
<g id="nas">
	<path class="st0" d="M461.6,413.6c0.3,0.2,0.5,0.3,0.6,0.5c1.1,2.2,2.8,2.1,4.7,1.5c1.5-0.4,3.1-0.6,4.7-1.1
		c1.2-0.3,2.2-0.2,3.2,0.7c0.9,0.8,2.1,1.3,2.9,2.3c-0.8,1.1-2,1.2-3,1.2c-3.5,0.1-4.7,2.7-6,5.2c-0.3,0.7-0.3,1.4-0.2,2.1
		c0.1,3,0.2,6,0.4,9c0.1,1.4-0.5,2.6-1.1,3.7c-0.1,0.2-0.2,0.5-0.4,0.5c-1.9,0.3-2,1.9-2.5,3.2c-0.3,0.8-0.7,1-1.5,0.7
		c-3.9-1.3-7.9-2.1-11.2-4.7c-1.1-0.8-2.1-1.6-2.5-2.9c-0.5-1.6-1.6-2.7-3.2-3.4c-1.3-0.6-2.7-1.2-3.9-2.1c-2.8-1.9-5.9-2.4-9.1-2.6
		c-0.6,0-1.2-0.1-1.7-0.1c-1.9,0-3.4-0.6-3.6-2.8c-0.1-0.9-0.8-1.3-1.6-1.7c-2.9-1.7-5.8-3.4-8.8-5c-1.1-0.6-1.5-1.2-1.1-2.4
		c0.4-1.2,0.6-2.6,0.9-3.8c0.3-1,0-1.5-0.9-1.9c-1.3-0.5-2.6-1-3.9-1.5c-0.9-0.4-1.5-0.1-2,0.7c-0.3,0.5-0.6,1-0.9,1.5
		c-0.3,0.5-0.5,1.1-1.1,1.4c-1,0.5-2.1,1.2-3.2,1.2c-0.9,0-1.4-1.1-1.8-1.8c-1.8-2.9-4.4-4.2-7.6-4.8c-2.1-0.4-3.8-0.4-5.5,1
		c-0.6,0.5-1.2,0.8-1.9,1.2c-0.9,0.6-1.8,0.6-2.5-0.3c0.3-0.8,1-1.2,1.5-1.8c0.6-0.7,0.7-1.3-0.1-1.9c-0.2-0.1-0.3-0.3-0.5-0.4
		c-3.5-1.7-2.3-5-2.5-7.7c0-0.4,0.2-0.7,0.6-0.8c1.3-0.3,1.4-1.2,1.1-2.2c-0.8-2.4,0.4-3.5,2.4-4.4c3.3-1.5,6.5-3.4,9.7-5.1
		c1.6-0.9,1.6-0.9,1.1-2.5c-0.3-1.1-1.3-2.2-0.8-3.3c0.5-1,1.8-1.5,2.8-1.9c1.8-0.8,2.2-2.1,1.9-3.9c-0.3-2.1-0.5-4.2-0.7-6.4
		c2.2,0.5,4,1,5.1,2.9c1.8,3.2,4.3,5.4,8.2,5.7c1.1,0.1,1.6,0.8,1.9,1.8c0.3,1.1,0.6,2.1,1,3.1c0.1,0.2,0.2,0.4,0.4,1
		c0-0.7,1.3,4.4,1.5,4.8c1.4,2.2,2.7,4.4,4.1,6.5c1.3,1.9,2.7,3.8,4.6,5.3c5.5,4.3,10.4,9.4,15.3,14.4c1.3,1.3,2.6,1.9,4.4,2.2
		c2.7,0.4,5.3,0.9,8,1.5C459.3,415.6,460.8,415.6,461.6,413.6z"/>
</g>
<g id="csl">
	<path class="st0" d="M583.5,173.9c0-2.3,0-4.5,0-6.8c0-1.1,0.2-1.8,1.3-2.3c1.3-0.6,2.6-1.9,3.9-1.8c1.3,0,2.1,1.9,3.1,2.9
		c1.3,1.2,2.3,2.8,3.7,3.6c1.4,0.8,3.3,0.1,5,0.1c0.8,0,1.4,0.2,2,0.7c1.1,1.1,2.3,1.5,3.8,1.2c1.5-0.3,2.5,0.4,3.3,1.7
		c0.9,1.5,2,2.5,3.9,2.2c0.7-0.1,1,0.4,1.3,1c0.5,1.2,1.1,2.4,1.6,3.6c0.4,1,1,1.5,2,0.9c2.1-1.2,3.8-0.9,5.3,1
		c1.2,1.5,2.9,1.1,4.5,0.8c1.3-0.2,2.4-0.1,3.6,0.6c1.6,0.8,2.8,1.8,2.8,3.8c0,0.7,0.5,1.2,1,1.6c1.1,0.8,2.1,1.6,3.2,2.4
		c0.7,0.5,1.4,0.7,2.2,0.4c1.4-0.5,2.7-0.1,3.9,0.6c3.8,2.2,7.7,4.2,11.4,6.5c1.1,0.6,2,0.7,3,0c0.7-0.5,1.5-0.9,2.3-1.3
		c0.5-0.3,1.1-0.4,1.7-0.1c0.7,0.3,1.1,0.6,0.7,1.5c-1.1,3.1-2.2,6.2-3.2,9.3c-0.2,0.5-0.4,0.9-1,1c-1.6,0.2-3.1,0.5-4.7-0.2
		c-2.9-1.2-5.9-2.2-8.8-3.3c-0.7-0.2-1.3-0.6-2.1-0.5c-5.3,0.3-10.4-1-15.5-2.5c-1.4-0.4-2.9-0.6-4.2-1.1c-1-0.3-1.8-0.2-2.6,0.5
		c-1.4,1.1-2.8,2.1-4.2,3.2c-0.9,0.7-1.6,0.7-2.6,0.1c-1.5-1-3.1-1.9-4.7-2.9c-0.8-0.5-1.4-0.5-2.2-0.1c-1.4,0.8-2.8,1.5-4.2,2.3
		c-1.3,0.7-1.4,1.1-0.6,2.2c1.1,1.7,2.3,3.4,3.4,5.1c0.5,0.8,1.4,1,2.1,1.5c0.5,0.3,1.3,0.4,0.9,1.4c-0.5,1-1,0.3-1.6,0.1
		c-0.2-0.1-0.4-0.2-0.6-0.3c-1.2-0.9-2.4-0.9-3.5,0.2c-1.8,2-3.9,2.1-6.5,1.5c-2.7-0.6-5.1-1.7-7.3-3.3c-1.4-1-2.6-1.3-4.2-0.3
		c-1.5,0.9-1.5,1.1-2.4-0.7c-0.6-1.1-1.2-2.2-1.6-3.3c-0.8-1.8-1.8-3.4-3.6-4.2c-0.9-0.4-1.2-1.2-1.1-2.1c0.2-3.6,0.3-7.2,0.5-10.7
		c0.1-1.3-0.2-2.3-1.3-3c-0.2-0.1-0.4-0.4-0.7-0.6c-2.3-1.3-2.3-3.5-2.1-5.7c0.1-1.2,1.2-1.6,1.9-2.3c0.2-0.2,0.4-0.1,0.6,0
		c0.2,0.1,0.4,0.3,0.4,0.5c1,2.4,3.3,2.3,5.4,2.6c1.3,0.2,1.6-0.1,1.6-1.4C583.5,178.9,583.5,176.4,583.5,173.9
		C583.5,173.9,583.5,173.9,583.5,173.9z"/>
</g>
<g id="anr">
	<path class="st0" d="M526.2,442.1c0.3-1.2,1.2-1.8,2.4-1.6c0.7,0.1,1.4,0.3,2.1,0.5c1.7,0.4,3.4,0.8,5.2,1.3c1.7,0.7,2.6,0.7,3.7,1
		c3.5,0.5,6.7-0.3,9.9-0.5c4-0.3,8-0.7,12-1.1c1.1-0.1,1.8,0.2,2.1,1.3c0.5,1.5,1.1,3,1.6,4.5c0.3,1,0.9,1.8,1.8,2.4
		c4,2.8,8,5.6,12,8.5c1,0.7,1.9,1,3.1,0.6c0.3-0.1,0.7-0.1,1.1-0.2c2.3-0.9,3.9,0.3,5.6,1.9c-1,1-1.9,2.1-2.9,3
		c-2.3,2.2-4.3,4.6-5.8,7.3c-0.7,1.3-1.9,2.2-3.1,3c-3.7,2.5-7.9,3.7-12.2,4.5c-1.3,0.2-2.3,0.8-3.2,1.7c-2.7,2.6-5.6,5.2-8.3,7.8
		c-0.9,0.9-1.9,1.4-3.1,1.1c-1.4-0.3-2.4,0.2-2.9,1.6c-0.9,2.4-2.5,3.7-5.1,4.1c-1.8,0.3-3.5,0.9-5.3,1.5c-0.8,0.3-1.4,0.1-2-0.4
		c-1.4-1.2-2.4-2.4-2.3-4.4c0.1-1.5-0.2-3-0.4-4.6c-0.2-1.3-0.5-2.5-1.9-3.2c-1.4-0.8-1.9-2.6-1-4c1-1.5,0.6-2.6-0.3-3.9
		c-2-2.9-3.7-5.9-5.7-8.9c-0.7-1-1-2.1-1.1-3.3c-0.2-3.3-0.6-6.5-0.8-9.8c-0.1-0.8-0.4-1.8,0-2.4c0.8-1.5,0.7-3.5,2.2-4.6
		C523.6,446.9,526.1,442.8,526.2,442.1z"/>
</g>
<g id="chs">
	<path class="st0" d="M582.8,156.2c0.4-0.1,0.7,0.2,1,0.5c1.2,1.3,2.4,2.5,3.6,3.8c0.5,0.5,0.4,0.9-0.2,1.2c-1.2,0.7-2.4,1.4-3.7,2
		c-1.3,0.6-1.8,1.5-1.8,2.9c0.1,4.4,0,8.8,0,13.2c0,0.4,0,0.7-0.1,1.2c-1.6,0.1-2.9-0.2-3.7-1.6c-0.1-0.3-0.3-0.5-0.5-0.7
		c-0.9-1.1-1.4-1.8-2.7-0.3c-0.2,0.3-0.6,0.4-0.9,0.6c-1.5,1.1-2.1,2.5-2.2,4.4c-0.2,2.7,0.9,4.4,2.9,5.7c1.3,0.9,1.6,1.9,1.5,3.3
		c-0.1,3.4-0.5,6.7-0.5,10.1c0,1.4,0.2,2.4,1.6,3.1c1.7,0.8,2.7,2.2,3.4,3.9c0.5,1.2,1,2.4,1.8,3.5c1,1.4,0.8,2.7,0,4.1
		c-1.2,2.1-1.3,4.3-0.7,6.6c0.3,1.4,0.2,2.6-0.8,3.7c-0.8,1-1.3,2.3-2.4,3.1c-0.9-1.1-1.1-2.5-1.4-3.7c-0.4-1.3-1-2.2-2.3-2.7
		c-1.6-0.6-1.5-0.7-1.3-2.6c0.1-0.7,0-1.3,0.1-2c0.1-0.9-0.3-1.5-1-2c-1.1-0.8-2.1-1.5-3.1-2.4c-0.9-0.7-1.8-1-2.7-0.2
		c-1,0.8-1.6,0.3-2.4-0.4c-1-1.1-1.4-2.3-1.8-3.7c-0.2-0.7-0.4-1.4-0.6-2.1c-0.2-1-0.8-1.6-1.8-1.9c-4.1-1.1-8.1-2.3-12.2-3.4
		c-1.3-0.4-2.4,0.1-3.6,0.4c-1.6,0.5-1.9,0.3-2.1-1.4c-0.1-1.2-0.1-2.3-0.1-3.5c-0.1-2-0.3-2.3-2.4-2.6c-1.2-0.2-1.3-1-1.5-1.8
		c-1.1-4.4-2.4-8.7-3.4-13.1c-0.4-1.6-1-2.7-2.7-3c-0.8-0.1-1.5-0.6-1.8-1.4c-0.6-1.4-1.2-2.8-1.9-4.2c-0.4-0.8-0.1-1.2,0.5-1.6
		c0.2-0.1,0.4-0.3,0.6-0.3c2.4-0.8,3.2-2.6,3.6-4.9c0.4-2.4,1.1-4.8,1.6-7.3c0.2-1.1,0.7-1.8,1.8-1.8c1.5-0.1,2.7-0.9,4.1-1.3
		c0,0,0.3-3.6,5.7-3.6S582.8,156.2,582.8,156.2z"/>
</g>
<g id="sev">
	<path class="st0" d="M628.7,276c0.7,0,1.3,0,2,0c1.1-0.1,2,0.2,2.4,1.4c0.4,1.1,1.2,1.1,2.3,0.8c2-0.6,3.4-1.6,4.2-3.7
		c0.8-1.9,1.8-3.6,2.8-5.5c0.3-0.5,0.5-1.1,1.3-0.8c0.7,0.3,0.8,0.8,0.6,1.4c-0.6,1.5-0.5,3-0.3,4.5c0.1,1-0.3,1.7-0.9,2.4
		c-0.7,1-0.6,1.8,0.3,2.7c0.6,0.5,1.1,1.2,1.6,1.8c1.1,1.4,2.4,2.5,4.3,2.6c1.1,0,1.9,0.6,2.6,1.4c3.7,4.1,7.4,8.1,11,12.2
		c1.3,1.5,2.7,2.5,4.7,2.2c2.4-0.3,4.2,0.6,5.8,2.3c1.9,1.9,3.9,3.6,5.8,5.3c0.8,0.7,1,1.2,0.4,2.2c-1.7,2.8-3.3,5.7-5,8.5
		c-0.3,0.6-0.8,1-1.5,1.2c-0.4,0.1-0.8,0.3-1.2,0.4c-1.9,0.4-3.2,1.5-4.1,3.3c-0.9,1.8-2,3.5-3.2,5.3c-1,1.5-1.6,1.5-2.7,0.1
		c-0.3-0.4-0.7-0.8-1.2-0.9c-1.3-0.1-2.2-1-3.1-1.9c-5.7-5.1-11.4-10.2-17.1-15.3c-0.2-0.2-0.4-0.4-0.7-0.6c-0.7-0.7-1.4-0.6-2,0.2
		c-1.4,1.8-3,3.4-4.3,5.2c-1.4,2-3.6,1.9-5.6,2.5c-0.6,0.1-0.9-0.4-1.2-0.8c-3.3-4.3-6.6-8.6-9.9-12.8c-0.5-0.6-0.6-1.3-0.6-2
		c-0.1-3.9-0.3-7.7-0.4-11.6c0-1.3-0.6-2.2-1.2-3.2c-0.6-1-1.9-2-1.8-3.2c0.2-1.2,1.7-1.9,2.6-2.8
		C619.2,277.2,623.8,276.2,628.7,276z"/>
</g>
<g id="bnd">
	<path class="st0" d="M454.3,274.1c-2.8-0.1-2.9-0.1-4.3,2.4c-0.8,1.4-1.8,2.2-3.2,2.7c-2.5,0.9-4.9,1.9-7.3,2.9
		c-1,0.4-2,0.8-3.1,0.9c-2.4,0.1-4.6-0.3-6.4-2.1c-1.3-1.3-2.9-2.3-4.3-3.4c-0.7-0.6-1.4-0.8-2.1-0.1c-0.6,0.5-1.4,0.7-2,0.1
		c-2.1-1.9-4.6-1.8-7.2-1.6c-2.7,0.2-2.7,0.1-3.4-2.5c-0.3-1.1-0.5-2.1-0.8-3.2c-0.5-1.6-0.9-1.8-2.2-0.7c-0.3,0.2-0.5,0.6-1,0.6
		c-0.9-1.3-1.9-2.5-0.7-4.4c0.5-0.7,0.2-1.7,0-2.6c-0.2-1.2,0.2-1.9,1.2-2.5c0.9-0.5,1.7-1.2,2.5-1.8c1.3-1,1.3-1.1,0.7-2.5
		c-0.1-0.3-0.3-0.7-0.5-1c-1-2.1-1-2.1-3.2-1.7c-0.8,0.2-1.6,0.1-2.4-0.2c-2.6-1.1-5.1-2.2-8-2.1c-0.9,0-1.6-0.6-2.3-1.2
		c-0.8-0.7-1.7-0.9-2.8-0.7c-2.7,0.4-5.5,0.7-8.2,1.1c-1.8,0.2-1.9,0.1-1.9-1.6c0-0.8-0.1-1.6,0-2.4c0.1-1.2-0.2-2.1-1.3-2.7
		c-0.9-0.5-1.2-2.1-0.6-2.9c0.7-0.9,1.6-1.7,2.4-2.5c0.3-0.3,0.7-0.2,1,0.2c0.5,0.6,1.1,1.2,2.1,0.9c1.2-0.4,2.8,0,3.5-1.4
		c0.9-1.6,2.2-1.8,3.7-1.4c1,0.3,1.7,0,2.4-0.7c0.9-0.8,1.9-1.6,2.8-2.4c0.6-0.6,1.1-0.5,1.6,0.2c0.6,0.8,1.3,1.6,1.9,2.4
		c0.6,0.9,1.3,1.1,2.2,0.5c1-0.6,2.1-1,3.1-1.6c0.6-0.3,1.1-0.3,1.5,0.3c0.3,0.3,0.6,0.7,0.8,1c1.4,2.3,3.5,3.8,6.1,4.7
		c1,0.4,1.9,0.6,3,0.6c3.6-0.1,7.2,0.4,10.6-0.8c0.8-0.3,1.5,0,2.3,0.5c1.5,1,3.1,1.9,4.6,3c1,0.7,1.8,0.7,2.8,0
		c0.9-0.6,1.8-1.2,2.8-1.7c1.4-0.8,2.5-0.4,3.1,1.1c0.5,1.4,1.1,2.9,1.5,4.3c0.3,1,0.8,1.7,2,1.5c1.1-0.1,1.3,0.6,1.3,1.5
		c0,2.4,0.1,4.8,0.1,7.2c0,1.4,0.3,2.6,1.6,3.4c0.4,0.2,0.9,0.6,0.9,0.9c0.2,2.4,2.2,3.7,3.6,5.3c0.8,0.9,1.3,1.7,0.4,2.8
		C454.1,271.7,454.9,273,454.3,274.1z"/>
</g>
<g id="apt">
	<path class="st0" d="M663.1,271.4c1.1,0.1,2.1-0.1,2,1.4c0,0.3,0.3,0.5,0.6,0.6c0.3,0.1,0.6,0.2,0.8,0.2c4.5,0.9,4.5,0.9,8-2
		c2.3-1.9,4.5-3.7,6.7-5.6c0.9-0.8,1.9-1.2,3.2-1.2c2.6,0,5.1-0.1,7.7-0.2c1.6-0.1,2.9,0.2,4.2,1.3c1.6,1.5,1.9,1.5,3-0.3
		c2-3.1,4.7-4.9,8.4-5.6c3.5-0.7,3.4-0.9,4.1,2.5c0.3,1.6,0.5,3.2,0.9,4.7c0.3,1.3,0.1,2.3-0.9,3.1c-0.3,0.3-0.5,0.7-0.9,1
		c-0.7,0.7-0.8,1.5,0.1,2c1.6,1.2,1.6,2.7,1.4,4.5c-0.5,3.2-0.9,6.4-1.3,9.5c-0.1,0.7-0.3,1.3-0.7,1.8c-1.4,2.5-2.7,5-4.1,7.5
		c-1.5,2.6-4.1,4.3-6.1,6.5c-0.3,0.3-0.8,0.3-1.2,0.3c-5.1,0.4-10.1,1.4-14.9,3.2c-1.4,0.5-2.3,0.2-3.3-0.8
		c-2.5-2.4-5.2-4.7-7.8-7.1c-0.8-0.7-1.6-1.2-2.7-1.1c-0.2,0-0.4,0-0.7,0c-2.5,0-4.5-0.7-6.2-2.9c-3.2-4-6.8-7.6-10.3-11.4
		c-0.8-0.9-1.7-1.6-2.9-1.6c-2.6,0-3.7-2.1-5.1-3.7c-0.5-0.6,0-1.6,0.8-1.8c0.5-0.1,1-0.1,1.5-0.1c0.9,0.1,1.6-0.3,1.8-1.2
		c0.3-1.3,1.2-1.6,2.4-1.8c3.2-0.5,6.5-1.1,9.7-1.6C661.9,271.5,662.6,271.5,663.1,271.4z"/>
</g>
<g id="nav">
	<path class="st0" d="M439.9,557c0.1-0.8-2.8,0.5-3.1,1.4c-0.3,0.9-0.6,2-1.7,2c-2,0.1-3.9,0-5.9,0c-0.5,0-0.8-0.3-0.9-0.8
		c-0.1-0.3-0.2-0.6-0.3-0.8c-0.2-2.7-1.7-3.9-4.4-4.1c-1.4-0.1-2.8-0.8-4.2-1c-1.1-0.2-1.5-0.6-1.2-1.8c0.4-1.3,0.2-1.4-1.3-1.5
		c-2,0-4.1-0.1-6.1,0c-1.8,0.1-3.1-0.7-4.3-1.8c-1.1-1-0.8-2.4-0.3-3.7c0.8-2,1.7-4.1,2.6-6c0.6-1.3,0.9-2.6,0.4-4
		c-0.7-1.9,0.3-3.7,0.5-5.6c0.1-0.6,0.6-0.7,1.1-0.8c5.3-1,10.6-2,15.9-3.1c4-0.8,8-1.5,12-2.3c1.1-0.2,2-0.2,2.9,0.4
		c0.7,0.4,1.3,0.9,2.1,1.2c1.6,0.6,2.3,1.7,2.4,3.3c0.1,1,0.5,1.6,1.4,2c0.3,0.1,0.5,0.3,0.8,0.4c2.3,2.1,4.8,2.8,7.8,1.5
		c1.2-0.5,2.3,0.2,3.3,0.6c0.9,0.4,2.2,0.4,2.3,1.9c0,0.3,0.5,0.5,0.9,0.2c0.5-0.4,1-0.4,1.6-0.2c3.4,1.4,7,2.4,10.2,4.5
		c0.7,0.5,1.3,0.9,1.2,1.8c-0.1,0.8,0.6,1.3,1.1,1.8c0.8,0.7,1,1.5,1,2.5c-0.1,3.1,0,6.1-0.3,9.2c-0.1,0.7-0.2,1.3-0.6,1.9
		c-4.2,5.9-6.5,12.7-9.1,19.4c-0.5,1.4-1.2,2.3-2.7,2.3c-0.4,0-0.9,0.2-1.3,0.2c-2.4,0.2-4.5,0.9-6.1,2.9c-1.3,1.6-3.5,1.6-5.3,2.3
		c-0.7,0.3-1-0.4-0.8-0.9c1.1-2.3,1.5-5.1,4.2-6.4c1.2-0.6,1.7-1.6,2.3-2.8c1.7-3.3,0.4-6.4-0.4-9.5c-0.2-0.7-0.8-1-1.4-1.3
		c-3.1-1.4-6.2-2.9-9.4-4.3C444.6,557.1,442.3,557.1,439.9,557z"/>
</g>
<g id="crc">
	<path class="st0" d="M137.1,472.2c0.2-1,0.7-1.6,1.1-2.1c3.6-5.3,7.2-10.7,10.7-16c0.7-1,1.4-1.8,2.6-2.2c2.2-0.8,4.3-1.8,6.5-2.7
		c1-0.4,1.8-1,2.3-1.9c0-0.1,0.1-0.1,0.1-0.2c3.7-5,3.8-5,4.9-11.6c0.4-2.2,0.9-4.1,2.7-5.5c0.3-0.3,0.6-0.6,0.8-1
		c2-3,5.1-4.4,8.3-5.8c1-0.4,1.3-0.1,1.4,0.8c0.2,1.5,0.6,3,0.8,4.5c0.1,0.9,0.7,1.3,1.5,1.2c3.1-0.1,6.1-0.2,9.2-0.3
		c1,0,1.4-0.5,1.7-1.4c1-2.8,2-5.6,3-8.5c0.4-1.3,1.1-2,2.7-2.1c0,1,0.1,1.9,0,2.8c-0.1,1.4,0.4,2.5,1.4,3.5c2.2,2.1,2.2,2.1,1.3,5
		c-0.1,0.3-0.2,0.7-0.3,1c-1,2.3-1.2,4.6-0.1,7c0.6,1.3,0.3,2.2-0.8,3c-2.8,2.1-4.1,5.1-5.1,8.4c-0.7,2.4-0.7,4.5,0.4,6.7
		c0.7,1.3,0.4,2.2-0.4,3.3c-1.4,2-3,3.1-5.5,3.2c-2.5,0.1-5.1,0.4-7.4,1.7c-1,0.5-1.6,1.1-1.9,2.2c-1,3.5-2.1,7-3.1,10.5
		c-0.2,0.8-0.5,1.4-1.4,1.7c-0.8,0.3-1.4,0.3-2-0.4c-0.3-0.4-0.8-0.7-1.1-1.1c-0.8-1-1.8-1.4-3.1-1.1c-0.3,0.1-0.7,0.1-1.1,0.1
		c-2-0.3-3.7,0.4-5.1,1.9c-0.9,1-1.8,1-2.9,0.3c-0.3-0.2-0.7-0.3-1-0.5c-1.4-0.9-2.7-1.1-3.8,0.3c-0.4,0.6-1.1,0.7-1.8,0.6
		c-2.1-0.3-4-0.6-5-2.8c-0.5-1.1-1.5-1.5-2.7-1.6C142.4,473,139.8,472.6,137.1,472.2z"/>
</g>
<g id="trn">
	<path class="st0" d="M375.5,314.6c0.1,1.5-0.1,2.9-0.9,4.2c-0.7,1-0.4,2.1-0.3,3.2c0.3,2.2,0.5,4.3,0.9,6.5c0.2,0.9,0,1.5-0.7,2.1
		c-0.7,0.6-1.3,1.4-2,2c-0.9,0.8-1.1,1.7-0.8,2.7c0.4,2.1,0.7,4.2,1.1,6.2c0.2,1.1-0.1,1.7-1.2,1.8c-0.4,0.1-0.7,0.2-1.1,0.3
		c-2.1,0.5-2.1,0.5-2.9-1.6c-0.1-0.3-0.2-0.7-0.4-1c-0.5-0.7-1.1-0.7-1.6,0c-0.1,0.2-0.2,0.4-0.3,0.6c-1.2,2.4-1.2,2.4-3.9,1.7
		c-2.8-0.7-5.7-1.4-8.5-2.1c-2.2-0.6-4-2.5-4.3-4.9c-0.1-0.5-0.3-1-0.2-1.5c0.3-2.1-0.7-3.4-2.6-4.2c-3.8-1.6-6.2-4.3-7.5-8.2
		c-1-3-2.6-5.9-3.9-8.8c-0.5-1.1-1.1-1.8-2.1-2.4c-1.2-0.7-2.4-1.5-3.5-2.3c-0.8-0.6-1.6-0.6-2.3,0.1c-0.3,0.3-0.6,0.5-0.9,0.7
		c-0.3,0.2-0.5,0.2-0.8,0c-0.3-0.2-0.3-0.6-0.1-0.8c1.5-1.8,3.1-3.7,4.7-5.5c0.7-0.7,1.8-0.5,2.7-0.6c1.3-0.2,1.8-0.8,2.1-2.1
		c0.7-3.2,1.5-6.4,2.1-9.6c0.3-1.3,0.8-2.3,2-2.9c0.7-0.4,1.4-0.8,2-1.3c0.9-0.6,1.7-0.9,2.4,0.2c0.2,0.3,0.6,0.5,1,0.4
		c1.8-0.3,3.9,0.5,5-1.8c0.2-0.5,0.7-0.5,1.2-0.4c1.6,0.2,3.2,0.4,4.8,0.6c0.9,0.1,1.2,0.8,1.5,1.4c0.7,1.3,1.6,2,3.3,2.1
		c1.6,0.1,2.9,1.3,3.4,3c0.3,0.8,0.4,1.7,0.3,2.6c0,0.5-0.2,1.1,0.3,1.4c1.5,1,2.7,2.5,4.7,2.5c0.5,0,1,0.1,1.5,0
		c2.1-0.4,3.4,1,4.8,2.2c0.5,0.4,0.5,1,0.5,1.6C375.2,306.7,375.1,310.7,375.5,314.6z"/>
</g>
<g id="jrg">
	<path class="st0" d="M455,306.5c-1.2,0.2-2.4,0.6-3.6,0.7c-4.5,0.6-8.4,2.7-12.5,4.5c-3.2,1.4-6.4,2.8-9.6,4.3
		c-0.9,0.4-1.8,0.8-2.9,0.4c-0.8-0.3-1.7-0.2-2.6,0.2c-0.7,0.3-1.4,0.5-2,0.8c-2.1,0.8-2.1,0.8-3.1-1.1c-0.5-1-1.1-1.3-2.1-0.9
		c-1.6,0.8-2.9,0.2-4.2-0.9c-1.6-1.3-3.3-2.4-4.9-3.7c-1.3-1.1-2.7-1.9-4.6-1.6c-1,0.2-1.5-0.3-1.7-1.4c-0.5-3.1-1.1-6.2-1.7-9.2
		c-0.4-2-0.4-2-2.4-2c-2.6,0-3.7-0.6-6.3-0.5c-1,0-2,0-3-1c-1,0-1.9-1.3-3-1.4c-2.4-0.3-4.3-1.6-6.2-3c-0.7-0.5-1-1.1-0.9-2
		c0.3-2.5,0.6-5.1,0.7-7.6c0.1-1,0.5-1.6,1.3-2.1c1.6-0.8,3-1.8,4.9-1.4c0.6,0.1,1.2,0,1.6-0.4c1-1,2.1-0.8,3.3-0.4
		c0.4,0.1,0.9,0.2,1.3,0.4c2.5,0.9,4.9,1.1,7.4-0.2c1-0.5,2.1-0.3,3.2-0.1c1.5,0.3,3,0.7,4.5,1c1.1,0.2,2.3,0.6,3.3-0.2
		c0.7-0.6,1.3,0.3,2.1,0.2c1.4-0.2,2.9-0.1,4.4-0.3c1.6-0.2,3,0.1,4.3,1.1c1.2,0.8,2.4,1.9,3.9,0.4c0.4-0.4,0.9,0,1.4,0.4
		c1.6,1.3,3.3,2.5,4.8,3.8c1.2,1,2.4,1.6,4,1.4c1.4-0.2,2.3,0.4,3.1,1.6c1.7,2.4,3.5,4.8,5.4,7.1c1.4,1.7,2.2,3.6,2.5,5.7
		c0.2,1.4,0.9,2.3,2.2,3c2.6,1.2,5.1,2.7,7.7,4.1C455.1,306.2,455.1,306.4,455,306.5z"/>
</g>
<g id="igt">
	<path class="st0" d="M370.7,583.1c0.8-1.3,2.3-1.6,2.8-3c0.4-1.3,0.2-2.6,0.4-3.9c0.1-0.9,0.3-1.9,0.3-2.8c0-0.9,0.3-1.5,1.4-1.5
		c2.1-0.2,4.2-0.5,6.3-0.8c1.5-0.2,2.7,0.6,3.9,1.2c1.6,0.7,1.5,0.7,2.6-0.8c1.5-2.2,2.1-4.4,1-7c-0.3-0.8-0.5-1.7-0.6-2.5
		c-0.2-1.4,0.8-2.4,2-1.9c2,0.9,3.1-0.1,4.4-1.3c2.9-2.7,5.8-5.3,8.7-8c0.8-0.7,1.4-1,2.3-0.3c1.8,1.5,3.9,1.7,6.2,1.6
		c1.1-0.1,2.3-0.1,3.6,0.1c-1.6,3.3-3,6.5-4.6,9.7c-0.5,1-0.7,2.1-0.5,3.2c0.2,1.7,0.6,3.5,0.7,5.2c0.1,1.1,0.6,1.9,1.4,2.6
		c3,2.6,6,5.3,9.1,7.9c1.1,0.9,1.7,1.8,1.1,3.3c-0.8,2.4-1.3,4.9-1.8,7.4c-0.2,0.9-0.6,1.4-1.6,1.5c-1.5,0.2-3,0.6-4.5,0.8
		c-1.2,0.1-1.6,0.8-1.7,1.8c-0.6,4-1.2,8.1-1.8,12.1c-0.3,2.1-2.2,3.8-4.4,3.6c-5.3-0.7-10.5-1.5-15.8-2.3c-1.2-0.2-1.8-0.7-1.9-1.9
		c-0.2-1.6-0.8-3.1-1-4.7c-0.2-1.3-0.8-2.2-1.9-3c-2.2-1.6-4.4-3.4-6.6-5.1c-1.1-0.9-2.3-1.3-3.6-1.6c-0.9-0.2-1.4-0.7-1.5-1.6
		c-0.3-1.2-0.7-2.4-0.9-3.6c-0.3-1.7-1-3-2.6-3.8C371.2,583.6,371,583.4,370.7,583.1z"/>
</g>
<g id="ant">
	<path class="st0" d="M255.7,312.2c0.5-0.1,1.2-0.1,1.5,1c0.2,0.9,1,0.9,1.8,0.9c2.6,0.1,5.1,0.3,7.7,0.4c4.3,0.2,8.6,0.4,12.9,0.5
		c0.9,0,1.7,0.3,2.4,0.9c1.6,1.2,3.3,2.4,5,3.6c0.7,0.5,1.4,0.6,1.9-0.1c1.2-1.4,2.8-1.5,4.4-1.6c1.8-0.2,3.7-0.1,5.5-0.3
		c1-0.2,1.7,0.7,2.6,0.9c2.9,0.7,3.5,3.2,4.4,5.5c0.5,1.3,0.1,1.9-1.3,2.4c-1.3,0.4-1.3,1.4-1.4,2.4c-0.1,1.1-0.1,2.1,1.2,2.5
		c1.1,0.4,1.7,1.3,2.2,2.3c0.9,1.8,1.9,3.6,2.7,5.5c0.5,1.1,1.2,2,2.5,2.2c1.9,0.3,2.9,1.4,3.5,3.2c0.6,1.5,1.3,2.9,2,4.4
		c0.4,1,0.9,1.6,2.1,1.4c1-0.2,1.3,0.5,1.4,1.3c0.2,1.4,0.4,2.7,0.5,4.1c0.1,0.8,0.2,1.6,1.2,1.6c1.1,0,1.3,0.8,1.4,1.6
		c0.1,1.4,0.9,2.2,2.1,2.8c0.9,0.4,1.7,0.9,2.5,1.4c0.7,0.4,1.4,0.8,2.3,0.4c0.6-0.3,1,0,1.2,0.6c0.1,0.6-0.4,0.7-0.8,0.8
		c-2.4,0.8-4.7,1.5-7.1,2.2c-1.3,0.4-2.6,0.8-4,1.1c-0.8,0.2-1.7,0.3-1.7-0.9c0-0.7-0.6-0.9-1.1-1.3c-1.7-1.4-3.4-2.7-5.1-4.1
		c-0.6-0.5-1.2-0.8-2-0.7c-0.5,0-1-0.1-1.5,0c-2.7,0.6-4.6-0.7-6.6-2.4c-2.4-2.2-4.2-4.6-5.4-7.6c-1.1-2.9-2.6-5.7-3.8-8.6
		c-0.5-1.1-1.2-1.7-2.4-1.9c-2.6-0.3-5.2-0.6-7.8-1c-1.2-0.2-2.2,0.1-2.8,1.2c-0.2,0.4-0.7,0.8-0.9,1.2c-1.2,2.2-2.9,3.3-5.5,2.9
		c-0.5-0.1-1,0-1.5,0c-1.5,0.2-2.7-0.3-3.6-1.6c-0.3-0.5-0.8-0.8-1.1-1.3c-0.6-0.8-1.3-1.1-2.3-1.1c-1.2,0-2.3,0-3.5,0
		c-1.1,0.1-1.7-0.4-2-1.5c-0.6-2.4-1.3-4.8-2-7.2c-0.3-1.2-0.5-2.4-1.2-3.5c-0.5-0.7-0.3-1.6,0-2.3c1-3.2,0.2-6.2-1.1-9.1
		c-0.4-1-1.2-1.4-2.1-1.8c-0.6-0.3-1.1-0.7-1-1.5c0.2-0.9,0.6-1.5,1.5-1.6C254,312.4,254.7,312.3,255.7,312.2z"/>
</g>
<g id="crg">
	<path class="st0" d="M337.4,233.4c1.1,0.1,2.6,0.3,4.1,0.3c0.9,0,1.5,0.5,2,1.1c1.5,1.7,3.3,2.6,5.6,2.5c0.1,0,0.3,0,0.4,0
		c2.3,0.3,2.4,0.3,2.2,2.5c-0.1,2.2,0.5,4.2,1.4,6.1c0.4,0.8,0.9,1.3,1.8,1.2c2.6-0.2,5.3-0.3,7.9-0.5c1.7-0.1,1.8-0.2,2.1-1.9
		c0.2-1.1,0.7-1.9,1.6-2.5c1.3-0.9,2.4-1.9,3.7-2.7c1.3-0.8,1.7-1.9,1.6-3.3c-0.1-2,0-3.9,0.1-5.9c0-1.9,0.9-3,2.7-3.3
		c1.3-0.2,2.3,0.9,3.4,1.4c0.8,0.4,0.6,1.1,0.6,1.7c-0.2,2.1,0.2,3.9,1.7,5.4c0.6,0.5,0.4,1-0.1,1.5c-0.5,0.4-0.9,1-1.4,1.4
		c-1.4,1-1.7,2.4-1.6,4c0,1,0.2,1.7,1.1,2.2c0.9,0.5,1.2,1.2,1.1,2.2c0,1.1,0,2.2,0.1,3.3c0.1,1.1-0.4,1.7-1.4,1.8
		c-4.4,0.7-6.2,4.6-8.9,7.3c-0.5,0.5-0.4,1.3-0.3,1.9c0.3,1.8-0.5,2.9-2,3.7c-0.4,0.2-0.8,0.6-1.2,0.9c-0.9,0.5-1.4,1.3-1.2,2.4
		c0.2,1.2-0.4,2.1-1,3c-0.6,0.8-1.1,1.6-1.6,2.3c-1.2,1.5-2.1,3.1-1.7,5.2c0.1,0.6-0.2,1.1-0.6,1.5c-0.5,0.4-1,0.9-1.4,1.3
		c-3.1,2.9-3.6,3-7.8,2.1c-0.9-0.2-1.3-0.8-1.7-1.6c-1.5-3.1-3.1-6.1-4.6-9.2c-0.2-0.3-0.3-0.7-0.5-1c-0.3-0.6-0.5-1.5-1.4-1.5
		c-1,0.1-0.9,1-1,1.7c-0.2,0.9-0.7,1.1-1.6,1.1c-3.5-0.3-7-0.4-10.5-0.5c-0.9,0-1.3-0.4-1.5-1.2c-0.8-2.5-1.7-5-2.3-7.5
		c-0.5-1.9-1.5-3.5-2.8-4.9c-0.8-0.9-0.9-1.8-0.5-3c0.7-2.2,1.7-4.2,3.6-5.6c1.2-0.8,1.8-2,2.4-3.3c1.8-3.9,3.6-7.8,5.4-11.7
		C334.7,232.7,334.3,233.3,337.4,233.4z"/>
</g>
<g id="bdq">
	<path class="st0" d="M198,353c-2.3,0-4.5,0-6.8,0c-1.1,0-1.6-0.4-1.7-1.7c-0.1-3.4-0.4-6.8-0.7-10.3c-0.3-3.2,0.2-6.4,0.6-9.6
		c0.3-2.1,0.3-4-1.3-5.7c-1.7-1.8-2.3-4-2-6.5c0.3-2.9-0.3-5.4-2.7-7.2c-2-1.6-1.8-3.9-2.1-6c-0.5-3.9-0.8-7.8-1.3-11.7
		c-0.1-0.9,0.2-1.4,1-1.6c0.4-0.1,0.9-0.2,1.3-0.4c1.1-0.5,1.9-0.3,2.6,0.7c1.1,1.5,2.5,2.9,3.6,4.4c0.8,1,1.7,1.7,3.1,1.8
		c1.6,0.2,1.7,0.4,1.2,1.8c-0.9,2.5-0.5,4.6,0.9,6.8c2.2,3.6,2,3.7,6.1,3.8c1.6,0.1,3.2,0,4.8,0.2c1,0.1,1.8-0.1,2.2-1.1
		c1.1-2.8,3.3-3.4,6-3c3.8,0.6,7.2-0.3,10.3-2.5c0.5-0.4,1.2-0.6,1.7-1c1.2-0.9,2.3-0.7,3.6-0.2c2.1,0.8,2.7,2.1,2.8,4.1
		c0.3,3.9,0.9,7.7,1.1,11.5c0.2,2.6-0.6,5.2-2.9,6.9c-0.4,0.3-0.9,0.4-1.4,0.5c-1.6,0.3-3.2,0.6-4.7,0.8c-0.9,0.1-1.3,0.5-1.2,1.4
		c0.1,0.7,0,1.3,0.1,2c0.2,1.8,0.2,2-1.7,2.1c-2.7,0.1-3.7,1.4-4.1,3.8c-0.1,0.4-0.3,0.8-0.4,1.3c-0.3,1.8-1.2,3.1-3.2,3.1
		c-1.1,0-1.6,0.8-1.3,1.8c0.7,2.8-0.8,4.5-2.6,6.4c-2.4,2.4-4.9,4-8.4,3.2c-0.8-0.2-1.6,0-2.4,0C198,353.1,198,353,198,353z"/>
</g>
<g id="jdm">
	<path class="st0" d="M180,422.2c1.2-0.4,2.1,0.1,3,0.1c0.9,0,1.6-0.2,1.8-1.2c1.1-5.4,4.5-9.8,6.8-14.6c0.6-1.2,1.4-1.7,2.7-1.7
		c1.7,0,3.3-0.3,5-0.5c1.6-0.2,3-1.1,4.4-1.9c1.4-0.8,2.8-0.9,4.4-0.6c2,0.3,3.8,0.8,5.5,1.9c0.6,0.4,1.3,0.7,1.9,1.1
		c1.7,1.3,3.5,1.5,5.6,0.8c3-1.1,6-1.1,9.1-0.5c1.5,0.3,2.7-0.3,4-0.8c1.1-0.4,2.2-0.8,3.3-0.1c0.5,0.3,1,0.2,1.5-0.1
		c0.2-0.1,0.4-0.2,0.6-0.3c3.6-1.5,3.7-1.5,5-5.1c0.9-2.3,2.9-3,4.9-4.6c0.2,1.9,0.5,3.4,0.5,5c0,1.7,1.1,2.8,1.9,4
		c0.3,0.5,0.9,0.5,1.4,0.4c2.6-0.2,3.5,2,5,3.4c0.3,0.3,0.2,0.8,0.1,1.3c-0.1,0.9-0.2,1.9-0.4,2.8c-0.8,3.3-0.5,6.7,0,10
		c0.4,2.5,2.8,5.6,5.4,5.9c3.3,0.3,4.9,2.5,6.6,4.8c0.8,1.1,0.5,2.2,0.5,3.4c-0.1,1.7,0.2,2,1.8,1.7c1.6-0.3,3.2-0.6,4.7-1
		c0.9-0.2,1.7-0.2,2.5,0.4c1.7,1.2,3.4,2.3,5.1,3.5c0.7,0.5,1.2,1.1,1,2c0,0.4-0.1,0.7,0,1.1c0.3,1.9-0.3,3.1-2.3,3.4
		c-0.9,0.2-1.5,0.8-1.8,1.7c-0.5,1.4-1.1,2.9-1.6,4.3c-0.3,0.8-0.7,1-1.5,0.9c-2.2-0.3-4.3-0.6-6.1-2.3c-3.6-3.5-7.5-6.7-11.2-10.1
		c-0.8-0.7-1.6-1.2-2.8-0.8c-0.8,0.3-1.2-0.1-1.2-1c0-0.6-0.1-1.2,0-1.8c0.3-1.8-0.6-2.7-2.2-3.2c-1.6-0.6-3-1.4-4.8-0.6
		c-1,0.5-1.3-0.4-1.5-1c-1-2.5-2-5-2.9-7.6c-0.5-1.5-1.5-2.3-2.8-3.1c-4-2.6-8.5-2.9-13-3.4c-1.6-0.2-3.2-0.4-4.8-0.5
		c-1.2-0.1-1.8-0.6-1.7-1.8c0-3.8-0.7-3.1-3.4-3.1c-1.7,0-3.4,0-5,0c-1.5-0.1-2.9,0.1-4.2,1c-0.9,0.7-1.7,0.5-2.5-0.3
		c-2.8-2.8-2.1-2.2-5.2-0.8c-2.7,1.2-5.3,2.5-7.9,3.7c-0.9,0.4-1.4,1-1.7,1.9c-0.9,2.8-2,5.5-2.9,8.3c-0.3,0.9-0.7,1.3-1.7,1.3
		c-2.2,0-4.4,0.1-6.6,0.1c-0.9,0-1.4-0.3-1.5-1.2C180.6,425.2,180.3,423.7,180,422.2z"/>
</g>
<g id="dib">
	<path class="st0" d="M305.8,319.2c0.2-0.1,0.2-0.2,0.3-0.2c2,0.3,3.3-0.8,4.2-2.4c0.6-1.1,1.4-1.4,2.7-1c1.5,0.5,1.9,0.2,1.9-1.4
		c0.1-3.7,0.1-7.4,0.2-11.2c0-0.8-0.3-1.4-1.1-1.7c-0.9-0.4-1.8-0.9-2.8-1.3c-0.8-0.3-1.1-0.8-1.1-1.7c0-0.7,0-1.3-0.1-2
		c-0.4-4.2-0.4-4.3,2.3-7.2c1.3-1.4,3.2-1.5,4.9-2.2c0.5-0.2,0.9,0.5,1.1,0.9c0.9,1.4,2,2.3,3.7,2.4c1.4,0.1,2.8,0.5,4.3-0.3
		c1.5-0.8,3.7,0.8,3.4,2.5c-0.4,2.8-0.8,5.6-1.2,8.4c-0.1,0.7-0.5,1.2-0.9,1.7c-1.5,1.7-2.9,3.5-4.4,5.2c-1.3,1.5-1.3,1.7,0.1,3
		c1.5,1.5,1.6,1.5,3.4,0.2c0.8-0.6,1.4-0.6,2.1,0c0.6,0.5,1.3,0.9,2,1.3c1.1,0.6,1.7,1.5,2.2,2.6c1.7,4,3.5,7.9,5.3,11.8
		c0.5,1,0.7,2,0.4,3.1c-1.2,3.9-0.6,7.4,2.5,10.4c0.8,0.8,0.9,1.9,1,3c0.2,3-0.7,5.6-2.3,8c-0.9,1.4-1.3,2.8-0.8,4.5
		c0.3,1.2,0.4,2.5,0.7,3.7c0.3,1.3,0.2,2.5-0.5,3.6c-0.4,0.6-0.5,1.7-1.4,1.8c-1,0.2-2,0.1-3.1,0c-0.4,0-0.6-0.4-0.8-0.7
		c-0.4-0.6-0.8-1.2-1.1-1.9c-0.5-1-1.2-1.7-2.4-1c-0.6,0.3-1.1,0.1-1.7-0.2c-0.7-0.4-1.4-0.9-2.1-1.2c-1.3-0.5-1.3-1.7-1.5-2.7
		c-0.2-1-0.3-2.1-1.7-2.1c-0.6,0-0.6-0.6-0.6-1c-0.2-1.5-0.5-3-0.7-4.5c-0.3-1.7-0.4-1.8-1.9-1.6c-1.1,0.2-1.4-0.3-1.8-1.1
		c-0.8-1.7-1.6-3.3-2.3-5c-0.5-1.2-1.1-2-2.4-2.2c-1.8-0.3-2.9-1.4-3.6-3.1c-0.5-1.4-1.4-2.7-2-4.1c-0.6-1.2-1.2-2.3-2.5-2.9
		c-1.1-0.5-0.9-1.6,0.2-2.1c0.7-0.3,1.7-0.2,1.9-1.2c0.2-1.2,0.3-2.5-0.3-3.7C306.9,321.5,306.2,320.4,305.8,319.2z"/>
</g>
<g id="btg">
	<path class="st0" d="M530.5,422.1c2.4,0.5,4.6,0.8,6.6,2.1c1.1,0.7,2.1,0.8,3.3,0.4c1.7-0.5,3.4-1.5,5.1-1.1
		c1.5,0.4,2.9,1.6,4.3,2.6c2.5,1.6,5.1,3.1,7.4,5.1c0.8,0.8,1.6,0.7,2.6,0.2c1.4-0.8,2.8-1.5,4.2-2.3c0.7-0.4,1.3-0.6,2,0
		c1.4,1.1,2.7,1.3,3.9-0.3c0.5-0.7,1.2-0.8,2-0.7c3.1,0.3,6-0.5,9-1.6c3.7-1.3,7.5-2.5,11.2-3.8c0.9-0.3,1.8-0.4,2.8-0.1
		c1.4,0.4,2.8,0.8,4.2,1c1.3,0.2,2,0.9,2.4,2.1c0.6,2.2,1.4,4.5,2.1,6.7c0.2,0.5,0.2,1.2,0.6,1.3c1.9,0.4,0.9,1.7,0.9,2.7
		c-0.1,3.2-1.8,5.4-4.3,7.2c-0.8,0.6-1.5,1.2-2.1,1.9c-1.1,1.1-2.3,2-3.9,2.1c-1.2,0.1-1.7,0.9-2.1,1.9c-0.9,2.6-1.9,5.2-2.8,7.8
		c-0.3,0.9-0.9,1.3-1.6,0.5c-1.8-1.7-3.9-1.4-5.9-0.9c-1.2,0.3-2,0-3-0.7c-3.5-2.6-7.1-5.1-10.7-7.6c-1-0.7-1.6-1.4-1.9-2.5
		c-0.6-1.8-1.4-3.5-2-5.3c-0.3-1-0.9-1.3-2-1.2c-6.5,0.6-12.9,1.2-19.4,1.8c-1.1,0.1-2.2,0.1-3.3-0.2c-3.3-0.8-6.7-1.6-10-2.3
		c-1.1-0.2-1.6-0.8-1.8-1.9c-0.1-1-0.3-2-0.5-3c-0.2-1.1-0.1-2.1,0.4-3.2c0.7-1.5,1.2-3,1.9-4.4
		C530.7,425.2,531.2,423.8,530.5,422.1z"/>
</g>
<g id="crp">
	<path class="st0" d="M404.3,507.8c-2.1,0.3-3.9,0.1-5.7,0.4c-1.2,0.2-2.4,0.5-3.4,1.4c-1.1,1.1-2.4,1.2-3.8,0.6
		c-1.5-0.6-3.1-1-4.6-1.4c-1.7-0.4-2-0.1-1.7,1.5c0.4,1.9,0.7,3.7,1.2,5.6c0.4,1.2,0,1.9-1,2.6c-1.6,1.1-3,2.3-4.6,3.4
		c-1,0.7-1.4,1.6-1.2,2.8c0.2,1.7,0.3,3.5,0.5,5.2c0.1,0.9-0.3,1.4-1.2,1.3c-0.7-0.1-1.5-0.1-2.2-0.1c-0.8,0-1.4-0.3-1.8-1
		c-0.5-1.1-1.5-1.5-2.5-2.1c-2.3-1.2-5.1-2-6.8-3.9c-1.7-1.8-2.7-4.3-3.8-6.6c-0.6-1.2-1.5-2.1-2.9-2.5c-1-0.3-1.9-0.8-2.9-1.1
		c-2.6-0.7-4.4-2.5-6.2-4.3c-0.7-0.7-0.7-1.3-0.4-2.2c1-3.2,2.9-5.7,5.6-7.6c3-2.1,4.8-4.9,5.3-8.6c0.2-1.4,0.7-2.8,1-4.2
		c0.4-1.5,0.6-1.7,2.1-1.5c2,0.3,4,0.9,6,1.1c3,0.3,5.2,1.4,6.4,4.3c0.5,1.2,1.4,1.5,2.6,1.5c3.1,0,6.3,0.2,9.4,0.1
		c2.2-0.1,3.9-1.5,5.4-3c0.7-0.7,0.9-2.1,2-2.1c0.9,0,1.4,1.2,2.2,1.7c1.7,1.1,2.7,2.6,2.6,4.7c-0.1,1,0.5,1.5,1.2,1.9
		c1.8,1,2.4,2.5,2.2,4.6c-0.2,1.3,0,2.6,0,3.9C403.3,505.4,403.2,506.6,404.3,507.8z"/>
</g>
<g id="tcr">
	<path class="st0" d="M383.6,611.1c-1.8-0.9-3.1-0.3-4.5,0.8c-2.2,1.8-4.6,3.4-6.8,5.2c-1,0.8-2.1,1.3-3.4,1.5c-1,0.1-2,0.4-3,0.5
		c-2.4,0.2-4.3,1.4-6.1,2.7c-1.4,1-2.6,1.3-4.2,0.4c-1.2-0.7-2.7-1.2-4-1.8c-0.9-0.4-1.5-0.8-1.5-1.9c-0.2-3-2.1-5.2-3.4-7.8
		c-0.4-0.7-1-0.9-1.8-1c-2.5-0.3-2.5-0.3-2-2.8c0-0.1,0-0.1,0.1-0.2c0.3-1.7,0-2-1.6-2.1c-2.9-0.3-2.9-0.3-3.7-3.1
		c-0.7-2.5-1.5-5-2.3-7.5c-0.4-1.3-0.4-2.5,0.1-3.8c1-2.5,2.1-5,2.9-7.6c0.6-2,2.3-2.8,3.8-3.8c0.7-0.4,1.1,0.1,1.5,0.5
		c2.1,2.1,4.3,4.2,6.3,6.4c1,1.1,2.1,1.7,3.6,1.6c1.2-0.1,2.2,0.4,3.2,1.1c2.3,1.7,4.6,3.4,6.9,5.1c0.8,0.6,1.6,0.9,2.6,0.8
		c1.7-0.1,3.4,0,5-0.2c3.3-0.4,6.2,0.3,8.7,2.5c1.7,1.5,3.6,2.8,5.4,4.2c0.7,0.6,1.2,1.2,1.4,2.1c0.3,1.6,0.7,3.3,1.1,4.9
		c0.2,0.8-0.1,1.1-0.9,1c-0.1,0-0.1,0-0.2,0C384,608.3,384,608.3,383.6,611.1z"/>
</g>
<g id="itq">
	<path class="st0" d="M457.2,569.3c-0.8,1.9-0.6,4.5-3.2,5.5c-1.1,0.4-1.7,1.3-2.1,2.4c-0.7,2-2.2,3.7-2.3,5.9c0,0.6-0.6,0.8-1,1
		c-1.1,0.5-1.6,1.4-1.9,2.5c-1.4,4.4-2.8,8.8-4.2,13.1c-0.6,1.8-0.6,1.8-2.4,1.1c-5.2-2.2-10.5-4.4-15.7-6.7
		c-1.7-0.7-1.7-0.8-1.3-2.6c0.6-2.6,1.2-5.3,1.9-7.9c0.5-1.6,0-2.6-1.2-3.6c-3-2.6-5.9-5.2-8.9-7.8c-1-0.8-1.7-1.7-1.8-3.1
		c-0.1-1.5-0.4-3-0.6-4.6c-0.1-0.8,0-1.4,0.4-2.1c1-2.2,2.1-4.3,3.1-6.5c0.4-0.9,0.9-1.4,2-1c2.1,0.6,4.2,1.1,6.4,1.5
		c1,0.2,1.6,0.7,1.8,1.6c0,0.1,0,0.1,0.1,0.2c1.3,4,0.3,3.5,4.9,3.5c1.5,0,3.1-0.1,4.6,0c1.1,0.1,1.8-0.3,2.2-1.4
		c0.1-0.3,0.3-0.5,0.4-0.8c0.3-1.1,0.9-1.2,2.1-1.2c4.4,0,8.1,2.1,12,3.9c3.9,1.8,3.9,1.8,4.8,5.9
		C457,568.7,457.1,568.9,457.2,569.3z"/>
</g>
<g id="bpr">
	<path class="st0" d="M503,524.1c-0.5-0.7-0.5-1.3-0.6-2c-0.2-1.8-0.2-1.9,1.6-2.3c0.8-0.2,1.2-0.6,1.6-1.3c1.4-2.5,2.2-5.2,2.4-8.1
		c0-0.4,0-0.9,0.1-1.3c0.9-2.6-0.2-4.5-2-6.2c-1.5-1.4-2-3-1.6-4.9c0.1-0.3,0-0.6,0.1-0.9c1-3.4-0.1-6.3-2.2-8.9
		c-0.9-1.2-0.7-2.1,0-3.3c5.3-9.3,10.4-18.6,15.6-27.9c0.4-0.7,0.6-1.5,1.3-1.9c0.6,0.2,0.5,0.7,0.5,1.1c0.2,2.5,0.4,5.1,0.6,7.6
		c0.1,1.6,0.5,3,1.4,4.3c1.8,2.7,3.5,5.6,5.3,8.3c0.7,1.1,0.9,2,0.3,3.2c-0.9,1.8-0.1,4.4,1.6,5.5c1,0.6,1.4,1.4,1.4,2.5
		c0.1,1.3,0.4,2.6,0.4,3.9c-0.1,2.3,0.6,4.2,2.8,5.5c-1.2,0.9-1.6,2-1.5,3.3c0.1,1-0.4,1.5-1.2,1.8c-1.3,0.6-2.5,1.2-3.8,1.8
		c-1.2,0.5-1.9,1.2-2.4,2.4c-1,2.6-2.2,5.1-3.3,7.7c-0.4,1-0.9,1.6-2,1.8c-0.5,0.1-1,0.3-1.5,0.5c-0.9,0.3-1.2,0.9-1.1,1.8
		c0.2,1.7,0.2,1.7-1.5,2.1c-2.6,0.6-5.1,1.2-7.7,1.7C506,522.2,504.2,522.5,503,524.1z"/>
</g>
<g id="ivn">
	<path class="st0" d="M476.3,502.7c-2.1,0.4-4.4-0.1-6.6-0.9c-2.8-0.9-5.7-1.8-8.6-2.6c-1.5-0.4-2.6-1.2-3.4-2.5
		c-1.1-2-2.4-3.8-3.7-5.7c-0.9-1.3-1.3-1.3-2.3-0.1c-1.5,1.8-2.9,3.6-4.3,5.5c-0.7,0.9-1.2,1.2-2.3,0.5c-1.8-1.2-3.7-2.3-5.7-3.3
		c-0.8-0.5-1.4-1.1-1.5-2c0-0.1,0-0.1-0.1-0.2c-1.6-3.8-1.5-7.4,1.1-10.9c1.4-1.9,2.3-4.1,3.3-6.2c1.3-2.6,3.3-4.2,6.4-4
		c0.7,0,1.3,0,2-0.1c0.9-0.1,1.6,0.2,1.8,1.1c0.5,1.7,1.7,2.3,3.3,2c0.4-0.1,0.7,0,1.1,0c2.4-0.4,4.3,0.3,5.5,2.5
		c0.5,0.9,1.3,1,2.2,1.1c4.6,0.3,9.2,0.3,13.8,0.4c2.9,0,3.8,0.7,4.3,3.7c0.3,2,0.6,4.1,0.7,6.1c0.1,1.4,0.5,2.6,1.3,3.7
		c0.1,0.1,0.2,0.2,0.2,0.4c0.8,1.4,2.3,2.8,2.4,4.4c0.1,1.8-1.3,3.5-1.9,5.3c-0.3,0.8-0.8,1.1-1.6,1.3
		C481.3,502.4,478.9,502.7,476.3,502.7z"/>
</g>
<g id="rcd">
	<path class="st0" d="M408.6,271.7c0.2,0.8,0.4,1.5,0.6,2.2c0.4,1.9-0.4,2.7-2.4,2.4c-1.4-0.3-2.9-0.6-4.3-1
		c-1.9-0.6-3.7-0.6-5.5,0.3c-1.5,0.7-2.9,0.7-4.4,0.2c-1-0.3-2.1-0.5-3.2-0.9c-1.2-0.4-2.3-0.5-3.3,0.4c-0.5,0.5-1.1,0.7-1.8,0.5
		c-1.3-0.4-2.4,0.2-3.5,0.7c-2.9,1.2-4.4,3-4.1,6.3c0.1,1.9-0.3,3.8-0.6,5.6c-0.3,1.9-1.5,2.5-3.3,1.6c-0.7-0.3-1.3-0.7-1.9-1
		c-1.1-0.5-1.4-0.4-1.8,0.7c-0.2,0.4-0.2,0.9-0.3,1.3c-0.5,1.5-0.7,1.6-2.4,1.7c-1.1,0.1-1.8,0-2-1.3c-0.2-1.3-3.2-3.5-4.6-3.6
		c-1,0-1.6-0.4-2.1-1.2c-0.8-1.3-0.9-1.3,0.4-2.5c0.5-0.5,1-1,1.6-1.5c1.6-1.3,2.9-2.7,2.2-5c-0.2-0.7,0.2-1.3,0.6-1.8
		c0.7-1,1.4-2,2.1-3.1c0.9-1.3,1.9-2.6,1.6-4.4c-0.1-0.5,0.2-0.8,0.6-1.1c0.3-0.3,0.7-0.6,1.1-0.8c2-1.1,3.3-2.6,2.8-5.1
		c-0.1-0.7,0.2-1.3,0.7-1.8c0.4-0.4,0.8-0.8,1.2-1.3c1.8-2.6,4.4-4,7.3-5.1c3.1-1.2,6.2-1.3,9.4-1.8c0.6-0.1,1.2,0,1.7-0.2
		c1.1-0.4,2,0,2.8,0.7c0.7,0.6,1.6,1.1,2.6,1.1c2.6-0.1,4.8,0.9,7.1,1.8c1.1,0.5,2.3,1,3.6,0.5c0.9-0.3,1.3,0.3,1.6,1
		c0.4,0.8,0,1.2-0.6,1.6c-0.8,0.6-1.6,1.2-2.5,1.8c-1,0.7-1.5,1.4-1.2,2.7c0.3,1.4,0.4,2.9-0.5,4.2c-0.3,0.4-0.3,0.8-0.1,1.3
		c0.7,1.4,1.5,2.9,2.3,4.2c0.3,0.5,0.8,0.6,1.3,0.2C407.7,272.2,407.9,271.7,408.6,271.7z"/>
</g>
<g id="gll">
	<path class="st0" d="M251.5,393.9c1.1,0.4,2.1,0.7,3,1.1c2.3,1,4.7,1.4,7.2,1.5c1.9,0.1,3.7,0.5,5.4,1.5c0.6,0.4,1.3,0.7,2,1
		c2.4,0.8,4.1,2.2,4.5,4.9c0.3,1.7,2,2.8,3.1,4.2c0.3,0.4,0.8,0.4,1.2,0.3c0.2,0,0.4-0.1,0.6-0.1c2.8-1.2,5.2-0.9,6.8,2
		c0.6,1.1,1.5,1.1,2.4,0.3c0.9-0.8,1.6-0.7,2.5,0c0.5,0.4,1.1,0.7,1.7,1.1c0.9,0.5,1.6,1,1.4,2.2c-0.1,1,0.5,1.5,1.2,1.9
		c1.4,0.9,2.8,1.8,4.2,2.7c0.8,0.5,1.3,1.1,1.2,2.1c-0.1,1.9-0.1,3.8-0.1,5.7c0,1-0.3,1.4-1.3,1.6c-1.6,0.3-3.1,0.8-4.7,1.1
		c-0.9,0.2-1.5,0.7-2,1.5c-1.4,2.5-2.9,4.9-4.3,7.4c-0.8,1.3-0.8,1.3-2.2,0.5c-1.6-1.1-3.3-2.2-4.9-3.4c-1.2-0.9-2.4-1.2-3.9-0.8
		c-1,0.3-2,0.4-3,0.7c-0.9,0.2-1.5,0-1.3-1c0.2-1.4-0.4-2.4-1.3-3.4c-0.6-0.7-1.2-1.5-1.8-2.2c-1.1-1.4-2.5-2.3-4.4-2.6
		c-3.2-0.4-4.7-2.5-5.4-5.6c-0.8-4,0-7.8,0.6-11.7c0.2-1.3-0.1-2.1-1-2.9c-1-0.9-2-1.8-2.9-2.7c-0.6-0.6-1.2-0.7-2-0.7
		c-1.4-0.1-2.4-0.7-2.5-1.9C251.7,398,251.2,396,251.5,393.9z"/>
</g>
<g id="rng">
	<path class="st0" d="M335.7,231.5c-0.1-0.9,0.4-1.6,0.7-2.3c0.9-2,1.9-4,2.7-6c0.5-1.2,1.3-2.1,2.5-2.5c0.6-0.2,1.2-0.6,1.8-0.8
		c1.2-0.4,1.8-1.2,1.7-2.4c-0.1-1.2,0.4-1.9,1.6-1.6c3.1,0.6,4.7-0.8,5.7-3.6c0.6-1.6,1.6-3.1,2.3-4.7c0.4-1,1-1.4,2.1-1.5
		c2.7-0.1,5.4-0.6,8.1-0.6c1.7,0,2.9-0.6,4.1-1.6c2.5-2.1,2.5-2,5.2-0.2c0.9,0.6,1.2,1.3,1.2,2.3c0,1.6,0.1,3.2,0.1,4.8
		c0,1.1,0.3,2,1.5,2.4c0.9,0.2,1.1,0.8,1.1,1.7c0,1.9,0,3.8-0.3,5.7c-0.4,2.2-1.8,4.1-3.7,4.8c-3.2,1.2-4.3,3.3-3.8,6.5
		c0.2,1.4-0.1,2.8,0,4.2c0.1,1.2-0.4,1.9-1.3,2.6c-1.1,0.7-2.1,1.6-3.2,2.3c-1.1,0.8-2.3,1.6-2.4,3.2c0,0.6-0.4,0.8-1,0.9
		c-2.2,0.3-4.4,0.2-6.6,0.4c-0.7,0-1.1-0.3-1.3-0.9c-0.5-1.1-1-2.1-0.9-3.3c0-0.4,0-0.9,0-1.3c-0.1-3.9,0.6-3.5-3.6-4
		c-2.3-0.3-4.3-0.7-5.7-2.6c-0.6-0.8-1.5-1.1-2.5-1.1C339.8,231.9,337.8,231.6,335.7,231.5z"/>
</g>
<g id="jat">
	<path class="st0" d="M484.7,514.1c-1.3,1.9-1.3,1.9-0.2,4.2c0.6,1.4,1.2,2.8,2,4.2c0.6,1.2,0.5,2.1-0.5,3.1c-3,2.9-5.8,6-8.7,9
		c-0.8,0.8-1.7,1.6-1.8,3.1c-3.2-1.8-6.5-3-9.8-4.3c-0.2-0.1-0.5-0.2-0.6-0.3c-0.3-1.7-1.4-1.1-2.5-1.1c-1.2,0-2.4-0.7-3.5-1.2
		c-1.4-0.7-2.8-0.9-4.2-0.3c-2.9,1.4-4.8-0.6-6.8-2.1c-0.6-0.4-0.6-1.3-0.7-2c-0.2-1.1-0.7-1.8-1.7-2.4c-3.9-2.2-7.7-4.4-11.6-6.7
		c-0.9-0.5-1.8-0.5-2.7-0.5c-4.5-0.2-4.5-0.2-7.3-3.6c-1.9-2.3-3.8-4.6-5.7-6.9c-1.3-1.5-1.3-1.5-3-0.4c-1.2,0.8-2.5,1.6-3.7,2.4
		c-0.6,0.4-1.1,0.7-1.8,0.1c-0.5-0.5-0.3-1.1,0-1.6c1.6-3.1,3.3-6.2,4.9-9.3c0.5-0.9,1-0.8,1.8-0.4c3.3,1.9,6.6,3.8,9.9,5.7
		c2.8,1.6,5.6,3.2,8.3,4.8c1,0.6,1.7,0.5,2.5-0.3c0.2-0.2,0.3-0.3,0.5-0.4c1-0.7,1.6-2.4,2.9-2.1c2,0.5,4.3,1,5.5,3.2
		c0.7,1.4,1.6,2.8,3.4,3.2c0.8,0.2,0.9,1.1,1.1,1.8c0.3,1.1,1,1.7,2.1,2c0.6,0.1,1.3,0.4,1.9,0.5c3.1,0.7,5.8,1.9,8,4.2
		c1,1,2,1.1,3.4,0.7c3.3-1,6.6-1.8,10-2.6c1.2-0.3,2-0.8,2.1-2.1c0.1-1.2,0.8-1.6,1.9-1.5C481.5,514.2,483.1,514.1,484.7,514.1z"/>
</g>
<g id="lgc">
	<path class="st0" d="M344.3,533.8c-0.2-0.3-0.3-0.4-0.3-0.5c-0.3-2.3-1.6-3.7-3.8-4.3c-1.2-0.3-1.9-1-1.7-2.4
		c0.2-1.1-0.5-1.9-1.3-2.6c-2.7-2.4-5.3-4.9-7.9-7.2c-0.9-0.8-1.3-1.6-1.2-2.8c0.2-3.5,0.3-7,0.5-10.5c0.1-1.3-0.1-2.5-1.3-3.2
		c-0.5-0.3-0.9-0.8-0.6-1.5c0.3-0.6,0.7-1.1,1.3-0.5c1.5,1.4,3.1,1,4.7,0.4c1-0.4,2.1-0.7,3.2-0.9c1.3-0.2,2.1-0.9,2.4-2.2
		c0.4-1.5,1.3-2.3,2.9-2.5c0.6-0.1,1.3-0.2,1.9-0.4c2.4-0.8,4.9-0.9,7.3-0.2c1.1,0.3,1.8,0,2.3-1c0.1-0.3,0.4-0.5,0.5-0.7
		c1-1.7,2.2-3.1,4.4-3c0.5,0,0.9-0.3,1.6-0.5c-0.5,2.8-1.2,5.4-1.9,8c-0.1,0.4-0.5,0.7-0.8,1c-1,0.9-1.9,1.8-2.9,2.7
		c-2.5,2-4.4,4.3-5.6,7.4c-1.4,3.8-1.3,2.6,1,5.4c2.1,2.5,4.8,3.7,7.7,4.7c1.9,0.6,3.1,1.7,4,3.4c1,2.1,2,4.4,3.5,6
		c1.6,1.7,4,2.3,6.1,3.4c0.8,0.4,1.5,0.8,2.4,1.4c-1.3,0.9-2.6,0.9-3.8,1.2c-2.4,0.4-4.6,1.4-6.4,3c-1.6,1.3-1.6,1.3-3.4,0.1
		c-0.2-0.1-0.4-0.2-0.5-0.4c-1.3-1.2-2.6-1.4-4.1-0.3c-1,0.8-2,0.7-2.9-0.1c-1.8-1.7-3.6-1.9-5.7-0.6
		C345.5,533.5,344.9,533.6,344.3,533.8z"/>
</g>
<g id="arm">
	<path class="st0" d="M303.5,518.6c2.3,1.1,3.9,2.4,5.6,3.5c0.5,0.3,1,0.7,1.5,1c1.2,0.7,1.5,0.6,2-0.5c0.4-0.9,0.7-1.9,1.1-2.9
		c0.2-0.4,0.3-0.8,0.5-1.2c0.8-1.2,5.8-2.3,7.1-1.6c1.3,0.7,2.7,1.5,4,2.2c1.9,1,1.9,1,3-0.9c2.6,2.4,5.2,4.8,7.8,7.1
		c0.6,0.6,0.8,1.2,0.7,2c-0.3,1.7,0.5,2.6,2.1,3c0.6,0.2,1.2,0.6,1.8,0.8c1,0.3,1.2,1.2,1.4,2c0.2,1-0.7,1.1-1.3,1.5
		c-1.3,0.9-2.9,1.3-3.9,2.8c-0.3,0.4-0.7,0.4-1.2,0.3c-0.6-0.1-1.1-0.3-1.7-0.4c-2.7-0.6-4.3,0.3-5.1,2.9c-0.3,0.9-0.8,1.3-1.6,1.6
		c-2.4,0.8-4.7,1.7-7,2.5c-1.2,0.4-1.8,1.1-1.9,2.3c-0.1,3.5-1.5,6.3-4.3,8.5c-0.9,0.7-1.7,1.5-2.8,2.1c-1.3,0.6-2.4,1.1-3.3-0.5
		c-0.2-0.4-0.7-0.6-1.2-0.5c-1.5,0.3-1.7-0.6-1.9-1.7c-0.2-1.2-0.5-2.4-0.8-3.6c-0.4-1.9-0.9-3.7-2.2-5.2c-0.9-1-1-2.1-0.5-3.4
		c1.1-2.7,0-5.3-0.3-8c-0.1-0.5-0.6-0.8-1.1-1.1c-1.1-0.6-1.3-1.5-1.1-2.6c0.3-2,0.6-4,0.8-6.1c0.1-0.7,0.4-1.1,0.9-1.3
		C303,522.5,303.7,521,303.5,518.6z"/>
</g>
<g id="prn">
	<path class="st0" d="M348.5,620.3c-3.2,0.6-6.3,1.2-9.5,1.7c-1.9,0.3-3.9,0.7-5.8,1c-1.1,0.2-1.9,0.7-2.4,1.6
		c-0.7,1.2-1.6,2.3-2.3,3.5c-1,1.4-0.9,1.5,0.2,2.8c0.1,0.1,0.2,0.2,0.3,0.3c0.3,0.6,1.4,0.9,0.7,1.8c-0.6,0.9-1.9,1.3-2.8,1
		c-0.1,0-0.1,0-0.2-0.1c-1.9-0.8-4.1-1.3-5.5-2.6c-1.5-1.3-1.2-3.8-1.8-5.7c-0.6-1.9-0.8-3.8-0.7-5.8c0.1-3.1,0-6.1,0-9.2
		c0-1.1-0.2-2-0.9-2.9c-0.8-1.1-1.6-2.3-2.3-3.5c-1-1.6-2.1-3-3.7-3.9c-1.1-0.6-1.5-1.5-1.1-2.7c0.2-0.5,0.3-1.1,0.5-1.7
		c0.7-1.6,0.4-3-0.7-4.5c-1.5-2-0.9-3.8,1.5-4.7c1.2-0.4,2.4-0.8,3.5-1.3c1.2-0.5,2.4-0.5,3.6-0.3c1,0.1,1.6,0.4,1.6,1.6
		c0.1,1.4,0.3,1.5,1.7,1.1c2.2-0.7,4-0.3,5.9,1.1c1.5,1.2,3.6,1.8,4.6,3.2c1.1,1.5,1.3,3.7,1.9,5.5c0.7,2.2,1.4,4.5,2,6.7
		c0.3,1.2,0.9,1.8,2.1,1.7c0.4,0,0.9,0.1,1.3,0.1c0.6,0,0.9,0.4,0.8,1c-0.1,0.8-0.1,1.6-0.3,2.4c-0.2,1,0.2,1.4,1.1,1.5
		c0.3,0,0.6,0.2,0.9,0.2c2.2-0.3,3.1,1,3.9,2.7C347.5,615.9,348.4,617.7,348.5,620.3z"/>
</g>
<g id="jut">
	<path class="st0" d="M387,511c2,0.1,3.6,0.8,5.2,1.3c1,0.3,1.8,0.4,2.7-0.4c2.5-2.3,5.5-2.4,8.6-2.2c1,0.1,1.9,0.2,2.3-1
		c0.2-0.5,0.6-0.5,1.1-0.4c0.9,0.3,1.5,0.8,2.2,1.4c1.2,1.2,1.2,1.2,2.8,0.2c1.3-0.8,2.6-1.6,3.9-2.5c0.7-0.5,1.2-0.4,1.8,0.3
		c2.2,2.8,4.6,5.5,6.8,8.3c1,1.3,2,2.3,3.8,2.1c0.6-0.1,1.2,0.2,1.7,0.1c2.9-0.3,5.1,1.4,7.5,3c-0.8,0.5-1.5,0.6-2.2,0.7
		c-8.5,1.6-16.9,3.3-25.4,4.9c-1.2,0.2-1.9,0.7-2,2.1c-0.1,1.2-0.5,2.3-0.7,3.4c-0.1,0.8-0.4,1.6,0,2.4c0.7,1.4,0.3,2.7-0.3,4
		c-0.6,1.3-1.1,2.7-1.7,4c-0.6,1.4-0.7,1.4-2,0.5c-1.4-1-2.7-2-4-3.1c-0.6-0.5-1.2-0.8-2-0.4c-1.1,0.5-1.8,0-2.6-0.7
		c-2.1-1.7-4.3-3.3-6.3-5.1c-1.4-1.2-2.9-1.9-4.7-1.9c-1.2,0-1.7-0.5-1.8-1.7c-0.1-1.9-0.1-3.8-0.5-5.7c-0.2-0.8,0.3-1.4,0.9-1.8
		c1.6-1.2,3.1-2.4,4.7-3.5c1.2-0.8,1.6-1.8,1.2-3.2C387.7,514.6,387.4,512.9,387,511z"/>
</g>
<g id="ang">
	<path class="st0" d="M445.8,468.4c0.1-0.4,0.1-0.7,0.2-0.9c0.5-1.1,0-1.8-0.9-2.3c-2.1-1.2-4.1-2.5-6.2-3.7
		c-1.1-0.6-1.5-1.3-1.6-2.6c-0.2-2.1-0.3-4.2-0.4-6.3c-0.1-1,0-2.1-0.8-2.9c-0.4-0.4-1.2-0.6-0.6-1.4c0.5-0.7,1-1.7,2.2-1.5
		c0.2,0,0.4,0.1,0.6,0.2c1.4,0.6,2.5,0.5,3.4-0.9c0.6-0.9,1.7-0.8,2.6-0.9c2.8-0.4,5.6-0.8,8.4-1.2c0.5-0.1,1.1,0,1.4-0.4
		c0.8-1.2,1.8-0.9,2.9-0.5c2.3,0.8,4.6,1.5,7.1,2.3c-0.7,1.9,2,5.8,2.7,6.4c1.6,1.5,3.1,3.1,4.8,4.5c1.5,1.3,2.5,2.9,2.7,4.8
		c0.2,1.6,1.1,2.3,2.6,2.7c1.9,0.4,2.3,0.1,2.2,2.5c-0.1,1,0.5,1.8,1,2.6c1.3,2.2,2.6,4.4,3.6,6.7c-0.6,0.6-0.9,0.1-1.3,0
		c-0.4-0.2-0.8-0.5-1.2-0.4c-5.2,1-10.5-0.1-15.7,0.1c-1,0-1.7-0.4-2.2-1.2c-1.2-2-3-2.8-5.3-2.4c-0.5,0.1-1,0-1.5,0
		c-1.4,0.2-2.1-0.4-2.6-1.7c-0.7-1.7-0.8-1.6-2.6-1.5C449.3,468.4,447.6,468.8,445.8,468.4z"/>
</g>
<g id="atj">
	<path class="st0" d="M269.1,459.6c1.9,2.7,4.7,2.4,7.4,2c1.3-0.2,2.2,0.2,3,1.2c1.1,1.4,2.4,2.6,3.5,3.9c0.8,0.9,1.6,1.4,2.8,1.2
		c0.1,0,0.3,0,0.4,0c2.2,0.4,3.8-0.4,4.8-2.4c0.6-1.1,1.4-1.5,2.7-1.2c1,0.3,2.1,0.3,3.2,0.7c0,1.2-0.4,0.1-0.9,0.9
		c-1.2,1.5-2.4,3-3,4c-1.5,2.6-0.4,4.7-2.7,6.9c-0.6,0.6-0.7,1.2-0.4,2c0.1,0.3,0.2,0.7,0.3,1c1.5,2.6,0.1,4.8-1.1,6.9
		c-0.3,0.5-0.7,0.8-1.2,0.8c-0.7,0-0.7-0.7-0.8-1.1c-0.8-2.7-2.7-4.7-4.1-7c-0.4-0.7-1.1-0.7-1.7-0.6c-2.3,0.2-4.5,0.2-6.8,0.6
		c-2.7,0.5-5.4,0.2-8.1-0.2c-1.4-0.2-2.9-0.4-4.3-0.7c-2.6-0.5-5.1-0.4-7.6,0.2c-1,0.2-1.9,0.1-2.5-0.7c0-0.1-0.1-0.1-0.2-0.1
		c-2.3-2.8-5.2-4.3-8.8-4.8c-2.4-0.4-2.8-2-1.2-3.8c1.2-1.4,2.5-1.9,4.4-1.4c3,0.8,3,0.7,3.4-2.4c0.5-3.2,0.2-2.9,3.1-2.6
		c1.9,0.2,3.6-0.4,5.4-0.8c2.1-0.5,3.8-0.3,5.6,0.7c1.7,1,1.8,0.9,3-0.7c0.6-0.8,1.1-1.5,1.7-2.3
		C268.6,459.9,268.7,459.9,269.1,459.6z"/>
</g>
<g id="itp">
	<path class="st0" d="M392.1,444.6c0.1,0.4,0,0.6-0.1,0.7c-1.7,1.1-2.4,2.8-3.1,4.6c-1.1,2.6-2.2,5.1-3.2,7.7
		c-0.5,1.2-1.2,1.9-2.5,2.1c-0.6,0.1-1.1,0.3-1.7,0.4c-1.4,0.2-2.6,0.6-2.8,2.2c-0.1,0.8-0.8,1-1.4,1.2c-3.7,1-7.3,2-11,3
		c-0.5,0.1-1,0.1-1.5-0.1c-4.1-1.4-8.3-2.8-12.3-4.6c-1.6-0.7-1.8-1-1.2-2.5c0.7-1.7,0.6-3.1-1.2-4.2c1.7-1.6,2.8-3.5,5.4-3.3
		c1.2,0.1,2.7-2.5,2.6-3.8c0-0.1,0-0.3-0.1-0.4c-2-3.8,0.9-6.6,2-9.8c0.2-0.5,0.6-0.6,1.1-0.3c0.1,0,0.1,0.1,0.2,0.1
		c1.8,2,4.2,1.8,6.5,1.4c1.9-0.4,4,0,5.8-1c0.7-0.4,1.1,0.2,1.4,0.7c0.9,1.2,1.8,2.5,2.7,3.7c1.1,1.5,1.1,1.5,2.9,0.7
		c0.9-0.4,1.7-0.8,2.6-1.2c0.8-0.4,1.3-0.2,1.6,0.7c0.4,1.1,0.2,2.7,1.5,3.3c1.1,0.5,2.3-0.5,3.6-0.7
		C390.5,445,391.3,444.5,392.1,444.6z"/>
</g>
<g id="tqs">
	<path class="st0" d="M500.4,488.1c0.9,1.6,1.7,2.8,2.4,4c0.5,0.8,0.3,1.7,0.2,2.6c-0.1,1.1-0.1,2.2-0.3,3.3c-0.5,2.4,0.3,4.3,2,5.9
		c0.5,0.5,0.9,1,1.3,1.5c0.3,0.4,0.7,0.8,0.6,1.4c-0.6,3.1-0.3,6.4-1.8,9.4c-0.6,1.2-1.2,2-2.6,2.2c-1.7,0.3-1.7,0.4-1.6,2.2
		c0.1,1.2,0.3,2.5,0.4,3.7c0.1,0.7,0.2,1.3,0,2c-0.2,0.7-0.6,1.2-1.4,0.9c-2.3-0.9-3.7,0.3-4.8,2.1c-1.1,1.9-2.8,3-4.9,3.2
		c-1.6,0.2-2.8,1.1-3.9,2.2c-2,2.1-4.1,4.2-6.1,6.2c-0.4,0.4-0.7,1-1.4,0.7c-0.8-0.3-0.9-1-1-1.8c-0.1-1.9,0.3-3.4,1.8-4.9
		c3.1-2.9,5.9-6,8.9-9.1c1.3-1.4,1.3-1.4,0.6-3c-0.7-1.6-1.5-3.2-2.2-4.8c-0.8-1.8-0.8-1.9,0.8-3.1c0.8-0.6,1.7-1.2,2.5-1.8
		c0.7-0.5,1-1.1,0.5-1.9c-1.6-2.2-0.6-4,0.6-6C493.9,499.8,497,494.1,500.4,488.1z"/>
</g>
<g id="pdg">
	<path class="st0" d="M438.4,62.9c-0.9,0.1-1.7,0.2-2.6,0.3c-1,0.1-1.6,0.5-2.1,1.3c-0.9,1.6-2,3.2-2.9,4.9c-0.7,1.4-1.7,2-3.3,2.1
		c-3.8,0.4-7.5,0.9-11.3,1.5c-0.9,0.1-1.7,0.1-2.5-0.3c-2.1-1-4.3-1.9-6.4-2.9c-0.7-0.3-1.3-0.7-1.6-1.4c-0.9-2.2-2.6-3.1-4.9-3.4
		c-0.9-0.1-1.7-0.3-2.5-0.6c-1.7-0.7-3.2-0.3-4.7,0.7c-1.2,0.9-2.5,1.7-4.1,2c-2.4,0.4-4.9,1.2-7.3,1.3c-3.2,0.1-4.8,1.8-5.6,4.7
		c-0.3,1-0.3,1.8,0.3,2.6c1.3,1.8,2.5,3.6,3.8,5.4c0.5,0.7,0.8,1.3,1,2.2c0.7,3.3,1.5,6.5,2.3,9.8c0.2,0.9,0.4,1.9,0.3,2.8
		c-0.2,2.7-0.4,5.4-0.8,8.1c-0.2,1.7-0.1,3.1,1.3,4.3c0.7,0.6,1.2,1.1,2.2,0.8c1.2-0.4,2.4-0.4,3.7-0.7c0.9-0.2,1.4,0.2,1.5,1.1
		c0.2,1.3,0.4,2.6,0.6,4.2c1-0.6,1.4-1.4,2-2c1-1,1.6-2.5,3-3.2c3.3-1.7,6.7-3.3,10-4.9c1.1-0.5,1.4-0.3,1.8,0.8
		c0.3,0.9,0.1,2.2,1.1,2.7c0.9,0.5,2-0.3,3-0.3c0.3,0,0.6-0.1,0.9-0.1c3-0.1,5.3-1.3,6.9-3.8c0.7-1.1,1.7-1.5,3-1.3
		c1.3,0.2,2.7,0,3.9,0.2c2.2,0.4,4.2-0.2,6.2-0.8c1-0.3,1.5-0.8,1.4-1.8c0-1.2,0.2-2.5,0.1-3.7c-0.1-1.5,0.5-2.2,1.8-2.9
		c3.8-1.9,7.5-4,11.2-6c1.4-0.8,1.5-0.8,0.9-2.3c-0.4-1.1-0.2-1.9,0.4-2.9C452.5,77.6,440.6,59.4,438.4,62.9z"/>
</g>
<g id="nhs">
	<path class="st0" d="M483.6,503.8c-0.2,1.9,0.8,3.3,1.3,4.8c0.7,2.1-0.2,3.6-2.4,3.7c-1.2,0.1-2.5,0-3.7,0.1
		c-1.7,0.1-1.9,0.2-2.2,1.8c-0.2,1.3-0.9,1.7-1.9,1.9c-2.8,0.7-5.7,1.4-8.5,2.2c-1,0.3-2,0.5-2.8-0.5c-2.3-2.5-5.2-3.6-8.4-4.3
		c-1.6-0.4-2.9-0.9-3.2-2.8c-0.1-0.8-0.8-1.2-1.5-1.5c-2-0.7-2.7-2.3-3.3-4.1c-0.1-0.2-0.1-0.4-0.1-0.6c-0.2-1.3-0.5-2.6-0.7-3.9
		c-0.3-1.7,1.6-1.8,2.2-2.9c0.9-1.6,2.2-2.9,3.3-4.3c1-1.3,1.1-1.3,2,0c1.1,1.6,2.2,3.3,3.2,5c0.6,0.9,1.3,1.5,2.3,1.8
		c4.3,1.3,8.5,2.6,12.8,3.9c0.7,0.2,1.4,0.2,2.2,0.2C477.2,504.4,480.3,504.4,483.6,503.8z"/>
</g>
<g id="gdd">
	<path class="st0" d="M444.9,504.2c-1.5-0.6-2.6-0.9-3.6-1.4c-0.9-0.4-1.7-0.3-2.4,0.5c-0.5,0.5-1.1,1-1.6,1.5
		c-1.3,1.2-1.3,1.2-3,0.3c-5.6-3.2-11.1-6.4-16.7-9.6c-0.7-0.4-1.2-1-1.6-1.7c-1.2-2.1-2.3-4.2-3.5-6.3c-0.4-0.6-0.7-1.3-0.5-2.1
		c0.4-2.2,0.8-4.3,1.1-6.5c0.2-1.1,0.7-1.5,1.8-1.4c0.9,0,1.7-0.2,2.6-0.2c1.3,0,2.5-0.1,3.3-1.3c0.2-0.4,0.7-0.6,1.1-0.4
		c0.5,0.2,0.8,0.7,0.6,1.2c-0.1,0.7-0.3,1.4-0.4,2.1c-0.4,2.3-0.5,2.3,1.8,3c2.4,0.8,4.8,1.7,7.3,2.2c2.6,0.5,3.9,1.8,4.2,4.4
		c0.2,1.8,0.6,3.7,1.6,5.2c0.9,1.4,2.9,1.9,4.4,2.8c0.2,0.1,0.4,0.3,0.6,0.3c1.7,0.6,2.3,1.8,2.5,3.5
		C444.4,501.5,444.6,502.7,444.9,504.2z"/>
</g>
<g id="crs">
	<path class="st0" d="M336,573C336,573,336,573,336,573c0-0.3-0.1-0.6-0.5-0.8c-2.5-1.4-4.6-3.4-7.8-2.9c-1.1,0.2-1.6-0.4-1.8-1.4
		c-0.5-1.8-1.2-3.4-1.6-5.2c-0.8-3.5-3.4-5.7-5.4-8.3c-0.5-0.6-1-0.5-1.5,0c-0.8,0.8-1.5,1.6-2.3,2.4c-0.7,0.7-1.4,1.4-2.3,1.6
		c-1.8,0.5-2.6,1.7-2.3,3.6c0.1,0.9,0,1.8,0,2.6c0,0.9-0.1,1.8-0.6,2.5c-1,1.5-1,3.1-0.8,4.8c0.2,1.4,0.9,2.3,1.7,3.2
		c1.4,1.6,1.8,3.2,0.9,5.2c-0.6,1.4-1.1,3-1.1,4.8c1.8-0.2,3.2-0.9,4.7-1.5c2.2-0.9,4.2-0.1,6.2,0.2c0.6,0.1,0.8,0.6,0.9,1.1
		c0.1,0.5,0.1,1.1,0.9,0.9c0.5-0.1,1.1-0.2,1.3-0.7c3.9,1.2,8.5,4.8,8.5,4.8s1-2,2-3s1-4,2-6s4-4,4-4S338,574,336,573z"/>
</g>
<g id="stq">
	<path class="st0" d="M383.7,622.6c-3.2-1.7-5.7-1-7.9,1.5c-0.4,0.5-1,0.5-1.6,0.6c-1.9,0.3-3.9,0.6-5.8,0.9c-1.3,0.2-2.2,0.7-2.6,2
		c-0.2,0.7-0.6,1.3-0.9,2c-0.9,1.9-0.9,1.9-3,1.6c-0.1,0-0.3,0-0.4-0.1c-2.4-0.7-4.4-0.4-6.1,1.6c-0.3,0.3-0.7,0.5-1,0.8
		c-0.7,0.6-1.3,0.6-1.9-0.1c-1-1.2-2.2-1.1-3.6-0.8c-3.3,0.7-6.6,1.3-9.9,2c-0.9,0.2-1.6,0.1-2.3-0.3c-2.2-1.1-4.7-1.6-6.3-3.8
		c-0.6-0.9-0.8-1.5-0.1-2.3c0-0.1,0.1-0.1,0.1-0.2c2-3.1,2-3.1,5.6-3.7c4.4-0.8,8.8-1.5,13.1-2.4c0.8-0.2,1.5-0.1,2.3,0.2
		c1.6,0.7,3.2,1.3,4.8,2.1c1,0.5,2,0.6,2.9-0.1c3.2-2.5,6.9-3.6,10.9-4.1c1-0.1,1.9-0.6,2.7-1.3c2.5-1.9,5-3.7,7.6-5.6
		c1.6-1.1,2.4-1,3.3,0.7c0.8,1.4,1.4,2.9,2.2,4.5C384,618.9,383.8,620.6,383.7,622.6z"/>
</g>
<g id="ddp">
	<path class="st0" d="M423.5,467.3c1.1,0.2,2.2,0.3,3.2,0.5c0.6,0.1,1.3,0.4,1.9-0.2c0.6-0.6,0-1.2-0.2-1.8c-0.5-1.1-1-2.3-1.5-3.4
		c-0.4-0.7-0.4-1.3,0.2-2c1.3-1.7,2.2-3.5,2.6-5.7c0.3-1.6,1.4-3,2.1-4.5c0.3-0.7,0.8-0.6,1.4-0.3c1.3,0.7,2,1.6,2,3.1
		c0,2.3,0.4,4.7,0.4,7c0,1.2,0.4,1.9,1.5,2.4c2,1.1,4,2.4,6,3.6c0.9,0.5,1.3,1.1,0.8,2.1c-0.6,1.2-0.9,2.6-2,3.6
		c-0.7,0.6-1,1.6-1.5,2.4c-1.5,2.7-2.9,5.4-4.3,8.1c-0.5,1-1.1,1.4-2.2,1c-3-1-6-1.9-9-2.8c-1-0.3-1.3-0.8-1.1-1.7
		c0.1-0.6,0.2-1.1,0.4-1.7c0.3-1.1,0.4-2.2-1-2.7c-0.5-0.2-0.8-0.7-0.6-1.2C423,471.2,422.8,469.3,423.5,467.3z"/>
</g>
<g id="jap">
	<path class="st0" d="M387.3,610.6c6,0.2,12.3,1.4,18.7,2.4c1,0.2,1.5,0.5,1.8,1.5c0.9,3,1.9,6,2.8,9c0.2,0.6,0.5,1.3-0.2,1.8
		c-0.8,0.5-1.5,1.2-2.4,1.4c-0.2,0-0.4-0.1-0.6-0.3c-2-2.2-4.8-3-7.3-4.4c-1.2-0.7-2.5-1.2-3.7-1.9c-0.9-0.5-1.8-0.7-2.6,0
		c-0.7,0.6-1.2,0.2-1.5-0.4c-0.7-1.3-1.7-1.9-3.2-1.8c-1,0-1.8-0.5-2.2-1.5c-0.4-0.9-0.8-1.7-1.3-2.5c-0.4-0.7-0.5-1.5-0.3-2.3
		C385.5,610.7,385.9,610.2,387.3,610.6z"/>
</g>
<g id="vic">
	<path class="st0" d="M405,501.1c0-0.3,0-0.6,0-0.9c0.3-2.4-0.2-4.3-2.5-5.7c-1.3-0.8-1.4-3-0.4-4.3c0.7-0.9,1.5-1.8,2.2-2.7
		c0.6-0.9,1.4-1,2.4-1.1c2.3-0.3,3.9,0.4,4.7,2.7c0.4,1.1,1,2.2,1.7,3.1c1.3,1.7,1,3.1,0,4.8c-1.6,2.8-3.1,5.8-4.7,8.7
		c-0.3,0.6-0.6,1.3-1.4,0.9c-0.8-0.4-2-0.4-2-1.7C405,503.6,405,502.3,405,501.1C405,501.1,405,501.1,405,501.1z"/>
</g>
<g id="drn">
	<path class="st0" d="M386.9,458.8c1.6-3.6,3-7,4.5-10.4c0.5-1,1.3-1.7,2.6-1.8c1.5-0.1,2.9-0.1,4.4-0.2c0.8,0,1.1,0.3,1.3,1.1
		c0.4,1.4,0.5,2.6-0.5,3.9c-0.9,1.2-1.6,2.6-2.4,3.9c-0.7,1.2-1.4,2.4-0.7,3.9c0.3,0.7,0,1.3-0.7,1.6c-0.7,0.4-1.4,1.2-2.2,0.4
		C391.5,459.5,389.3,459.1,386.9,458.8z"/>
</g>
<g id="snr">
	<path class="st0" d="M466,29h-6l-9,14l-10,7c0,0-3,4-4,5s-5,3-5,3s-5,3-6,4s-7,1-8,2s-6,0-6,0l-1.8-0.8c-0.4-1.5-1.5-2.7-3.1-3.6
		c-0.3-0.2-0.6-0.4-0.9-0.7c-2.7-2.6-5.9-4.3-9.6-4.8c-1.1-0.2-2.1-0.5-3.2-0.8c-0.7-0.2-1.4-0.2-2.1,0c-3.5,0.8-7,1.7-10.5,2.2
		c-2.6,0.4-4.1,1.5-4.4,4.1c-0.2,1.5-1.1,2.5-2.3,3.3c-1.9,1.3-3.8,2.8-5.6,4.2c-0.8,0.6-1.5,0.7-2.4,0.2c-1.5-0.8-3-1.5-4.5-2.3
		c-0.7-0.4-1.3-0.4-2.1,0c-1.4,0.7-2.9,1.4-4.3,2.1c-0.9,0.5-1.8,0.8-2.9,0.5c-1.2-0.3-2.5-0.3-3.7-0.5c-1.2-0.1-2.3-0.3-3.5-0.4
		c-0.8-0.1-1.9,0.2-1.7,0.9c0.4,1.6-0.4,2.8-0.6,4.2c-0.1,0.8,0,1.4,0.4,2.1c1.7,2.4,3.4,4.7,5.1,7.1c0.6,0.8,1.3,1.1,2.2,1
		c1.3-0.2,2.6-0.3,3.9-0.5c1.1-0.1,1.9,0.2,2.9,0.6c3,1.3,4.7,3.3,4.7,6.6c0,0.7,0.2,1.3,0.9,1.7c1.1,0.6,2.1,1.3,3.2,1.9
		c0.4,0.2,0.9,0.4,1.2,0c1-1.3,1.8-0.8,2.7,0.1c0.4,0.4,0.9,0.5,1.4,0.1c2.4-1.5,4.8-2.9,7.4-4.5c-1.2-1.8-2.3-3.5-3.5-5
		c-1.2-1.4-1.4-2.8-0.5-4.4c0.4-0.8,0.9-1.7,0.1-2.5c-1.2-1.3-0.8-2.6-0.1-4c0.5-1,0.9-2,1.2-3c0.4-1.2,1.2-1.8,2.4-1.9
		c1.9-0.3,3.7-0.7,5.6-1c3.6-0.6,7.2-1.2,10.2-3.7c0.7-0.6,1.5-0.6,2.5-0.4c2.2,0.6,4.5,1.2,6.8,1.7c1.1,0.2,1.8,0.8,2.3,1.7
		c0.5,0.9,0.9,2.1,2,2.6c1.7,0.7,3.2,1.7,5,2.1c0,0,0,0,0,0c0.9,0.6,1.8,1.1,3,1c3.8-0.6,7.6-1.1,11.5-1.6c0.5-0.1,1-0.1,1.3-0.6
		c0.7-1.2,1.6-2.3,2.1-3.8c-0.7-0.1-1.3-0.1-1.9,0L429,64l7-3l5,1c0,0,7,2,10,2s7-1,8-2s6-4,6-4l2-5l3-5v-8c0,0,0-8,0-9
		S466,29,466,29z"/>
</g>
<g id="lad">
	<path class="st0" d="M118.1,196.3c-0.1-0.7-0.3-1.4,0.1-2.1c0.4-0.8,0.7-1.5,2.1-1.2c2.6,0.5,0-3.5,0.1-6.2
		c0.1-1.5,4.4,0.7,5.9,0.8c1.9,0.1,3.8,0.1,5.7,0.2c1.6,0.1,1.8,0.3,2.3,1.8c0.6,1.6,0.7,3.1-0.9,4.3c-0.8,0.6-1,1.5-1,2.6
		c0.1,2.8,0.1,5.7,0.1,8.5c0,1.5,0,1.6-1.5,1.7c-1.2,0.1-2.3,0.1-3,1.4c-0.3,0.5-0.7,0.7-1.3,0.4c-0.4-0.1-0.8-0.3-1.3-0.3
		c-1.6-0.1-2.3-1.1-2.4-2.5c0-0.1-0.1-0.3-0.1-0.4c-0.2-1.6-0.9-2.9-2.3-3.8C118.8,200.3,117.6,198.7,118.1,196.3z"/>
</g>
<g id="cxm">
	<path class="st0" d="M435,130.1c-0.3-2.2-0.4-2.2-2.6-2.5c-2.4-0.4-4.7-0.8-7.1-1.2c-0.5-0.1-1-0.1-1.1-0.8c-0.1-0.6,0.2-1,0.7-1.3
		c1.4-1,2.7-2,4.1-3c1.1-0.7,1.6-1.7,1.3-3c-0.3-1.3-0.4-2.6-0.2-3.9c0.3-3.4-0.6-6.5-2.4-9.4c0-0.1-0.1-0.1-0.1-0.2
		c-1.1-2.2-3.2-2.5-4.9-0.8c-0.6,0.6-1.1,1.3-1.7,2c-0.7,0.8-1.4,1.4-2.5,1.5c-2.7,0.4-5.3,0.9-7.9,1.4c-0.8,0.1-1.3-0.1-1.5-0.9
		c-0.1-0.4-0.3-0.8-0.4-1.3c-0.5-1.4-0.6-1.5-2-0.9c-1.7,0.8-3.4,1.7-5.1,2.5c-2.3,1-4.1,2.4-5.5,4.5c-0.7,1.1-1.7,2-2.5,3
		c-0.3,0.4-0.7,0.7-1.3,0.6c-0.7-0.1-0.7-0.7-0.7-1.2c-0.1-0.8-0.3-1.6-0.4-2.4c-0.4-3.1-0.4-3.2-3.5-2.4c-1.8,0.5-3,0-3.9-1.4
		c-0.2-0.4-0.5-0.7-0.8-1c-0.9-0.7-1.1-1.6-1-2.7c0.3-2.3,0.4-4.7,0.7-7c0.5-3.1-0.1-5.9-1.1-8.8c0.5-2.7-0.7-4.7-1.3-5.4
		c-0.1-2.1-1-3.5-3-5.3c-0.8,1.5-0.9,1.6-0.4,2.3c1,1.6,2.1,3.1,3.2,4.6c0.1,1.1,0.2,2.3,0.6,3.3c-0.4,0.2-0.8,0.4-1.1,0.6
		c-2.1,1.3-4.2,2.6-6.3,3.9c-1,0.7-2,1.2-3.2,0.2c-0.3-0.3-0.8-0.4-1.2,0c-1,1.1-1.9,0.6-2.9-0.1c-0.8-0.5-1.6-1.1-2.4-1.4
		c-1.7-0.7-2.5-2-2.6-3.7c-0.1-2.4-1.3-3.8-3.4-4.9c-1.4-0.7-2.8-0.7-4.2-0.4c-4.2,0.8-4.2,0.8-6.6-2.6c-0.3-0.5-0.7-1-1-1.4
		c-1.4-1.9-2.7-3.7-4.1-5.6c-0.5,0.6-0.6,1.2-0.7,1.7c-1.1,4.4-2.3,8.8-3.4,13.1c-2,7.9-4,15.8-6,23.8c-0.4,1.6-0.3,1.7,1.3,1.4
		c2.4-0.4,4.7-0.7,7.1-1.1c1.9-0.3,3.5,0,5.2,1.2c2,1.5,4.1,2.7,6.3,4c0.8,0.5,1.4,1.1,1.8,1.8c1.6,2.5,3.3,4.8,4.7,7.4
		c1.2,2.3,3.1,3.7,5.3,5c1.7,1,3.3,1.5,5.2,0.7c0.9-0.3,1.8-0.5,2.7,0.2c2.1,1.4,4.3,2.8,6.4,4.1c0.8,0.5,1.2,1.2,1.1,2.2
		c-0.2,1.8,0.4,3.4,1.1,5.1c0.4,1,0.9,1.6,1.9,2c2.1,0.9,4.1,1.9,6.2,2.7c1.2,0.5,2.1,1.2,2.8,2.3c1,1.8,2.2,3.4,3.2,5.2
		c0.7,1.2,1.5,1.6,2.8,1.6c2.1-0.1,4.2,0,6.4,0c2.3,0,5.7-2.1,6.7-4.2c1.4-2.7,2.9-5.4,4.1-8.3c0.8-2,2.2-2.9,4.3-3.2
		c0.9-0.1,1.7-0.1,2.3,0.8c0.5,0.8,1.1,1.5,2.1,2c1.1-1.6,2.5-1.4,4.1-0.7c0.5,0.2,1,0.4,1.4,0.5c1.3,0.4,1.4,0.4,1.7-1
		c0.3-1.3,0.8-2.3,2.4-2.4c0.2,0,0.4-0.1,0.6-0.2c2.2-0.8,3.7-2.8,3.5-5.1C435.5,134.5,435.3,132.3,435,130.1z"/>
</g>
<g id="fts">
	<path class="st0" d="M389.2,490.7l-2.7-2.7v-2.7c0,0,0-2.7,1.4-2.7c1.4,0,4.1,1.4,4.1,0c0-1.4,2.7,2.7,4.1,1.4c1.4-1.4,5.4,0,5.4,0
		l4.1-4.1h4.1l1.4,1.8c0,0,1.1,4.3-3.9,3.3c-3.2,0.7-5,3-5,3l-1,2c0,0-3.5-2.5-3.6-2.9c-0.1-0.3-2.4-3.1-3.4-1.1
		C393.4,487.3,391,489,389.2,490.7z"/>
</g>
<g id="mdn">
	<path class="st0" d="M410.8,620.4c0,0,4.1-2.7,8.1,2.7c4.1,5.4,2.7,6.8,5.4,8.1s5.9,0.8,5.9,0.8s-1.7,8.2-7.9,6.4
		c-0.7,0.9-0.7,2.2-0.7,2.2s-2.7,1.4-4.1,0c-1.4-1.4-1.4-6.8-2.7-6.8s-4.1,0-5.4-1.4c-1.4-1.4-4.1-4.1-2.7-4.1
		c1.4,0,6.8-1.4,5.4-4.1C410.8,621.7,410.8,620.4,410.8,620.4z"/>
</g>
<g id="edr">
	<path class="st0" d="M439.4,602.5c-5.8-2.5-11.7-5-17.5-7.5c-0.7-0.3-1.4-0.3-2.1-0.2c-1.1,0.2-2.1,0.5-3.2,0.6
		c-1,0.1-1.5,0.6-1.6,1.7c-0.5,3.6-1.2,7.2-1.6,10.8c-0.2,1.9-0.7,3.6-2.7,4.3c-1.2,0.4-1.4,1.1-1,2.4c0.5,1.4,0.9,2.7,1.3,4.1
		c0.6-0.2,1.4-0.5,2.5-0.5c1.7,0,4.3,0.7,6.8,4c2,2.7,2.8,4.5,3.3,5.7c0.5,1.2,0.6,1.5,1.6,2c1.3,0.6,2.7,0.8,3.7,0.8
		c0.3,0,0.6,0,0.8,0c0.2-0.5,0.3-1,0.5-1.6c0.5-1.5,1.2-2.6,2.6-3.3c0.3-0.1,0.5-0.3,0.7-0.5c4.2-2.6,4.2-2.6,4.2-7.6
		c0-2,0-3.9,0.8-5.8c0.9-2.2,1.6-4.5,2.3-6.8C441.2,603,440.9,603.2,439.4,602.5z"/>
</g>
<g id="pda">
	<path class="st0" d="M501,182c0,0,4.2-1.1,8-3c4-2,11.2,1,11.2,1l7.8-4l2,2l3,2l2.5,12.2c0,0,0.9,4,3.6,5.4c2.7,1.4,1,3.6,1,3.6
		l0.3,4.5c0,0,2.7-2.7,12.2,0c9.5,2.7,5.4,1.3,7.4,5.3s3,5,3,5s-2.3,1.6-5,3s-6.7,8.3-8.1,11c-1.4,2.7-6.8,2.7-8.1,0
		s-13.5-4.1-13.5-5.4s-6.8-1.4-6.8-1.4l1.4,4.1l-6.8,2.7c0,0,0,1.4-5.4,0c-5.4-1.4-20.8-5.2-19.8,0c-4.4-7-10-18.2-10-22
		c0-3,1.6-7.4,7-6s11.7-1.1,10-2c-2-1,0.3-4.9,2-6s2-4,2-4s-0.5-1.5-3-4C498,185,501,182,501,182z"/>
</g>
<g id="ctr">
	<path class="st0" d="M491.3,148.5c0.4,1.4,0.7,2.8,2,3.8c0.7,0.5,0.9,1.3,0.8,2.2c-0.1,1.3-0.3,2.5-1.4,3.4c-2.8,2.3-3.4,5.2-3,8.6
		c0.1,0.4,0,0.9,0,1.3c-0.1,1.1,0.3,1.9,1.1,2.7c2.2,2.3,4.2,4.8,6.5,7.1c1.4,1.3,1.9,2.7,1.5,4.5c0,0.1,0,0.2,0,0.2
		c0.4-0.5,0.8-1,1.2-1.3l0.3-0.3l0.4-0.1c0,0,4.1-1.1,7.7-2.9c3.9-1.9,9.8-0.1,11.8,0.7l7-3.6c-0.4-0.9-0.8-1.8-1.3-2.8
		c-0.4-0.8-0.2-1.4,0.5-1.8c0.8-0.5,1.6-1,2.5-1.4c1.1-0.6,1.7-1.4,2-2.7c0.6-2.9,1.3-5.8,2-8.7c0.2-0.7,3.6-3.1,4.2-3.1
		c0.4,0,0.7-0.3,0.7-0.7c0.1-1.8,1.3-2.4,2.8-2.9c1.5-0.5,1.5-0.7,0.4-2.3c-0.3,0-0.1-1.6-0.5-3c-0.2-0.6-0.3-1.1-0.5-1.7
		c-0.5-1.8-0.6-2,1.1-2.7c1.6-0.6,2.4-1.6,2.3-3.2c-0.2-1.9,1.2-2.7,2.5-3.4c1.4-0.8,2.5-2.1,4.2-2.1c0.1,0,0.3,0.1,0.4,0.1
		c1.4,0.5,2.4,0,3.2-1.1c0.7-0.9,1.6-1.7,2.3-2.6c0.8-1,0.7-1.9-0.1-2.7c-1.2-1.1-2.4-2.1-3.6-3.2c-0.5-0.4-1-0.6-1.6-0.7
		c-4.5-0.3-9-0.7-13.5-1.1c-0.9-0.1-1.5,0.3-2,1c-0.7,1.2-1.5,2.3-2.3,3.5c-1,1.4-1.1,1.4-2.6,0.3c-0.8-0.6-1.5-1.2-2.2-1.7
		c-0.9-0.6-1.2-1.3-1.4-2.3c-0.5-3.2-1.1-6.3-1.6-9.5c-0.4-2.3-0.8-4.6-1.2-6.9c-0.5-2.6-0.5-2.6,2.1-3.6c0.5-0.2,1.1-0.4,1.6-0.6
		c0.8-0.2,0.9-0.7,0.9-1.5c-0.1-2-0.4-2.4-2.5-2.3c-0.5,0-1,0-1.5,0.1c-3.3,0.4-6.5,0.4-9.1-2.3c-0.4-0.4-0.9-0.5-1.4-0.3
		c-0.6,0.3-0.5,0.9-0.4,1.3c0.2,2.1,0.4,4.2,0.7,6.3c0.6,4.9,0.6,4.9-3.1,8.2c-0.2,0.1-0.4,0.3-0.5,0.4c-1.7,2-3.5,3.2-6.2,1.8
		c-1-0.5-1.6,0.2-2.2,0.9c-0.6,0.8-0.3,1.3,0.3,1.9c0.5,0.6,1.4,1.2,0.8,2c-0.7,0.8-1.5-0.1-2.2-0.3c-0.4-0.2-0.8-0.4-1.2-0.6
		c-0.6-0.3-1.1-0.3-1.7,0c-1.1,0.5-2.1,1-3.2,1.4c-0.9,0.4-1,0.9-0.6,1.7c0.2,0.4,0.4,1,0.6,1.4c1.1,1.9,1,3.9,0.6,6.1
		c-0.4,2.2-1.7,3.2-3.3,4.3c-0.6,0.4-1.3,0.5-1.9,0.2c-1.5-0.9-2.9-0.4-4.4,0.2c-1.4,0.6-2.9,1-4.3,1.6c-1.6,0.7-3.2,1-4.9,0.9
		c-1.7,0-3.4,0.1-5.3,0.1c0.3,1.4,1.2,2.1,1.8,3c0.9,1.5,2.1,2.3,3.7,2.8c3.1,0.9,6.2,2,9.4,3.1
		C491.2,145.2,490.2,144.2,491.3,148.5z"/>
</g>
<g id="cgr">
	<path class="st0" d="M372,298c5,1,5,8.8,5,12c0,5,0,9.4,0,13c0,2,0.9,3.4,0,6c-0.7,2.1-3.5,5.4-3,7c1.2,3.6,3.2-2.7,4.9-1.6
		c1.1,0.6,1.7,0.4,4.1,1.6s0.9,0.8,2,4c1,3,0.4,4.9,1,6s-1.2,0.4,0,4s1.4,3,5,3c6,1,12,9,12,9s4.5,3.7,5,4c4,2,3,6,9,6
		c2.4,0,1.9,0.7,2.4,3.3c0.5,2.6,2.4,5.9,4.6,10.7c4.5,8.4,13.6,15.6,16,18s6.8,7.4,11,8s6.8,2.2,8,1s4-2,4-2c1.2,2.4,2.8,3,4,3
		s2.1-1,4-1s3,0.2,7,1s1-6,1-6c-0.4-2.8-0.5-5-1-7s1-5,0-7c-1.4-2.8-3-7-3-7s-5.4-10.3-7-14s-3.4-2.8-7-4s-0.6-2.4-3-6s-4.7-4.6-8-4
		s-5.9-5.5-6.6-8.1c-0.6-2.7-3-3.3-5.9-6s-1.9-2.1-4.5-1.7c-2.7,0.4-2.1-2.8-3.3-5.2s-2-3.8-1.7-10.9c0.2-5.2-1-8-1-8
		c-1.5-1.7-1.7-1.2-4,0c-2.3,1.2-3.6,1.2-5,0c-1.4-1.2-1.3-1-3-1s-8.4-5.9-9-7s-3.4,1.5-5,0s-2-2-2-7c0-3.1-1.8-6-4-6
		c-3,0-7.8-1-9-1s-6.5-3.2-6.5-3.2s-2.4-2.9-3.5-1.8c-1,1-1.4-1-5-1c0,0,0,0-1,2c-1.2,2.4-4,2.8-4,4S370.8,296.8,372,298z"/>
</g>
<g id="agc">
	<path class="st0" d="M587.7,343.7c-1.9-1.2-3.1-3-4-5.1c-1.5-3.7-3.3-7.3-4.9-11c-0.4-0.9-0.9-1.8-1.6-2.6
		c-6.1-7.8-12.2-15.7-18.5-23.4c-1.5-1.8-1.6-3.2-0.3-4.9c0.9-1.2,1-2.5,0.7-3.9c-0.5-2.4-0.6-4.8-1.2-7.1c-0.5-1.8,0-2.9,1.6-3.7
		c1.2-0.5,1.4-1.5,1.2-2.7c-0.4-2.9-0.9-5.8-1.1-8.7c-0.1-2.4-1.1-4-3.2-5c-0.3-0.1-0.5-0.3-0.7-0.5c-2-1.4-2-1.4-0.2-3.2
		c1.3-1.3,2.7-2.7,4-4c3-2.9,1.8-2.7,5.7-1.3c1.4,0.5,1.4,0.5,2.1-0.9c0.4-0.9,0.8-1.9,1.2-2.8c1.4-3.1,2.8-6.3,4.1-9.4
		c0.4-1,1-1.7,2.2-1.8c1.2-0.2,2.4-0.5,3.6-0.8c0.4-0.1,0.9-0.2,1.3-0.4c1-0.5,1-1.5,0-2c-0.5-0.3-1-0.5-1.1-1.2
		c-0.6-3.4-2.5-6.4-3.3-9.7c-0.3-1.3-1-2-2.2-2.4c-2-0.8-2-0.8-1.8-2.9c0-0.4,0-0.7,0.1-1.1c0.5-1.6-0.1-2.7-1.5-3.5
		c-0.3-0.2-0.6-0.4-0.9-0.7c-0.9-0.8-1.8-1-2.9-0.3c-1.1,0.7-1.3,0.8-1.9,0.2l-0.3,0.3c-0.1,0.1-2.4,1.7-5.2,3.1
		c-1.9,1-5.5,6.6-7.4,10.3c-0.9,1.8-2.9,2.9-5.4,2.9c0,0,0,0,0,0c-2.4,0-4.5-1.1-5.4-2.9c-0.6-1-5.3-2.2-7.6-2.8
		c-3.6-0.9-5.5-1.4-5.9-2.6c-0.6-0.2-1.8-0.4-3.3-0.5l1.1,3.4l-7.6,3c-0.1,0.1-0.2,0.2-0.3,0.3c-1.1,0.8-3.1,0.8-6.5,0
		c-14.3-3.6-17.3-2.6-17.9-2c0,0-0.1,0.1,0,0.3l1.7,8.2l-0.4-0.6c0.3,1.5,0.3,3-0.2,4.6c-0.3,0.9-0.4,1.9,0.1,2.8
		c2.5,4,4.4,8.4,7.2,12.2c0.4,0.5,0.4,1.1,0.4,1.6c0.1,1.6,0.1,3.2,0.2,4.8c0,1,0.3,1.7,1.5,1.7c2.8,0.1,4.6,1.6,5.6,4.1
		c0.2,0.5,0.6,1,0.9,1.5c1.6,3.4,3.8,6,7.5,7.2c0.1,0,0.1,0.1,0.2,0.1c0.8,0.3,1.2,0.9,1.3,1.8c0.3,2,0.6,3.9,1,5.8
		c0.2,1.1,0.6,1.9,1.7,2.2c1.1,0.3,2.1,1,3.2,1.4c1.1,0.4,1.6,1.1,1.6,2.3c0,2.2,0.2,4.4,0.3,6.6c0,0.8,0.3,1.3,0.9,1.9
		c3.1,2.8,6.2,5.6,9.2,8.4c6.1,5.7,12.7,11,18.4,17.2c6,6.5,12.1,12.9,18.1,19.4c1.5,1.6,3.1,3,5.1,4c2.3,1.1,4.5,2.5,6.7,3.7
		c1.1,0.6,2.1,1.3,3.4,1.6c0.3-1,0.4-1.9,0.5-2.9c0-1.6,0-3.2,0.3-4.8C589.2,345.3,588.8,344.5,587.7,343.7z"/>
</g>
</svg>
